<?xml version="1.0" encoding="UTF-8"?>
<svg xmlns="http://www.w3.org/2000/svg" xmlns:xlink="http://www.w3.org/1999/xlink" viewBox="0 0 24 24" version="1.1">
    <g>
        <path d="M 12 2 C 6.484375 2 2 6.484375 2 12 C 2 13.636719 2.429688 15.167969 3.132812 16.53125 L 2.046875 20.414062 C 1.792969 21.316406 2.6875 22.207031 3.585938 21.953125 L 7.472656 20.871094 C 8.835938 21.570312 10.363281 22 12 22 C 17.515625 22 22 17.515625 22 12 C 22 6.484375 17.515625 2 12 2 Z M 12 3.5 C 16.703125 3.5 20.5 7.296875 20.5 12 C 20.5 16.703125 16.703125 20.5 12 20.5 C 10.5 20.5 9.097656 20.109375 7.871094 19.425781 C 7.699219 19.332031 7.496094 19.304688 7.304688 19.359375 L 3.609375 20.390625 L 4.640625 16.699219 C 4.695312 16.507812 4.671875 16.304688 4.574219 16.132812 C 3.890625 14.90625 3.5 13.503906 3.5 12 C 3.5 7.296875 7.296875 3.5 12 3.5 Z M 11.988281 6.488281 C 11.574219 6.496094 11.242188 6.835938 11.25 7.25 L 11.25 13.25 C 11.246094 13.519531 11.386719 13.773438 11.621094 13.910156 C 11.855469 14.042969 12.144531 14.042969 12.378906 13.910156 C 12.613281 13.773438 12.753906 13.519531 12.75 13.25 L 12.75 7.25 C 12.753906 7.046875 12.671875 6.851562 12.53125 6.707031 C 12.386719 6.566406 12.191406 6.484375 11.988281 6.488281 Z M 12 15.5 C 11.449219 15.5 11 15.949219 11 16.5 C 11 17.050781 11.449219 17.5 12 17.5 C 12.550781 17.5 13 17.050781 13 16.5 C 13 15.949219 12.550781 15.5 12 15.5 Z M 12 15.5"/>
    </g>
</svg>
