<?xml version="1.0" encoding="UTF-8"?>
<svg xmlns="http://www.w3.org/2000/svg" xmlns:xlink="http://www.w3.org/1999/xlink" viewBox="0 0 24 24" version="1.1">
    <g>
        <path d="M 12 2 C 9.246094 2 7 4.246094 7 7 C 7 9.753906 9.246094 12 12 12 C 14.753906 12 17 9.753906 17 7 C 17 4.246094 14.753906 2 12 2 Z M 12 3.5 C 13.941406 3.5 15.5 5.058594 15.5 7 C 15.5 8.941406 13.941406 10.5 12 10.5 C 10.058594 10.5 8.5 8.941406 8.5 7 C 8.5 5.058594 10.058594 3.5 12 3.5 Z M 6.25 14 C 5.015625 14 4 15.015625 4 16.25 L 4 16.851562 C 4 18.320312 4.933594 19.640625 6.355469 20.546875 C 7.777344 21.453125 9.722656 22 12 22 C 14.277344 22 16.222656 21.453125 17.644531 20.546875 C 19.066406 19.640625 20 18.320312 20 16.851562 L 20 16.25 C 20 15.015625 18.984375 14 17.75 14 Z M 6.25 15.5 L 17.75 15.5 C 18.171875 15.5 18.5 15.828125 18.5 16.25 L 18.5 16.851562 C 18.5 17.683594 17.964844 18.5625 16.839844 19.28125 C 15.714844 20 14.035156 20.5 12 20.5 C 9.964844 20.5 8.285156 20 7.160156 19.28125 C 6.035156 18.5625 5.5 17.683594 5.5 16.851562 L 5.5 16.25 C 5.5 15.828125 5.828125 15.5 6.25 15.5 Z M 6.25 15.5"/>
    </g>
</svg>
