<?xml version="1.0" encoding="UTF-8"?>
<svg xmlns="http://www.w3.org/2000/svg" xmlns:xlink="http://www.w3.org/1999/xlink" viewBox="0 0 24 24" version="1.1">
    <g>
        <path d="M 3.75 3 C 2.515625 3 1.5 4.015625 1.5 5.25 L 1.5 17.75 C 1.5 19.535156 2.964844 21 4.75 21 L 19.25 21 C 21.035156 21 22.5 19.535156 22.5 17.75 L 22.5 10.25 C 22.5 9.015625 21.484375 8 20.25 8 L 19.5 8 L 19.5 5.25 C 19.5 4.015625 18.484375 3 17.25 3 Z M 3.75 4.5 L 17.25 4.5 C 17.671875 4.5 18 4.828125 18 5.25 L 18 8.625 C 17.988281 8.707031 17.988281 8.789062 18 8.871094 L 18 17.25 C 17.996094 17.519531 18.136719 17.773438 18.371094 17.910156 C 18.605469 18.042969 18.894531 18.042969 19.128906 17.910156 C 19.363281 17.773438 19.503906 17.519531 19.5 17.25 L 19.5 9.5 L 20.25 9.5 C 20.671875 9.5 21 9.828125 21 10.25 L 21 17.75 C 21 18.726562 20.226562 19.5 19.25 19.5 L 4.75 19.5 C 3.773438 19.5 3 18.726562 3 17.75 L 3 5.25 C 3 4.828125 3.328125 4.5 3.75 4.5 Z M 5.25 7.5 C 4.980469 7.496094 4.726562 7.636719 4.589844 7.871094 C 4.457031 8.105469 4.457031 8.394531 4.589844 8.628906 C 4.726562 8.863281 4.980469 9.003906 5.25 9 L 15.75 9 C 16.019531 9.003906 16.273438 8.863281 16.410156 8.628906 C 16.542969 8.394531 16.542969 8.105469 16.410156 7.871094 C 16.273438 7.636719 16.019531 7.496094 15.75 7.5 Z M 5.25 11.5 C 4.835938 11.5 4.5 11.835938 4.5 12.25 L 4.5 15.75 C 4.5 16.164062 4.835938 16.5 5.25 16.5 L 8.75 16.5 C 9.164062 16.5 9.5 16.164062 9.5 15.75 L 9.5 12.25 C 9.5 11.835938 9.164062 11.5 8.75 11.5 Z M 11.75 11.5 C 11.480469 11.496094 11.226562 11.636719 11.089844 11.871094 C 10.957031 12.105469 10.957031 12.394531 11.089844 12.628906 C 11.226562 12.863281 11.480469 13.003906 11.75 13 L 15.75 13 C 16.019531 13.003906 16.273438 12.863281 16.410156 12.628906 C 16.542969 12.394531 16.542969 12.105469 16.410156 11.871094 C 16.273438 11.636719 16.019531 11.496094 15.75 11.5 Z M 6 13 L 8 13 L 8 15 L 6 15 Z M 11.75 15 C 11.480469 14.996094 11.226562 15.136719 11.089844 15.371094 C 10.957031 15.605469 10.957031 15.894531 11.089844 16.128906 C 11.226562 16.363281 11.480469 16.503906 11.75 16.5 L 15.75 16.5 C 16.019531 16.503906 16.273438 16.363281 16.410156 16.128906 C 16.542969 15.894531 16.542969 15.605469 16.410156 15.371094 C 16.273438 15.136719 16.019531 14.996094 15.75 15 Z M 11.75 15 "/>
    </g>
</svg>
