<?xml version="1.0" encoding="UTF-8"?>
<svg xmlns="http://www.w3.org/2000/svg" xmlns:xlink="http://www.w3.org/1999/xlink" viewBox="0 0 24 24" version="1.1">
    <g>
        <path d="M 1.75 3 C 1.480469 2.996094 1.226562 3.136719 1.089844 3.371094 C 0.957031 3.605469 0.957031 3.894531 1.089844 4.128906 C 1.226562 4.363281 1.480469 4.503906 1.75 4.5 L 3.128906 4.5 C 3.492188 4.5 3.796875 4.75 3.863281 5.109375 L 4.015625 5.890625 L 5.625 14.359375 C 5.917969 15.886719 7.261719 17 8.820312 17 L 18.179688 17 C 19.738281 17 21.082031 15.886719 21.375 14.359375 L 22.984375 5.890625 C 23.027344 5.671875 22.96875 5.445312 22.828125 5.273438 C 22.683594 5.101562 22.472656 5 22.25 5 L 5.371094 5 L 5.335938 4.828125 C 5.136719 3.773438 4.203125 3 3.128906 3 Z M 5.65625 6.5 L 21.34375 6.5 L 19.898438 14.078125 C 19.742188 14.90625 19.027344 15.5 18.179688 15.5 L 8.820312 15.5 C 7.972656 15.5 7.257812 14.90625 7.101562 14.078125 Z M 14.742188 7.992188 C 14.4375 7.992188 14.160156 8.175781 14.046875 8.460938 C 13.933594 8.742188 14 9.066406 14.21875 9.28125 L 14.9375 10 L 10.75 10 C 10.480469 9.996094 10.226562 10.136719 10.089844 10.371094 C 9.957031 10.605469 9.957031 10.894531 10.089844 11.128906 C 10.226562 11.363281 10.480469 11.503906 10.75 11.5 L 14.9375 11.5 L 14.21875 12.21875 C 14.023438 12.40625 13.945312 12.6875 14.011719 12.949219 C 14.082031 13.210938 14.289062 13.417969 14.550781 13.488281 C 14.8125 13.554688 15.09375 13.476562 15.28125 13.28125 L 17.28125 11.28125 C 17.574219 10.988281 17.574219 10.511719 17.28125 10.21875 L 15.28125 8.21875 C 15.140625 8.074219 14.945312 7.992188 14.742188 7.992188 Z M 10 18 C 9.171875 18 8.5 18.671875 8.5 19.5 C 8.5 20.328125 9.171875 21 10 21 C 10.828125 21 11.5 20.328125 11.5 19.5 C 11.5 18.671875 10.828125 18 10 18 Z M 17 18 C 16.171875 18 15.5 18.671875 15.5 19.5 C 15.5 20.328125 16.171875 21 17 21 C 17.828125 21 18.5 20.328125 18.5 19.5 C 18.5 18.671875 17.828125 18 17 18 Z M 17 18"/>
    </g>
</svg>
