<?xml version="1.0" encoding="UTF-8"?>
<svg xmlns="http://www.w3.org/2000/svg" xmlns:xlink="http://www.w3.org/1999/xlink" viewBox="0 0 24 24" version="1.1">
    <g>
        <path d="M 9.519531 2.007812 C 9.191406 1.984375 8.855469 2.015625 8.523438 2.113281 L 7.339844 2.464844 C 6.078125 2.835938 5.09375 3.839844 4.757812 5.101562 C 4.019531 7.910156 4.867188 11.234375 7.070312 14.976562 C 9.269531 18.714844 11.777344 21.089844 14.609375 21.867188 C 15.886719 22.214844 17.261719 21.878906 18.226562 20.984375 L 19.128906 20.148438 C 20.136719 19.214844 20.285156 17.65625 19.472656 16.546875 L 18.171875 14.78125 C 17.472656 13.835938 16.246094 13.429688 15.117188 13.769531 L 13.078125 14.378906 C 12.996094 14.40625 12.789062 14.289062 12.613281 14.132812 L 12.609375 14.132812 C 12.292969 13.859375 11.855469 13.300781 11.386719 12.503906 C 10.882812 11.648438 10.667969 11.089844 10.582031 10.757812 C 10.496094 10.429688 10.515625 10.386719 10.527344 10.277344 C 10.535156 10.21875 10.5625 10.167969 10.605469 10.128906 L 10.609375 10.125 L 12.125 8.738281 C 12.996094 7.945312 13.257812 6.675781 12.765625 5.605469 L 11.851562 3.609375 C 11.421875 2.667969 10.507812 2.078125 9.519531 2.007812 Z M 9.414062 3.503906 C 9.871094 3.539062 10.292969 3.8125 10.488281 4.234375 L 11.402344 6.230469 C 11.625 6.714844 11.515625 7.265625 11.113281 7.632812 L 9.59375 9.019531 C 9.285156 9.304688 9.085938 9.691406 9.039062 10.109375 C 9.027344 10.21875 8.996094 10.625 9.128906 11.136719 C 9.261719 11.648438 9.539062 12.324219 10.09375 13.265625 C 10.609375 14.140625 11.097656 14.808594 11.628906 15.265625 C 11.800781 15.417969 12.519531 16.105469 13.5 15.820312 L 13.503906 15.820312 L 15.546875 15.207031 C 16.078125 15.046875 16.644531 15.238281 16.964844 15.671875 L 18.265625 17.4375 C 18.632812 17.9375 18.570312 18.621094 18.109375 19.046875 L 17.207031 19.882812 C 16.632812 20.417969 15.777344 20.628906 15.007812 20.417969 C 12.71875 19.792969 10.453125 17.761719 8.363281 14.21875 C 6.273438 10.667969 5.617188 7.730469 6.210938 5.484375 C 6.40625 4.742188 7.003906 4.128906 7.765625 3.902344 L 8.949219 3.554688 C 9.101562 3.507812 9.257812 3.492188 9.414062 3.503906 Z M 9.414062 3.503906"/>
    </g>
</svg>
