<?xml version="1.0" encoding="UTF-8"?>
<svg xmlns="http://www.w3.org/2000/svg" xmlns:xlink="http://www.w3.org/1999/xlink" viewBox="0 0 24 24" version="1.1">
    <g>
        <path d="M 8.5 2 C 4.644531 2 1.5 5.140625 1.5 9 C 1.5 10.105469 1.792969 11.140625 2.25 12.074219 L 1.539062 14.617188 C 1.324219 15.398438 2.101562 16.175781 2.878906 15.960938 C 2.878906 15.960938 2.878906 15.960938 2.882812 15.960938 L 5.429688 15.25 C 6.359375 15.707031 7.390625 16 8.5 16 C 8.527344 16 8.554688 15.996094 8.578125 15.996094 C 9.066406 19.382812 11.984375 22 15.5 22 C 16.609375 22 17.640625 21.707031 18.570312 21.25 L 21.117188 21.960938 C 21.121094 21.960938 21.121094 21.960938 21.121094 21.960938 C 21.898438 22.175781 22.675781 21.398438 22.460938 20.617188 L 21.75 18.074219 C 22.207031 17.140625 22.5 16.105469 22.5 15 C 22.5 11.140625 19.355469 8 15.5 8 C 15.476562 8 15.453125 8.003906 15.429688 8.003906 C 14.941406 4.613281 12.019531 2 8.5 2 Z M 8.5 3.5 C 11.269531 3.5 13.542969 5.527344 13.9375 8.183594 C 12.738281 8.457031 11.660156 9.039062 10.785156 9.84375 L 9.230469 6.054688 C 9.140625 5.714844 8.832031 5.480469 8.484375 5.492188 C 8.476562 5.492188 8.472656 5.492188 8.46875 5.492188 C 8.136719 5.503906 7.851562 5.730469 7.769531 6.054688 L 5.554688 11.464844 C 5.398438 11.847656 5.582031 12.289062 5.964844 12.445312 C 6.347656 12.601562 6.789062 12.417969 6.945312 12.035156 L 7.367188 11 L 9.765625 11 C 9.0625 12.003906 8.617188 13.203125 8.523438 14.496094 C 8.515625 14.496094 8.507812 14.5 8.5 14.5 C 7.527344 14.5 6.621094 14.246094 5.828125 13.804688 C 5.65625 13.707031 5.453125 13.683594 5.261719 13.738281 L 3.179688 14.320312 L 3.761719 12.238281 C 3.816406 12.046875 3.792969 11.84375 3.695312 11.671875 C 3.253906 10.878906 3 9.972656 3 9 C 3 5.953125 5.453125 3.5 8.5 3.5 Z M 8.5 8.226562 L 9.023438 9.5 L 7.980469 9.5 Z M 15.5 9.5 C 18.546875 9.5 21 11.953125 21 15 C 21 15.972656 20.746094 16.878906 20.304688 17.671875 C 20.207031 17.84375 20.183594 18.046875 20.238281 18.238281 L 20.820312 20.320312 L 18.738281 19.738281 C 18.546875 19.683594 18.34375 19.707031 18.171875 19.804688 C 17.378906 20.246094 16.472656 20.5 15.5 20.5 C 12.542969 20.5 10.148438 18.183594 10.011719 15.261719 C 10.015625 15.199219 10.015625 15.136719 10.003906 15.078125 C 10.003906 15.050781 10 15.023438 10 15 C 10 11.953125 12.453125 9.5 15.5 9.5 Z M 15.5 11.5 C 14.128906 11.5 13 12.628906 13 14 L 13 15.5 C 13 16.726562 13.917969 17.710938 15.085938 17.914062 C 15.34375 18.296875 16.054688 19.25 17.5 19.25 C 17.769531 19.253906 18.023438 19.113281 18.160156 18.878906 C 18.292969 18.644531 18.292969 18.355469 18.160156 18.121094 C 18.023438 17.886719 17.769531 17.746094 17.5 17.75 C 17.277344 17.75 17.117188 17.597656 16.933594 17.488281 C 17.5625 17.03125 18 16.328125 18 15.5 L 18 14 C 18 12.628906 16.871094 11.5 15.5 11.5 Z M 15.5 13 C 16.0625 13 16.5 13.4375 16.5 14 L 16.5 15.5 C 16.5 16.050781 16.070312 16.476562 15.523438 16.492188 C 15.507812 16.492188 15.492188 16.492188 15.480469 16.492188 C 14.929688 16.480469 14.5 16.054688 14.5 15.5 L 14.5 14 C 14.5 13.4375 14.9375 13 15.5 13 Z M 15.5 13 "/>
    </g>
</svg>
