<?xml version="1.0" encoding="UTF-8"?>
<svg xmlns="http://www.w3.org/2000/svg" xmlns:xlink="http://www.w3.org/1999/xlink" viewBox="0 0 24 24" version="1.1">
    <g>
        <path d="M 11.976562 2 C 11.816406 2.003906 11.660156 2.0625 11.535156 2.160156 L 4.429688 7.757812 C 3.527344 8.46875 3 9.558594 3 10.703125 L 3 20.25 C 3 20.933594 3.566406 21.5 4.25 21.5 L 9.25 21.5 C 9.933594 21.5 10.5 20.933594 10.5 20.25 L 10.5 15.25 C 10.5 15.101562 10.601562 15 10.75 15 L 13.25 15 C 13.398438 15 13.5 15.101562 13.5 15.25 L 13.5 20.25 C 13.5 20.933594 14.066406 21.5 14.75 21.5 L 19.75 21.5 C 20.433594 21.5 21 20.933594 21 20.25 L 21 10.703125 C 21 9.558594 20.472656 8.46875 19.570312 7.757812 L 12.464844 2.160156 C 12.324219 2.050781 12.152344 1.996094 11.976562 2 Z M 12 3.703125 L 18.640625 8.9375 C 19.183594 9.367188 19.5 10.015625 19.5 10.703125 L 19.5 20 L 15 20 L 15 15.25 C 15 14.292969 14.207031 13.5 13.25 13.5 L 10.75 13.5 C 9.792969 13.5 9 14.292969 9 15.25 L 9 20 L 4.5 20 L 4.5 10.703125 C 4.5 10.015625 4.816406 9.367188 5.359375 8.9375 Z M 12 3.703125"/>
    </g>
</svg>
