<?xml version="1.0" encoding="UTF-8"?>
<svg xmlns="http://www.w3.org/2000/svg" xmlns:xlink="http://www.w3.org/1999/xlink" viewBox="0 0 24 24" version="1.1">
    <g>
        <path d="M 11.640625 2.007812 C 7.597656 2.199219 4.5 5.671875 4.5 9.691406 L 4.5 13.324219 L 3.175781 15.992188 C 3.171875 15.996094 3.171875 16 3.167969 16.003906 C 2.636719 17.136719 3.496094 18.5 4.75 18.5 L 9 18.5 C 9 20.148438 10.351562 21.5 12 21.5 C 13.648438 21.5 15 20.148438 15 18.5 L 19.25 18.5 C 20.5 18.5 21.367188 17.140625 20.832031 16.003906 C 20.828125 16 20.828125 15.996094 20.824219 15.992188 L 19.5 13.324219 L 19.5 9.5 C 19.5 5.246094 15.933594 1.808594 11.640625 2.007812 Z M 11.710938 3.507812 C 15.167969 3.34375 18 6.082031 18 9.5 L 18 13.5 C 18 13.617188 18.027344 13.730469 18.078125 13.835938 L 19.476562 16.644531 C 19.5625 16.835938 19.460938 17 19.25 17 L 4.75 17 C 4.539062 17 4.433594 16.835938 4.523438 16.644531 L 5.921875 13.835938 C 5.972656 13.730469 6 13.617188 6 13.5 L 6 9.691406 C 6 6.441406 8.488281 3.660156 11.710938 3.507812 Z M 10.5 18.5 L 13.5 18.5 C 13.5 19.335938 12.835938 20 12 20 C 11.164062 20 10.5 19.335938 10.5 18.5 Z M 10.5 18.5"/>
    </g>
</svg>
