<?xml version="1.0" encoding="UTF-8"?>
<svg xmlns="http://www.w3.org/2000/svg" xmlns:xlink="http://www.w3.org/1999/xlink" viewBox="0 0 24 24" version="1.1">
    <g>
        <path d="M 12 2 C 11.210938 2 10.453125 2.101562 9.726562 2.269531 C 9.414062 2.339844 9.183594 2.601562 9.148438 2.917969 L 8.992188 4.367188 C 8.9375 4.84375 8.664062 5.265625 8.25 5.503906 C 7.835938 5.742188 7.335938 5.769531 6.898438 5.578125 L 6.894531 5.578125 L 5.5625 4.992188 C 5.269531 4.863281 4.929688 4.933594 4.710938 5.164062 C 3.675781 6.269531 2.882812 7.609375 2.429688 9.101562 C 2.335938 9.40625 2.449219 9.734375 2.703125 9.921875 L 3.886719 10.789062 C 4.273438 11.074219 4.5 11.519531 4.5 12 C 4.5 12.480469 4.273438 12.925781 3.886719 13.210938 L 2.703125 14.078125 C 2.449219 14.265625 2.335938 14.59375 2.429688 14.898438 C 2.882812 16.390625 3.675781 17.730469 4.710938 18.835938 C 4.929688 19.066406 5.269531 19.136719 5.5625 19.007812 L 6.894531 18.421875 C 7.332031 18.226562 7.835938 18.257812 8.25 18.496094 C 8.664062 18.734375 8.9375 19.15625 8.992188 19.632812 L 9.148438 21.082031 C 9.183594 21.398438 9.414062 21.65625 9.726562 21.730469 C 10.449219 21.898438 11.210938 22 12 22 C 12.789062 22 13.546875 21.898438 14.273438 21.730469 C 14.585938 21.660156 14.816406 21.398438 14.851562 21.082031 L 15.007812 19.632812 C 15.0625 19.15625 15.335938 18.734375 15.75 18.496094 C 16.164062 18.257812 16.664062 18.230469 17.101562 18.421875 L 18.4375 19.007812 C 18.730469 19.136719 19.070312 19.066406 19.289062 18.835938 C 20.324219 17.730469 21.117188 16.390625 21.570312 14.898438 C 21.664062 14.59375 21.550781 14.265625 21.296875 14.078125 L 20.113281 13.210938 C 19.726562 12.925781 19.5 12.480469 19.5 12 C 19.5 11.519531 19.726562 11.074219 20.113281 10.789062 L 21.296875 9.921875 C 21.550781 9.734375 21.664062 9.40625 21.570312 9.101562 C 21.117188 7.609375 20.324219 6.269531 19.289062 5.164062 C 19.070312 4.933594 18.730469 4.863281 18.4375 4.992188 L 17.101562 5.578125 C 16.664062 5.769531 16.164062 5.742188 15.75 5.503906 C 15.335938 5.265625 15.0625 4.84375 15.007812 4.367188 L 14.851562 2.917969 C 14.816406 2.601562 14.585938 2.34375 14.273438 2.269531 C 13.550781 2.101562 12.789062 2 12 2 Z M 12 3.5 C 12.488281 3.5 12.953125 3.585938 13.421875 3.671875 L 13.515625 4.53125 C 13.621094 5.480469 14.171875 6.324219 15 6.804688 C 15.828125 7.28125 16.835938 7.335938 17.707031 6.953125 L 18.5 6.601562 C 19.109375 7.335938 19.59375 8.160156 19.929688 9.066406 L 19.226562 9.582031 C 18.457031 10.144531 18 11.042969 18 12 C 18 12.957031 18.457031 13.855469 19.226562 14.417969 L 19.929688 14.933594 C 19.59375 15.839844 19.109375 16.664062 18.5 17.398438 L 17.707031 17.046875 C 16.835938 16.664062 15.828125 16.71875 15 17.195312 C 14.171875 17.675781 13.621094 18.519531 13.515625 19.46875 L 13.421875 20.328125 C 12.953125 20.414062 12.488281 20.5 12 20.5 C 11.511719 20.5 11.046875 20.414062 10.578125 20.328125 L 10.484375 19.46875 C 10.378906 18.519531 9.828125 17.675781 9 17.195312 C 8.171875 16.71875 7.164062 16.664062 6.292969 17.046875 L 5.5 17.398438 C 4.890625 16.664062 4.40625 15.839844 4.070312 14.933594 L 4.773438 14.417969 C 5.542969 13.855469 6 12.957031 6 12 C 6 11.042969 5.542969 10.144531 4.773438 9.578125 L 4.070312 9.0625 C 4.40625 8.160156 4.890625 7.332031 5.5 6.601562 L 6.292969 6.953125 C 7.164062 7.335938 8.171875 7.28125 9 6.804688 C 9.828125 6.324219 10.378906 5.480469 10.484375 4.53125 L 10.578125 3.671875 C 11.046875 3.585938 11.511719 3.5 12 3.5 Z M 12 8 C 9.800781 8 8 9.800781 8 12 C 8 14.199219 9.800781 16 12 16 C 14.199219 16 16 14.199219 16 12 C 16 9.800781 14.199219 8 12 8 Z M 12 9.5 C 13.390625 9.5 14.5 10.609375 14.5 12 C 14.5 13.390625 13.390625 14.5 12 14.5 C 10.609375 14.5 9.5 13.390625 9.5 12 C 9.5 10.609375 10.609375 9.5 12 9.5 Z M 12 9.5"/>
    </g>
</svg>
