<?xml version="1.0" encoding="UTF-8"?>
<svg xmlns="http://www.w3.org/2000/svg" xmlns:xlink="http://www.w3.org/1999/xlink" viewBox="0 0 24 24" version="1.1">
    <g>
        <path d="M 6 2.5 C 5.8125 2.5 5.628906 2.570312 5.492188 2.699219 L 2.242188 5.699219 C 2.085938 5.839844 2 6.039062 2 6.25 L 2 8.25 C 2 9.21875 2.382812 10.097656 3 10.761719 L 3 21.25 C 3 21.664062 3.335938 22 3.75 22 L 20.25 22 C 20.664062 22 21 21.664062 21 21.25 L 21 10.765625 C 21.617188 10.097656 22 9.21875 22 8.25 L 22 6.25 C 22 6.039062 21.914062 5.839844 21.757812 5.699219 L 18.507812 2.699219 C 18.371094 2.570312 18.1875 2.5 18 2.5 Z M 6.292969 4 L 17.707031 4 L 19.332031 5.5 L 4.667969 5.5 Z M 3.5 7 L 8.164062 7 L 8.164062 8.25 C 8.164062 8.253906 8.164062 8.253906 8.164062 8.257812 C 8.164062 9.492188 7.140625 10.5 5.835938 10.5 C 4.523438 10.5 3.5 9.492188 3.5 8.25 Z M 9.667969 7 L 14.335938 7 L 14.335938 8.25 C 14.335938 9.492188 13.308594 10.5 12 10.5 C 10.695312 10.5 9.671875 9.492188 9.667969 8.257812 C 9.667969 8.253906 9.667969 8.253906 9.667969 8.25 Z M 15.835938 7 L 20.5 7 L 20.5 8.25 C 20.5 9.492188 19.476562 10.5 18.167969 10.5 C 16.859375 10.5 15.835938 9.492188 15.835938 8.25 Z M 15.085938 10.351562 C 15.78125 11.324219 16.875 12 18.167969 12 C 18.636719 12 19.082031 11.914062 19.5 11.757812 L 19.5 20.5 L 11.5 20.5 L 11.5 14.25 C 11.5 13.835938 11.164062 13.5 10.75 13.5 L 6.75 13.5 C 6.335938 13.5 6 13.835938 6 14.25 L 6 20.5 L 4.5 20.5 L 4.5 11.757812 C 4.917969 11.914062 5.367188 12 5.835938 12 C 7.089844 12 8.214844 11.394531 8.914062 10.464844 C 9.617188 11.394531 10.742188 12 12 12 C 13.289062 12 14.386719 11.324219 15.085938 10.351562 Z M 13.75 13.5 C 13.335938 13.5 13 13.835938 13 14.25 L 13 17.75 C 13 18.164062 13.335938 18.5 13.75 18.5 L 17.25 18.5 C 17.664062 18.5 18 18.164062 18 17.75 L 18 14.25 C 18 13.835938 17.664062 13.5 17.25 13.5 Z M 7.5 15 L 10 15 L 10 20.5 L 7.5 20.5 Z M 14.5 15 L 16.5 15 L 16.5 17 L 14.5 17 Z M 14.5 15"/>
    </g>
</svg>
