<?xml version="1.0" encoding="UTF-8"?>
<svg xmlns="http://www.w3.org/2000/svg" xmlns:xlink="http://www.w3.org/1999/xlink" viewBox="0 0 24 24" version="1.1">
    <g>
        <path d="M 12 0.480469 C 5.386719 0.480469 0 5.222656 0 11.128906 C 0 14.03125 1.332031 16.640625 3.464844 18.570312 C 3.140625 19.566406 2.421875 20.351562 1.695312 20.953125 C 1.304688 21.28125 0.929688 21.558594 0.628906 21.824219 C 0.480469 21.957031 0.347656 22.09375 0.238281 22.261719 C 0.132812 22.425781 0.0390625 22.664062 0.105469 22.921875 L 0.164062 23.113281 L 0.328125 23.21875 C 0.949219 23.578125 1.71875 23.636719 2.550781 23.578125 C 3.378906 23.523438 4.285156 23.332031 5.175781 23.085938 C 6.898438 22.609375 8.519531 21.929688 9.375 21.554688 C 10.21875 21.730469 11.066406 21.839844 11.953125 21.839844 C 18.566406 21.839844 23.953125 17.097656 23.953125 11.191406 C 23.953125 5.285156 18.613281 0.480469 12 0.480469 Z M 12 1.441406 C 18.152344 1.441406 22.996094 5.863281 22.996094 11.191406 C 22.996094 16.511719 18.109375 20.878906 11.953125 20.878906 C 11.078125 20.878906 10.25 20.792969 9.421875 20.609375 L 9.253906 20.566406 L 9.121094 20.640625 C 8.316406 20.996094 6.621094 21.6875 4.921875 22.15625 C 4.070312 22.390625 3.222656 22.570312 2.488281 22.621094 C 2 22.652344 1.699219 22.539062 1.363281 22.453125 C 1.601562 22.25 1.929688 22.007812 2.308594 21.691406 C 3.144531 20.996094 4.148438 20.03125 4.5 18.601562 L 4.574219 18.300781 L 4.335938 18.121094 C 2.21875 16.328125 0.960938 13.859375 0.960938 11.128906 C 0.960938 5.808594 5.84375 1.441406 12 1.441406 Z M 11.429688 6.148438 C 11.285156 6.148438 11.234375 6.234375 11.234375 6.328125 L 11.234375 7.589844 C 11.234375 7.734375 11.335938 7.769531 11.429688 7.769531 L 12.570312 7.769531 C 12.714844 7.769531 12.765625 7.6875 12.765625 7.589844 L 12.765625 6.328125 C 12.765625 6.1875 12.664062 6.148438 12.570312 6.148438 Z M 11.476562 9.644531 C 11.332031 9.644531 11.28125 9.746094 11.28125 9.839844 L 11.28125 16.273438 C 11.28125 16.417969 11.378906 16.46875 11.476562 16.46875 L 11.476562 16.515625 L 12.570312 16.515625 C 12.714844 16.515625 12.765625 16.414062 12.765625 16.320312 L 12.765625 9.839844 C 12.765625 9.695312 12.664062 9.644531 12.570312 9.644531 Z M 11.476562 9.644531"/>
    </g>
</svg>
