<?xml version="1.0" encoding="UTF-8"?>
<svg xmlns="http://www.w3.org/2000/svg" xmlns:xlink="http://www.w3.org/1999/xlink" viewBox="0 0 24 24" version="1.1">
    <g>
        <path d="M 12.421875 1.589844 C 10.167969 1.640625 8.742188 2.550781 8.128906 3.960938 C 7.546875 5.300781 7.667969 6.988281 8.085938 8.746094 C 7.863281 9.007812 7.679688 9.375 7.726562 9.929688 L 7.726562 9.960938 C 7.804688 10.546875 7.980469 10.957031 8.203125 11.25 C 8.3125 11.390625 8.476562 11.394531 8.609375 11.476562 C 8.683594 11.980469 8.808594 12.492188 9 12.914062 C 9.109375 13.15625 9.222656 13.363281 9.34375 13.546875 C 9.402344 13.628906 9.492188 13.683594 9.554688 13.753906 L 9.554688 15.480469 C 9.402344 15.847656 9.035156 16.148438 8.460938 16.441406 C 7.859375 16.742188 7.078125 17.023438 6.285156 17.371094 C 5.492188 17.71875 4.691406 18.144531 4.050781 18.808594 C 3.40625 19.472656 2.945312 20.375 2.878906 21.570312 L 2.851562 22.078125 L 22.109375 22.078125 L 22.078125 21.570312 C 22.015625 20.375 21.554688 19.472656 20.910156 18.808594 C 20.265625 18.144531 19.453125 17.71875 18.660156 17.371094 C 17.863281 17.023438 17.078125 16.746094 16.46875 16.441406 C 15.886719 16.148438 15.523438 15.851562 15.359375 15.480469 L 15.359375 13.738281 C 15.417969 13.671875 15.5 13.625 15.554688 13.546875 C 15.679688 13.363281 15.804688 13.15625 15.914062 12.914062 C 16.105469 12.496094 16.230469 11.992188 16.304688 11.488281 C 16.457031 11.410156 16.636719 11.40625 16.753906 11.25 C 16.984375 10.949219 17.121094 10.519531 17.175781 9.929688 C 17.21875 9.421875 17.070312 9.050781 16.84375 8.773438 C 17.09375 8.007812 17.390625 6.777344 17.296875 5.519531 C 17.242188 4.828125 17.0625 4.140625 16.648438 3.570312 C 16.277344 3.050781 15.679688 2.699219 14.925781 2.535156 C 14.417969 1.855469 13.496094 1.589844 12.433594 1.589844 Z M 12.433594 2.550781 C 12.441406 2.550781 12.445312 2.550781 12.449219 2.550781 C 13.40625 2.554688 14.019531 2.824219 14.21875 3.164062 L 14.339844 3.375 L 14.578125 3.40625 C 15.238281 3.496094 15.601562 3.75 15.871094 4.125 C 16.136719 4.5 16.292969 5.019531 16.335938 5.59375 C 16.421875 6.75 16.089844 8.101562 15.871094 8.714844 L 15.71875 9.121094 L 16.09375 9.316406 C 16.089844 9.328125 16.25 9.488281 16.230469 9.839844 C 16.230469 9.847656 16.230469 9.847656 16.230469 9.855469 C 16.183594 10.308594 16.070312 10.5625 15.988281 10.664062 C 15.910156 10.769531 15.867188 10.753906 15.886719 10.753906 L 15.449219 10.753906 L 15.40625 11.191406 C 15.363281 11.621094 15.207031 12.113281 15.03125 12.511719 C 14.941406 12.707031 14.859375 12.886719 14.773438 13.003906 C 14.691406 13.125 14.59375 13.195312 14.640625 13.171875 L 14.398438 13.304688 L 14.398438 15.523438 C 14.398438 15.539062 14.398438 15.554688 14.398438 15.570312 L 14.398438 15.601562 C 14.398438 15.59375 14.3125 15.804688 13.964844 15.988281 C 13.617188 16.171875 13.078125 16.320312 12.480469 16.320312 C 11.875 16.320312 11.34375 16.183594 10.996094 16.003906 C 10.648438 15.828125 10.558594 15.640625 10.558594 15.601562 C 10.5625 15.527344 10.546875 15.457031 10.515625 15.390625 L 10.515625 13.304688 L 10.273438 13.171875 C 10.320312 13.195312 10.222656 13.125 10.140625 13.003906 C 10.058594 12.886719 9.960938 12.707031 9.871094 12.511719 C 9.691406 12.113281 9.535156 11.621094 9.496094 11.191406 L 9.464844 10.753906 L 9.058594 10.753906 C 9.042969 10.746094 9 10.722656 8.953125 10.664062 C 8.871094 10.554688 8.75 10.296875 8.683594 9.855469 C 8.683594 9.84375 8.683594 9.847656 8.683594 9.839844 C 8.683594 9.832031 8.6875 9.832031 8.683594 9.824219 C 8.675781 9.460938 8.902344 9.257812 8.863281 9.285156 L 9.136719 9.089844 L 9.058594 8.761719 C 8.617188 7.011719 8.546875 5.425781 9.015625 4.351562 C 9.480469 3.277344 10.425781 2.597656 12.433594 2.550781 Z M 10.035156 16.5 C 10.1875 16.640625 10.363281 16.761719 10.558594 16.859375 C 11.078125 17.125 11.738281 17.28125 12.480469 17.28125 C 13.226562 17.28125 13.902344 17.117188 14.414062 16.84375 C 14.59375 16.75 14.765625 16.640625 14.910156 16.515625 C 15.226562 16.84375 15.628906 17.097656 16.050781 17.308594 C 16.746094 17.660156 17.539062 17.929688 18.285156 18.253906 C 19.03125 18.582031 19.714844 18.949219 20.21875 19.46875 C 20.621094 19.882812 20.867188 20.4375 21 21.121094 L 3.960938 21.121094 C 4.089844 20.4375 4.339844 19.882812 4.738281 19.46875 C 5.242188 18.949219 5.929688 18.582031 6.675781 18.253906 C 7.417969 17.929688 8.203125 17.660156 8.894531 17.308594 C 9.320312 17.09375 9.726562 16.835938 10.035156 16.5 Z M 10.035156 16.5"/>
    </g>
</svg>
