<?xml version="1.0" encoding="UTF-8"?>
<svg xmlns="http://www.w3.org/2000/svg" xmlns:xlink="http://www.w3.org/1999/xlink" viewBox="0 0 24 24" version="1.1">
    <g id="surface1">
        <path d="M 0.824219 1.335938 C 0.601562 1.386719 0.445312 1.585938 0.449219 1.816406 L 0.449219 18.945312 C 0.449219 20.984375 1.507812 22.132812 2.550781 22.648438 C 3.589844 23.167969 4.621094 23.144531 4.621094 23.144531 L 19.378906 23.144531 L 19.378906 23.101562 C 19.609375 23.125 19.859375 23.144531 19.859375 23.144531 C 19.859375 23.144531 20.78125 23.152344 21.703125 22.621094 C 22.605469 22.101562 23.492188 21.007812 23.535156 19.109375 C 23.539062 19.101562 23.546875 19.089844 23.550781 19.078125 C 23.550781 19.070312 23.550781 19.0625 23.550781 19.050781 C 23.550781 19.027344 23.550781 19 23.550781 18.976562 L 23.550781 6.929688 C 23.550781 6.925781 23.550781 6.921875 23.550781 6.914062 C 23.550781 6.914062 23.558594 6.351562 23.265625 5.773438 C 22.972656 5.199219 22.292969 4.574219 21.226562 4.574219 L 21.226562 4.558594 L 16.679688 4.558594 L 16.679688 5.519531 L 19.351562 5.519531 C 19.292969 5.601562 19.242188 5.675781 19.199219 5.761719 C 18.90625 6.332031 18.898438 6.898438 18.898438 6.898438 L 18.898438 18.539062 C 18.898438 18.710938 18.988281 18.875 19.136719 18.960938 C 19.289062 19.046875 19.472656 19.046875 19.621094 18.960938 C 19.773438 18.875 19.863281 18.710938 19.859375 18.539062 L 19.859375 6.898438 C 19.859375 6.886719 19.878906 6.539062 20.054688 6.195312 C 20.234375 5.84375 20.488281 5.535156 21.226562 5.535156 C 21.960938 5.535156 22.214844 5.851562 22.394531 6.210938 C 22.574219 6.5625 22.605469 6.917969 22.605469 6.929688 L 22.589844 6.929688 L 22.589844 18.976562 C 22.589844 20.683594 21.90625 21.402344 21.226562 21.796875 C 20.542969 22.1875 19.859375 22.183594 19.859375 22.183594 C 19.859375 22.183594 19.046875 22.171875 18.238281 21.765625 C 17.433594 21.355469 16.648438 20.636719 16.648438 18.945312 L 16.648438 1.816406 C 16.648438 1.550781 16.433594 1.335938 16.171875 1.335938 L 0.929688 1.335938 C 0.894531 1.332031 0.859375 1.332031 0.824219 1.335938 Z M 1.410156 2.296875 L 15.691406 2.296875 L 15.691406 18.945312 C 15.691406 20.523438 16.359375 21.558594 17.144531 22.183594 L 4.621094 22.183594 C 4.613281 22.183594 4.609375 22.183594 4.605469 22.183594 C 4.605469 22.183594 4.398438 22.1875 4.09375 22.140625 C 3.941406 22.117188 3.773438 22.078125 3.585938 22.019531 C 3.394531 21.964844 3.1875 21.894531 2.984375 21.796875 C 2.882812 21.746094 2.78125 21.691406 2.683594 21.628906 C 2 21.199219 1.410156 20.453125 1.410156 18.945312 Z M 3.328125 5.28125 C 3.066406 5.316406 2.878906 5.5625 2.917969 5.828125 C 2.953125 6.09375 3.199219 6.277344 3.464844 6.238281 L 12.929688 6.238281 C 13.101562 6.242188 13.265625 6.152344 13.351562 6 C 13.4375 5.851562 13.4375 5.667969 13.351562 5.519531 C 13.265625 5.367188 13.101562 5.277344 12.929688 5.28125 L 3.464844 5.28125 C 3.449219 5.28125 3.433594 5.28125 3.421875 5.28125 C 3.40625 5.28125 3.390625 5.28125 3.375 5.28125 C 3.359375 5.28125 3.34375 5.28125 3.328125 5.28125 Z M 3.328125 7.199219 C 3.066406 7.238281 2.878906 7.484375 2.917969 7.746094 C 2.953125 8.011719 3.199219 8.199219 3.464844 8.160156 L 12.929688 8.160156 C 13.101562 8.160156 13.265625 8.070312 13.351562 7.921875 C 13.4375 7.773438 13.4375 7.589844 13.351562 7.4375 C 13.265625 7.289062 13.101562 7.199219 12.929688 7.199219 L 3.464844 7.199219 C 3.449219 7.199219 3.433594 7.199219 3.421875 7.199219 C 3.40625 7.199219 3.390625 7.199219 3.375 7.199219 C 3.359375 7.199219 3.34375 7.199219 3.328125 7.199219 Z M 3.554688 11.039062 C 3.289062 11.078125 3.105469 11.324219 3.140625 11.585938 C 3.179688 11.851562 3.425781 12.039062 3.691406 12 L 6.945312 12 C 7.117188 12 7.277344 11.910156 7.367188 11.761719 C 7.453125 11.613281 7.453125 11.429688 7.367188 11.277344 C 7.277344 11.128906 7.117188 11.039062 6.945312 11.039062 L 3.691406 11.039062 C 3.675781 11.039062 3.660156 11.039062 3.644531 11.039062 C 3.628906 11.039062 3.613281 11.039062 3.601562 11.039062 C 3.585938 11.039062 3.570312 11.039062 3.554688 11.039062 Z M 9.089844 11.039062 C 8.824219 11.078125 8.640625 11.324219 8.675781 11.585938 C 8.714844 11.851562 8.960938 12.039062 9.226562 12 L 12.929688 12 C 13.101562 12 13.265625 11.910156 13.351562 11.761719 C 13.4375 11.613281 13.4375 11.429688 13.351562 11.277344 C 13.265625 11.128906 13.101562 11.039062 12.929688 11.039062 L 9.226562 11.039062 C 9.210938 11.039062 9.195312 11.039062 9.179688 11.039062 C 9.164062 11.039062 9.148438 11.039062 9.136719 11.039062 C 9.121094 11.039062 9.105469 11.039062 9.089844 11.039062 Z M 3.554688 12.960938 C 3.289062 12.996094 3.105469 13.242188 3.140625 13.507812 C 3.179688 13.773438 3.425781 13.957031 3.691406 13.921875 L 6.945312 13.921875 C 7.117188 13.921875 7.277344 13.832031 7.367188 13.683594 C 7.453125 13.53125 7.453125 13.347656 7.367188 13.199219 C 7.277344 13.046875 7.117188 12.957031 6.945312 12.960938 L 3.691406 12.960938 C 3.675781 12.960938 3.660156 12.960938 3.644531 12.960938 C 3.628906 12.960938 3.613281 12.960938 3.601562 12.960938 C 3.585938 12.960938 3.570312 12.960938 3.554688 12.960938 Z M 9.089844 12.960938 C 8.824219 12.996094 8.640625 13.242188 8.675781 13.507812 C 8.714844 13.773438 8.960938 13.957031 9.226562 13.921875 L 12.929688 13.921875 C 13.101562 13.921875 13.265625 13.832031 13.351562 13.683594 C 13.4375 13.53125 13.4375 13.347656 13.351562 13.199219 C 13.265625 13.046875 13.101562 12.957031 12.929688 12.960938 L 9.226562 12.960938 C 9.210938 12.960938 9.195312 12.960938 9.179688 12.960938 C 9.164062 12.960938 9.148438 12.960938 9.136719 12.960938 C 9.121094 12.960938 9.105469 12.960938 9.089844 12.960938 Z M 9.089844 14.773438 C 8.824219 14.8125 8.640625 15.058594 8.675781 15.324219 C 8.714844 15.585938 8.960938 15.773438 9.226562 15.734375 L 12.929688 15.734375 C 13.101562 15.738281 13.265625 15.648438 13.351562 15.496094 C 13.4375 15.347656 13.4375 15.164062 13.351562 15.011719 C 13.265625 14.863281 13.101562 14.773438 12.929688 14.773438 L 9.226562 14.773438 C 9.195312 14.769531 9.164062 14.769531 9.136719 14.773438 C 9.121094 14.773438 9.105469 14.773438 9.089844 14.773438 Z M 3.554688 14.878906 C 3.289062 14.917969 3.105469 15.164062 3.140625 15.425781 C 3.179688 15.691406 3.425781 15.878906 3.691406 15.839844 L 6.945312 15.839844 C 7.117188 15.84375 7.277344 15.75 7.367188 15.601562 C 7.453125 15.453125 7.453125 15.269531 7.367188 15.117188 C 7.277344 14.96875 7.117188 14.878906 6.945312 14.878906 L 3.691406 14.878906 C 3.675781 14.878906 3.660156 14.878906 3.644531 14.878906 C 3.628906 14.878906 3.613281 14.878906 3.601562 14.878906 C 3.585938 14.878906 3.570312 14.878906 3.554688 14.878906 Z M 9.089844 16.695312 C 8.824219 16.734375 8.640625 16.976562 8.675781 17.242188 C 8.714844 17.507812 8.960938 17.691406 9.226562 17.65625 L 12.929688 17.65625 C 13.101562 17.65625 13.265625 17.566406 13.351562 17.417969 C 13.4375 17.265625 13.4375 17.082031 13.351562 16.933594 C 13.265625 16.78125 13.101562 16.691406 12.929688 16.695312 L 9.226562 16.695312 C 9.195312 16.691406 9.164062 16.691406 9.136719 16.695312 C 9.121094 16.695312 9.105469 16.695312 9.089844 16.695312 Z M 3.554688 16.800781 C 3.289062 16.835938 3.105469 17.082031 3.140625 17.347656 C 3.179688 17.613281 3.425781 17.796875 3.691406 17.761719 L 6.945312 17.761719 C 7.117188 17.761719 7.277344 17.671875 7.367188 17.523438 C 7.453125 17.371094 7.453125 17.1875 7.367188 17.039062 C 7.277344 16.886719 7.117188 16.796875 6.945312 16.800781 L 3.691406 16.800781 C 3.675781 16.800781 3.660156 16.800781 3.644531 16.800781 C 3.628906 16.800781 3.613281 16.800781 3.601562 16.800781 C 3.585938 16.800781 3.570312 16.800781 3.554688 16.800781 Z M 9.089844 18.496094 C 8.824219 18.53125 8.640625 18.777344 8.675781 19.042969 C 8.714844 19.308594 8.960938 19.492188 9.226562 19.453125 L 12.929688 19.453125 C 13.101562 19.457031 13.265625 19.367188 13.351562 19.21875 C 13.4375 19.066406 13.4375 18.882812 13.351562 18.734375 C 13.265625 18.582031 13.101562 18.492188 12.929688 18.496094 L 9.226562 18.496094 C 9.210938 18.496094 9.195312 18.496094 9.179688 18.496094 C 9.164062 18.496094 9.148438 18.496094 9.136719 18.496094 C 9.121094 18.496094 9.105469 18.496094 9.089844 18.496094 Z M 3.554688 18.71875 C 3.289062 18.757812 3.105469 19.003906 3.140625 19.265625 C 3.179688 19.53125 3.425781 19.71875 3.691406 19.679688 L 6.945312 19.679688 C 7.117188 19.683594 7.277344 19.59375 7.367188 19.441406 C 7.453125 19.292969 7.453125 19.109375 7.367188 18.957031 C 7.277344 18.808594 7.117188 18.71875 6.945312 18.71875 L 3.691406 18.71875 C 3.675781 18.71875 3.660156 18.71875 3.644531 18.71875 C 3.628906 18.71875 3.613281 18.71875 3.601562 18.71875 C 3.585938 18.71875 3.570312 18.71875 3.554688 18.71875 Z M 3.554688 18.71875"/>
    </g>
</svg>
