<?xml version="1.0" encoding="UTF-8"?>
<svg xmlns="http://www.w3.org/2000/svg" xmlns:xlink="http://www.w3.org/1999/xlink" viewBox="0 0 24 24" version="1.1">
    <g>
        <path d="M 0.871094 0.960938 C 0.855469 0.964844 0.839844 0.96875 0.824219 0.976562 C 0.359375 1.039062 0 1.4375 0 1.921875 C 0 2.449219 0.429688 2.878906 0.960938 2.878906 C 1.492188 2.878906 1.921875 2.449219 1.921875 1.921875 L 4.15625 1.921875 C 4.753906 1.921875 5.0625 2.042969 5.296875 2.25 C 5.523438 2.453125 5.707031 2.800781 5.863281 3.328125 L 9.703125 18.824219 C 9.847656 19.375 9.992188 19.941406 10.394531 20.398438 C 10.5625 20.589844 10.773438 20.746094 11.023438 20.863281 C 10.742188 21.199219 10.558594 21.613281 10.558594 22.078125 C 10.558594 23.136719 11.425781 24 12.480469 24 C 13.535156 24 14.398438 23.136719 14.398438 22.078125 C 14.398438 21.726562 14.296875 21.40625 14.128906 21.121094 L 17.070312 21.121094 C 16.902344 21.40625 16.800781 21.726562 16.800781 22.078125 C 16.800781 23.136719 17.664062 24 18.71875 24 C 19.777344 24 20.640625 23.136719 20.640625 22.078125 C 20.640625 21.585938 20.4375 21.144531 20.128906 20.804688 C 20.183594 20.660156 20.160156 20.492188 20.074219 20.367188 C 19.984375 20.238281 19.835938 20.160156 19.679688 20.160156 L 12.34375 20.160156 C 11.605469 20.160156 11.300781 20.003906 11.101562 19.769531 C 10.898438 19.539062 10.777344 19.136719 10.636719 18.601562 L 10.636719 18.585938 L 10.304688 17.28125 L 19.109375 17.28125 C 19.3125 17.28125 19.492188 17.15625 19.558594 16.964844 L 23.011719 7.84375 C 23.066406 7.699219 23.046875 7.535156 22.957031 7.40625 C 22.867188 7.273438 22.71875 7.199219 22.558594 7.199219 L 7.816406 7.199219 L 6.796875 3.105469 C 6.796875 3.09375 6.796875 3.085938 6.796875 3.074219 C 6.609375 2.457031 6.375 1.921875 5.941406 1.53125 C 5.507812 1.140625 4.898438 0.960938 4.15625 0.960938 L 0.960938 0.960938 C 0.945312 0.960938 0.929688 0.960938 0.914062 0.960938 C 0.898438 0.960938 0.886719 0.960938 0.871094 0.960938 Z M 8.054688 8.160156 L 21.871094 8.160156 L 18.78125 16.320312 L 10.078125 16.320312 Z M 12.480469 21.121094 C 13.015625 21.121094 13.441406 21.542969 13.441406 22.078125 C 13.441406 22.617188 13.015625 23.039062 12.480469 23.039062 C 11.945312 23.039062 11.519531 22.617188 11.519531 22.078125 C 11.519531 21.542969 11.945312 21.121094 12.480469 21.121094 Z M 18.71875 21.121094 C 19.257812 21.121094 19.679688 21.542969 19.679688 22.078125 C 19.679688 22.617188 19.257812 23.039062 18.71875 23.039062 C 18.183594 23.039062 17.761719 22.617188 17.761719 22.078125 C 17.761719 21.542969 18.183594 21.121094 18.71875 21.121094 Z M 18.71875 21.121094"/>
    </g>
</svg>
