<?xml version="1.0" encoding="UTF-8"?>
<svg xmlns="http://www.w3.org/2000/svg" xmlns:xlink="http://www.w3.org/1999/xlink" viewBox="0 0 24 24" version="1.1">
    <g>
        <path d="M 0.824219 0.960938 C 0.808594 0.964844 0.796875 0.96875 0.78125 0.976562 C 0.773438 0.976562 0.769531 0.972656 0.765625 0.976562 C 0.753906 0.980469 0.746094 0.984375 0.734375 0.988281 C 0.3125 1.089844 0 1.46875 0 1.921875 C 0 2.449219 0.429688 2.878906 0.960938 2.878906 C 1.492188 2.878906 1.921875 2.449219 1.921875 1.921875 L 4.171875 1.921875 C 4.769531 1.921875 5.082031 2.042969 5.308594 2.25 C 5.535156 2.453125 5.710938 2.804688 5.863281 3.328125 L 9.703125 18.839844 C 9.847656 19.394531 9.992188 19.957031 10.394531 20.414062 C 10.558594 20.601562 10.765625 20.75 11.011719 20.863281 C 10.734375 21.199219 10.558594 21.617188 10.558594 22.078125 C 10.558594 23.136719 11.425781 24 12.480469 24 C 13.535156 24 14.398438 23.136719 14.398438 22.078125 C 14.398438 21.726562 14.296875 21.40625 14.128906 21.121094 L 17.070312 21.121094 C 16.902344 21.40625 16.800781 21.726562 16.800781 22.078125 C 16.800781 23.136719 17.664062 24 18.71875 24 C 19.777344 24 20.640625 23.136719 20.640625 22.078125 C 20.640625 21.585938 20.4375 21.144531 20.128906 20.804688 C 20.183594 20.660156 20.160156 20.492188 20.074219 20.367188 C 19.984375 20.238281 19.835938 20.160156 19.679688 20.160156 L 12.328125 20.160156 C 11.59375 20.160156 11.3125 19.996094 11.113281 19.769531 C 10.917969 19.542969 10.777344 19.148438 10.636719 18.601562 L 10.304688 17.28125 L 19.109375 17.28125 C 19.3125 17.28125 19.492188 17.15625 19.558594 16.964844 L 23.011719 7.84375 C 23.070312 7.6875 23.042969 7.503906 22.933594 7.371094 C 22.828125 7.238281 22.652344 7.171875 22.484375 7.199219 C 22.3125 7.226562 22.167969 7.351562 22.109375 7.515625 L 18.78125 16.320312 L 10.066406 16.320312 L 6.796875 3.105469 C 6.796875 3.09375 6.796875 3.085938 6.796875 3.074219 C 6.617188 2.460938 6.386719 1.9375 5.953125 1.546875 C 5.523438 1.152344 4.917969 0.960938 4.171875 0.960938 L 0.960938 0.960938 C 0.945312 0.960938 0.929688 0.960938 0.914062 0.960938 C 0.898438 0.960938 0.886719 0.960938 0.871094 0.960938 C 0.855469 0.960938 0.839844 0.960938 0.824219 0.960938 Z M 16.273438 4.785156 C 16.253906 4.789062 16.234375 4.792969 16.214844 4.800781 C 16.035156 4.832031 15.890625 4.964844 15.839844 5.136719 C 15.789062 5.3125 15.84375 5.5 15.976562 5.625 L 17.550781 7.199219 L 11.039062 7.199219 C 11.023438 7.199219 11.011719 7.199219 10.996094 7.199219 C 10.980469 7.199219 10.964844 7.199219 10.949219 7.199219 C 10.6875 7.222656 10.492188 7.460938 10.515625 7.726562 C 10.539062 7.988281 10.777344 8.183594 11.039062 8.160156 L 17.550781 8.160156 L 15.976562 9.734375 C 15.785156 9.925781 15.785156 10.234375 15.976562 10.425781 C 16.167969 10.617188 16.472656 10.617188 16.664062 10.425781 L 19.066406 8.023438 L 19.394531 7.679688 L 19.066406 7.335938 L 16.664062 4.933594 C 16.566406 4.828125 16.421875 4.773438 16.273438 4.785156 Z M 12.480469 21.121094 C 13.015625 21.121094 13.441406 21.542969 13.441406 22.078125 C 13.441406 22.617188 13.015625 23.039062 12.480469 23.039062 C 11.945312 23.039062 11.519531 22.617188 11.519531 22.078125 C 11.519531 21.542969 11.945312 21.121094 12.480469 21.121094 Z M 18.71875 21.121094 C 19.257812 21.121094 19.679688 21.542969 19.679688 22.078125 C 19.679688 22.617188 19.257812 23.039062 18.71875 23.039062 C 18.183594 23.039062 17.761719 22.617188 17.761719 22.078125 C 17.761719 21.542969 18.183594 21.121094 18.71875 21.121094 Z M 18.71875 21.121094"/>
    </g>
</svg>
