<?xml version="1.0" encoding="UTF-8"?>
<svg xmlns="http://www.w3.org/2000/svg" xmlns:xlink="http://www.w3.org/1999/xlink" viewBox="0 0 24 24" version="1.1">
    <g>
        <path d="M 5.683594 1.433594 C 5.3125 1.40625 4.902344 1.511719 4.523438 1.777344 C 4.191406 2.011719 3.46875 2.582031 2.796875 3.230469 C 2.460938 3.550781 2.140625 3.886719 1.894531 4.21875 C 1.644531 4.546875 1.425781 4.847656 1.441406 5.289062 C 1.453125 5.679688 1.492188 6.84375 2.332031 8.628906 C 3.167969 10.414062 4.792969 12.859375 7.964844 16.03125 C 11.136719 19.207031 13.585938 20.832031 15.367188 21.667969 C 17.152344 22.507812 18.316406 22.546875 18.710938 22.558594 C 19.148438 22.574219 19.449219 22.355469 19.78125 22.105469 C 20.109375 21.855469 20.445312 21.539062 20.765625 21.203125 C 21.414062 20.53125 21.984375 19.808594 22.21875 19.476562 C 22.746094 18.71875 22.660156 17.828125 22.070312 17.414062 C 21.699219 17.152344 18.28125 14.878906 17.769531 14.566406 C 17.25 14.246094 16.648438 14.390625 16.113281 14.671875 C 15.691406 14.898438 14.546875 15.550781 14.222656 15.738281 C 13.976562 15.582031 13.042969 14.960938 11.039062 12.957031 C 9.035156 10.953125 8.414062 10.023438 8.257812 9.777344 C 8.445312 9.449219 9.097656 8.3125 9.324219 7.882812 C 9.605469 7.351562 9.761719 6.746094 9.425781 6.21875 C 9.285156 5.996094 8.648438 5.023438 8.003906 4.046875 C 7.355469 3.070312 6.742188 2.144531 6.582031 1.921875 C 6.375 1.632812 6.050781 1.464844 5.683594 1.433594 Z M 5.59375 2.414062 C 5.726562 2.433594 5.804688 2.484375 5.804688 2.484375 C 5.882812 2.589844 6.554688 3.601562 7.199219 4.574219 C 7.84375 5.550781 8.503906 6.554688 8.617188 6.734375 C 8.636719 6.761719 8.664062 7.082031 8.476562 7.4375 C 8.261719 7.839844 7.273438 9.566406 7.273438 9.566406 L 7.136719 9.808594 L 7.277344 10.050781 C 7.277344 10.050781 8.015625 11.292969 10.359375 13.636719 C 12.703125 15.980469 13.949219 16.71875 13.949219 16.71875 L 14.1875 16.859375 L 14.429688 16.722656 C 14.429688 16.722656 16.152344 15.738281 16.558594 15.523438 C 16.914062 15.335938 17.234375 15.363281 17.269531 15.382812 C 17.601562 15.589844 21.289062 18.039062 21.515625 18.199219 C 21.523438 18.203125 21.726562 18.507812 21.433594 18.925781 L 21.429688 18.925781 C 21.253906 19.175781 20.675781 19.910156 20.074219 20.535156 C 19.773438 20.851562 19.464844 21.140625 19.203125 21.339844 C 18.9375 21.535156 18.703125 21.597656 18.742188 21.601562 C 18.332031 21.585938 17.433594 21.578125 15.777344 20.800781 C 14.121094 20.023438 11.757812 18.46875 8.644531 15.351562 C 5.53125 12.238281 3.976562 9.878906 3.199219 8.21875 C 2.421875 6.5625 2.414062 5.664062 2.398438 5.253906 C 2.402344 5.292969 2.464844 5.058594 2.660156 4.792969 C 2.859375 4.53125 3.148438 4.21875 3.460938 3.917969 C 4.089844 3.316406 4.820312 2.738281 5.074219 2.5625 L 5.074219 2.566406 C 5.28125 2.417969 5.464844 2.398438 5.59375 2.414062 Z M 5.59375 2.414062"/>
    </g>
</svg>
