<?xml version="1.0" encoding="UTF-8"?>
<svg xmlns="http://www.w3.org/2000/svg" xmlns:xlink="http://www.w3.org/1999/xlink" viewBox="0 0 24 24" version="1.1">
    <g>
        <path d="M 10.558594 0 C 9.5 0 8.640625 0.859375 8.640625 1.921875 L 8.640625 9.601562 C 8.640625 10.660156 9.5 11.519531 10.558594 11.519531 L 18.058594 11.519531 L 21.765625 14.761719 C 21.90625 14.882812 22.105469 14.910156 22.277344 14.835938 C 22.449219 14.757812 22.558594 14.585938 22.558594 14.398438 L 22.558594 11.429688 C 23.382812 11.214844 24 10.492188 24 9.601562 L 24 1.921875 C 24 0.859375 23.140625 0 22.078125 0 Z M 10.558594 0.960938 L 22.078125 0.960938 C 22.652344 0.960938 23.039062 1.347656 23.039062 1.921875 L 23.039062 9.601562 C 23.039062 10.171875 22.652344 10.558594 22.078125 10.558594 C 21.816406 10.558594 21.601562 10.777344 21.601562 11.039062 L 21.601562 13.351562 L 18.554688 10.679688 C 18.46875 10.601562 18.355469 10.558594 18.238281 10.558594 L 10.558594 10.558594 C 9.988281 10.558594 9.601562 10.171875 9.601562 9.601562 L 9.601562 1.921875 C 9.601562 1.347656 9.988281 0.960938 10.558594 0.960938 Z M 15.839844 2.925781 L 14.640625 8.445312 L 15.511719 8.445312 L 15.796875 7.003906 L 16.84375 7.003906 L 17.128906 8.445312 L 18 8.445312 L 16.84375 2.925781 Z M 16.320312 3.839844 L 16.363281 3.839844 C 16.414062 4.222656 16.464844 4.75 16.558594 5.085938 L 16.800781 6.328125 L 15.886719 6.328125 L 16.125 5.085938 C 16.171875 4.75 16.269531 4.222656 16.320312 3.839844 Z M 1.921875 9.121094 C 0.859375 9.121094 0 9.980469 0 11.039062 L 0 18.71875 C 0 19.609375 0.617188 20.335938 1.441406 20.550781 L 1.441406 23.519531 C 1.441406 23.707031 1.550781 23.878906 1.722656 23.953125 C 1.894531 24.03125 2.09375 24.003906 2.234375 23.878906 L 5.941406 20.640625 L 13.441406 20.640625 C 14.5 20.640625 15.359375 19.78125 15.359375 18.71875 L 15.359375 12 L 14.398438 12 L 14.398438 18.71875 C 14.398438 19.292969 14.011719 19.679688 13.441406 19.679688 L 5.761719 19.679688 C 5.644531 19.679688 5.53125 19.722656 5.445312 19.800781 L 2.398438 22.46875 L 2.398438 20.160156 C 2.398438 19.894531 2.183594 19.679688 1.921875 19.679688 C 1.347656 19.679688 0.960938 19.292969 0.960938 18.71875 L 0.960938 11.039062 C 0.960938 10.46875 1.347656 10.078125 1.921875 10.078125 L 8.160156 10.078125 L 8.160156 9.121094 Z M 7.484375 12 C 6.378906 12 5.761719 13.160156 5.761719 14.789062 C 5.761719 16.660156 6.386719 17.609375 7.394531 17.609375 C 7.445312 17.609375 7.539062 17.667969 7.636719 17.714844 C 7.96875 17.90625 8.539062 18.199219 8.96875 18.390625 L 9.269531 17.714844 C 8.933594 17.621094 8.539062 17.46875 8.203125 17.324219 L 8.203125 17.28125 C 8.734375 16.992188 9.074219 16.171875 9.074219 14.730469 C 9.074219 13.242188 8.636719 12 7.484375 12 Z M 7.441406 12.71875 C 7.96875 12.71875 8.160156 13.675781 8.160156 14.730469 C 8.160156 15.882812 7.96875 16.84375 7.441406 16.84375 C 6.863281 16.84375 6.675781 15.882812 6.675781 14.730469 C 6.675781 13.722656 6.863281 12.71875 7.441406 12.71875 Z M 7.441406 12.71875 "/>
    </g>
</svg>
