<?xml version="1.0" encoding="UTF-8"?>
<svg xmlns="http://www.w3.org/2000/svg" xmlns:xlink="http://www.w3.org/1999/xlink" viewBox="0 0 24 24" version="1.1">
    <g>
        <path d="M 12 0 C 10.945312 0 10.078125 0.863281 10.078125 1.921875 C 10.078125 2.167969 10.128906 2.40625 10.214844 2.625 C 7.515625 3.328125 5.761719 5.671875 5.761719 8.640625 C 5.761719 12.398438 4.835938 14.109375 3.960938 15.074219 C 3.519531 15.558594 3.089844 15.847656 2.714844 16.125 C 2.527344 16.261719 2.355469 16.398438 2.203125 16.574219 C 2.054688 16.75 1.921875 17.003906 1.921875 17.28125 C 1.921875 17.941406 2.324219 18.5 2.894531 18.871094 C 3.464844 19.238281 4.214844 19.476562 5.113281 19.664062 C 6.285156 19.90625 7.730469 20.035156 9.316406 20.101562 C 9.195312 20.417969 9.121094 20.761719 9.121094 21.121094 C 9.121094 22.703125 10.414062 24 12 24 C 13.585938 24 14.878906 22.703125 14.878906 21.121094 C 14.878906 20.761719 14.808594 20.417969 14.683594 20.101562 C 16.269531 20.035156 17.714844 19.90625 18.886719 19.664062 C 19.785156 19.476562 20.535156 19.238281 21.105469 18.871094 C 21.675781 18.5 22.078125 17.941406 22.078125 17.28125 C 22.078125 17.003906 21.945312 16.75 21.796875 16.574219 C 21.644531 16.398438 21.472656 16.261719 21.285156 16.125 C 20.910156 15.847656 20.480469 15.558594 20.039062 15.074219 C 19.164062 14.109375 18.238281 12.398438 18.238281 8.640625 C 18.238281 5.671875 16.480469 3.328125 13.785156 2.625 C 13.871094 2.40625 13.921875 2.167969 13.921875 1.921875 C 13.921875 0.863281 13.054688 0 12 0 Z M 12 0.960938 C 12.535156 0.960938 12.960938 1.382812 12.960938 1.921875 C 12.960938 2.457031 12.535156 2.878906 12 2.878906 C 11.464844 2.878906 11.039062 2.457031 11.039062 1.921875 C 11.039062 1.382812 11.464844 0.960938 12 0.960938 Z M 13.125 3.449219 C 15.683594 3.90625 17.28125 5.882812 17.28125 8.640625 C 17.28125 12.5625 18.277344 14.574219 19.320312 15.71875 C 19.839844 16.292969 20.367188 16.648438 20.714844 16.90625 C 20.886719 17.03125 21.015625 17.140625 21.074219 17.203125 C 21.132812 17.269531 21.121094 17.265625 21.121094 17.28125 C 21.121094 17.578125 20.980469 17.800781 20.578125 18.058594 C 20.179688 18.320312 19.527344 18.5625 18.691406 18.734375 C 17.015625 19.082031 14.636719 19.199219 12 19.199219 C 9.363281 19.199219 6.984375 19.082031 5.308594 18.734375 C 4.472656 18.5625 3.820312 18.320312 3.421875 18.058594 C 3.019531 17.800781 2.878906 17.578125 2.878906 17.28125 C 2.878906 17.265625 2.867188 17.269531 2.925781 17.203125 C 2.984375 17.140625 3.113281 17.03125 3.285156 16.90625 C 3.632812 16.648438 4.160156 16.292969 4.679688 15.71875 C 5.722656 14.574219 6.71875 12.5625 6.71875 8.640625 C 6.71875 5.886719 8.316406 3.921875 10.875 3.464844 C 11.195312 3.699219 11.578125 3.839844 12 3.839844 C 12.425781 3.839844 12.804688 3.6875 13.125 3.449219 Z M 10.351562 20.128906 C 10.886719 20.140625 11.4375 20.160156 12 20.160156 C 12.5625 20.160156 13.113281 20.140625 13.648438 20.128906 C 13.820312 20.417969 13.921875 20.761719 13.921875 21.121094 C 13.921875 22.1875 13.066406 23.039062 12 23.039062 C 10.933594 23.039062 10.078125 22.1875 10.078125 21.121094 C 10.078125 20.757812 10.175781 20.417969 10.351562 20.128906 Z M 10.351562 20.128906"/>
    </g>
</svg>
