<?xml version="1.0" encoding="UTF-8"?>
<svg xmlns="http://www.w3.org/2000/svg" xmlns:xlink="http://www.w3.org/1999/xlink" viewBox="0 0 24 24" version="1.1">
    <g>
        <path d="M 10.660156 0.960938 C 10.421875 0.960938 10.222656 1.128906 10.183594 1.363281 L 9.71875 4.21875 C 9.15625 4.382812 8.621094 4.605469 8.117188 4.878906 L 5.757812 3.195312 C 5.566406 3.058594 5.304688 3.078125 5.140625 3.246094 L 3.273438 5.109375 C 3.109375 5.273438 3.085938 5.535156 3.21875 5.726562 L 4.878906 8.097656 C 4.601562 8.605469 4.375 9.144531 4.207031 9.710938 L 1.359375 10.183594 C 1.128906 10.222656 0.960938 10.425781 0.960938 10.660156 L 0.960938 13.296875 C 0.960938 13.53125 1.128906 13.730469 1.355469 13.773438 L 4.203125 14.277344 C 4.371094 14.84375 4.59375 15.378906 4.875 15.890625 L 3.195312 18.238281 C 3.058594 18.429688 3.078125 18.691406 3.246094 18.855469 L 5.109375 20.722656 C 5.277344 20.890625 5.535156 20.910156 5.726562 20.777344 L 8.105469 19.113281 C 8.609375 19.390625 9.144531 19.613281 9.710938 19.777344 L 10.183594 22.640625 C 10.222656 22.871094 10.421875 23.039062 10.660156 23.039062 L 13.296875 23.039062 C 13.53125 23.039062 13.730469 22.875 13.773438 22.644531 L 14.28125 19.769531 C 14.84375 19.601562 15.375 19.378906 15.878906 19.101562 L 18.273438 20.78125 C 18.464844 20.914062 18.722656 20.890625 18.890625 20.726562 L 20.753906 18.859375 C 20.921875 18.691406 20.941406 18.429688 20.804688 18.238281 L 19.097656 15.867188 C 19.371094 15.367188 19.589844 14.835938 19.753906 14.277344 L 22.640625 13.773438 C 22.871094 13.730469 23.039062 13.53125 23.039062 13.300781 L 23.039062 10.660156 C 23.039062 10.425781 22.867188 10.222656 22.636719 10.1875 L 19.753906 9.714844 C 19.589844 9.15625 19.367188 8.628906 19.09375 8.128906 L 20.777344 5.726562 C 20.914062 5.539062 20.890625 5.277344 20.726562 5.113281 L 18.859375 3.246094 C 18.691406 3.082031 18.429688 3.058594 18.238281 3.195312 L 15.875 4.898438 C 15.371094 4.621094 14.835938 4.394531 14.273438 4.230469 L 13.773438 1.359375 C 13.730469 1.128906 13.53125 0.960938 13.296875 0.960938 Z M 11.066406 1.921875 L 12.894531 1.921875 L 13.375 4.648438 C 13.40625 4.835938 13.546875 4.988281 13.730469 5.03125 C 14.433594 5.207031 15.089844 5.484375 15.691406 5.847656 C 15.855469 5.949219 16.066406 5.941406 16.222656 5.828125 L 18.46875 4.214844 L 19.761719 5.507812 L 18.160156 7.785156 C 18.050781 7.941406 18.042969 8.144531 18.140625 8.308594 C 18.503906 8.910156 18.777344 9.566406 18.953125 10.261719 C 19 10.449219 19.152344 10.589844 19.339844 10.621094 L 22.078125 11.066406 L 22.078125 12.894531 L 19.335938 13.378906 C 19.148438 13.410156 18.996094 13.550781 18.953125 13.734375 C 18.777344 14.433594 18.503906 15.089844 18.144531 15.6875 C 18.046875 15.851562 18.054688 16.0625 18.164062 16.21875 L 19.789062 18.46875 L 18.496094 19.761719 L 16.21875 18.164062 C 16.0625 18.054688 15.859375 18.050781 15.695312 18.148438 C 15.097656 18.511719 14.4375 18.792969 13.734375 18.96875 C 13.554688 19.015625 13.414062 19.164062 13.382812 19.351562 L 12.894531 22.078125 L 11.066406 22.078125 L 10.613281 19.363281 C 10.582031 19.171875 10.441406 19.019531 10.253906 18.976562 C 9.554688 18.800781 8.890625 18.523438 8.285156 18.160156 C 8.121094 18.0625 7.917969 18.070312 7.761719 18.179688 L 5.503906 19.761719 L 4.210938 18.464844 L 5.808594 16.234375 C 5.917969 16.078125 5.925781 15.871094 5.828125 15.707031 C 5.457031 15.101562 5.179688 14.4375 5.003906 13.734375 C 4.960938 13.550781 4.808594 13.410156 4.625 13.375 L 1.921875 12.894531 L 1.921875 11.066406 L 4.621094 10.617188 C 4.8125 10.585938 4.960938 10.445312 5.007812 10.257812 C 5.1875 9.550781 5.464844 8.890625 5.832031 8.28125 C 5.929688 8.121094 5.921875 7.914062 5.8125 7.757812 L 4.238281 5.503906 L 5.53125 4.210938 L 7.769531 5.8125 C 7.925781 5.921875 8.132812 5.929688 8.296875 5.832031 C 8.898438 5.46875 9.5625 5.195312 10.265625 5.023438 C 10.453125 4.976562 10.59375 4.824219 10.625 4.632812 Z M 12 8.160156 C 9.886719 8.160156 8.160156 9.886719 8.160156 12 C 8.160156 14.113281 9.886719 15.839844 12 15.839844 C 14.113281 15.839844 15.839844 14.113281 15.839844 12 C 15.839844 9.886719 14.113281 8.160156 12 8.160156 Z M 12 9.121094 C 13.597656 9.121094 14.878906 10.402344 14.878906 12 C 14.878906 13.597656 13.597656 14.878906 12 14.878906 C 10.402344 14.878906 9.121094 13.597656 9.121094 12 C 9.121094 10.402344 10.402344 9.121094 12 9.121094 Z M 12 9.121094"/>
    </g>
</svg>
