<?xml version="1.0" encoding="UTF-8"?>
<svg xmlns="http://www.w3.org/2000/svg" xmlns:xlink="http://www.w3.org/1999/xlink" viewBox="0 0 24 24" version="1.1">
    <g>
        <path d="M 1.921875 2.878906 L 1.921875 5.761719 C 1.890625 5.90625 1.441406 8.082031 1.441406 9.359375 C 1.441406 10.023438 1.570312 10.652344 1.921875 11.160156 L 1.921875 23.039062 L 22.078125 23.039062 L 22.078125 11.160156 C 22.429688 10.652344 22.558594 10.023438 22.558594 9.359375 C 22.558594 8.097656 22.121094 5.984375 22.078125 5.789062 C 22.078125 5.78125 22.078125 5.769531 22.078125 5.761719 L 22.078125 2.878906 Z M 2.878906 3.839844 L 21.121094 3.839844 L 21.121094 5.28125 L 18.808594 5.28125 C 18.746094 5.265625 18.679688 5.265625 18.613281 5.28125 L 15.464844 5.28125 C 15.417969 5.265625 15.367188 5.261719 15.316406 5.265625 C 15.300781 5.269531 15.285156 5.273438 15.269531 5.28125 L 12.105469 5.28125 C 12.054688 5.265625 12.003906 5.261719 11.953125 5.265625 C 11.941406 5.269531 11.925781 5.273438 11.910156 5.28125 L 8.746094 5.28125 C 8.695312 5.265625 8.644531 5.261719 8.59375 5.265625 C 8.578125 5.269531 8.566406 5.273438 8.550781 5.28125 L 5.386719 5.28125 C 5.335938 5.265625 5.285156 5.261719 5.234375 5.265625 C 5.21875 5.269531 5.203125 5.273438 5.191406 5.28125 L 2.878906 5.28125 Z M 2.820312 6.238281 L 4.800781 6.238281 L 4.800781 10.5 C 4.492188 10.824219 4.078125 11.039062 3.601562 11.039062 C 3.230469 11.039062 2.996094 10.945312 2.820312 10.769531 C 2.789062 10.710938 2.75 10.660156 2.699219 10.621094 C 2.507812 10.34375 2.398438 9.890625 2.398438 9.359375 C 2.398438 8.414062 2.738281 6.679688 2.820312 6.238281 Z M 5.761719 6.238281 L 8.160156 6.238281 L 8.160156 10.5 C 7.851562 10.824219 7.4375 11.039062 6.960938 11.039062 C 6.480469 11.039062 6.066406 10.824219 5.761719 10.5 Z M 9.121094 6.238281 L 11.519531 6.238281 L 11.519531 10.5 C 11.210938 10.824219 10.796875 11.039062 10.320312 11.039062 C 9.84375 11.039062 9.425781 10.824219 9.121094 10.5 Z M 12.480469 6.238281 L 14.878906 6.238281 L 14.878906 10.515625 C 14.574219 10.835938 14.15625 11.039062 13.679688 11.039062 C 13.203125 11.039062 12.789062 10.824219 12.480469 10.5 Z M 15.839844 6.238281 L 18.238281 6.238281 L 18.238281 10.515625 C 17.933594 10.835938 17.515625 11.039062 17.039062 11.039062 C 16.5625 11.039062 16.144531 10.835938 15.839844 10.515625 Z M 19.199219 6.238281 L 21.179688 6.238281 C 21.261719 6.679688 21.601562 8.414062 21.601562 9.359375 C 21.601562 9.832031 21.515625 10.234375 21.359375 10.515625 C 21.246094 10.582031 21.167969 10.6875 21.136719 10.816406 C 20.964844 10.964844 20.738281 11.039062 20.398438 11.039062 C 19.921875 11.039062 19.503906 10.835938 19.199219 10.515625 Z M 15.359375 11.296875 C 15.820312 11.699219 16.378906 12 17.039062 12 C 17.703125 12 18.257812 11.699219 18.71875 11.296875 C 19.179688 11.699219 19.738281 12 20.398438 12 C 20.65625 12 20.902344 11.953125 21.121094 11.878906 L 21.121094 22.078125 L 19.679688 22.078125 L 19.679688 13.441406 L 14.398438 13.441406 L 14.398438 22.078125 L 2.878906 22.078125 L 2.878906 11.878906 C 3.097656 11.953125 3.34375 12 3.601562 12 C 4.261719 12 4.820312 11.710938 5.28125 11.308594 C 5.742188 11.710938 6.300781 12 6.960938 12 C 7.621094 12 8.179688 11.710938 8.640625 11.308594 C 9.101562 11.710938 9.660156 12 10.320312 12 C 10.980469 12 11.539062 11.710938 12 11.308594 C 12.460938 11.710938 13.019531 12 13.679688 12 C 14.34375 12 14.898438 11.699219 15.359375 11.296875 Z M 4.320312 13.441406 L 4.320312 20.640625 L 12.960938 20.640625 L 12.960938 13.441406 Z M 5.28125 14.398438 L 12 14.398438 L 12 19.679688 L 5.28125 19.679688 Z M 15.359375 14.398438 L 18.71875 14.398438 L 18.71875 22.078125 L 15.359375 22.078125 Z M 15.359375 14.398438"/>
    </g>
</svg>
