<?xml version="1.0" encoding="UTF-8"?>
<svg xmlns="http://www.w3.org/2000/svg" xmlns:xlink="http://www.w3.org/1999/xlink" viewBox="0 0 24 24" version="1.1">
    <g>
        <path style="stroke:none;fill-rule:nonzero;fill:rgb(12.941176%,58.823529%,95.294118%);fill-opacity:1;" d="M 18.5 20 L 5.5 20 L 2.5 23 L 2.5 6 C 2.5 4.351562 3.851562 3 5.5 3 L 18.5 3 C 20.148438 3 21.5 4.351562 21.5 6 L 21.5 17 C 21.5 18.648438 20.148438 20 18.5 20 Z M 18.5 20 "/>
        <path style="stroke:none;fill-rule:nonzero;fill:rgb(100%,100%,100%);fill-opacity:1;" d="M 11 10 L 13 10 L 13 15.5 L 11 15.5 Z M 12 6.5 C 11.449219 6.5 11 6.949219 11 7.5 C 11 8.050781 11.449219 8.5 12 8.5 C 12.550781 8.5 13 8.050781 13 7.5 C 13 6.949219 12.550781 6.5 12 6.5 Z M 12 6.5 "/>
    </g>
</svg>
