<?xml version="1.0" encoding="UTF-8"?>
<svg xmlns="http://www.w3.org/2000/svg" xmlns:xlink="http://www.w3.org/1999/xlink" viewBox="0 0 24 24" version="1.1">
    <g>
        <path style="stroke:none;fill-rule:nonzero;fill:rgb(29.803922%,68.627451%,31.372549%);fill-opacity:1;" d="M 14.5 16.5 L 9.5 16.5 C 9.5 16.5 4 17.492188 4 23 L 20 23 C 20 17.511719 14.5 16.5 14.5 16.5 "/>
        <path style="stroke:none;fill-rule:nonzero;fill:rgb(100%,59.607843%,0%);fill-opacity:1;" d="M 12 19.5 L 9.5 16.5 L 9.5 13.5 L 14.5 13.5 L 14.5 16.5 Z M 12 19.5 "/>
        <path style="stroke:none;fill-rule:nonzero;fill:rgb(100%,65.490196%,14.901961%);fill-opacity:1;" d="M 17.5 10.5 C 17.5 11.050781 17.050781 11.5 16.5 11.5 C 15.949219 11.5 15.5 11.050781 15.5 10.5 C 15.5 9.949219 15.949219 9.5 16.5 9.5 C 17.050781 9.5 17.5 9.949219 17.5 10.5 M 8.5 10.5 C 8.5 9.949219 8.050781 9.5 7.5 9.5 C 6.945312 9.5 6.5 9.949219 6.5 10.5 C 6.5 11.050781 6.945312 11.5 7.5 11.5 C 8.050781 11.5 8.5 11.050781 8.5 10.5 "/>
        <path style="stroke:none;fill-rule:nonzero;fill:rgb(100%,71.764706%,30.196078%);fill-opacity:1;" d="M 16.5 7.5 C 16.5 3.683594 7.5 5.015625 7.5 7.5 L 7.5 11 C 7.5 13.484375 9.515625 15.5 12 15.5 C 14.484375 15.5 16.5 13.484375 16.5 11 Z M 16.5 7.5 "/>
        <path style=" stroke:none;fill-rule:nonzero;fill:rgb(100%,34.117647%,13.333333%);fill-opacity:1;" d="M 12 3 C 8.960938 3 7 5.464844 7 8.5 L 7 9.644531 L 8 10.5 L 8 8 L 14 6 L 16 8 L 16 10.5 L 17 9.628906 L 17 8.5 C 17 6.488281 16.480469 4.492188 14 4 L 13.5 3 Z M 12 3 "/>
        <path style="stroke:none;fill-rule:nonzero;fill:rgb(47.058824%,27.843137%,9.803922%);fill-opacity:1;" d="M 13.5 10.5 C 13.5 10.222656 13.722656 10 14 10 C 14.277344 10 14.5 10.222656 14.5 10.5 C 14.5 10.777344 14.277344 11 14 11 C 13.722656 11 13.5 10.777344 13.5 10.5 M 9.5 10.5 C 9.5 10.777344 9.722656 11 10 11 C 10.277344 11 10.5 10.777344 10.5 10.5 C 10.5 10.222656 10.277344 10 10 10 C 9.722656 10 9.5 10.222656 9.5 10.5 "/>
        <path style="stroke:none;fill-rule:nonzero;fill:rgb(18.039216%,49.019608%,19.607843%);fill-opacity:1;" d="M 14.5 16.5 L 12 19.5 L 9.5 16.5 C 9.5 16.5 9.058594 16.582031 8.429688 16.820312 L 8.730469 17.140625 L 11.230469 20.140625 L 11.5 20.460938 L 11.5 23 L 12.5 23 L 12.5 20.460938 L 12.769531 20.140625 L 15.269531 17.140625 L 15.539062 16.808594 C 14.925781 16.578125 14.5 16.5 14.5 16.5 Z M 14.5 16.5 "/>
    </g>
</svg>
