<?xml version="1.0" encoding="UTF-8"?>
<svg xmlns="http://www.w3.org/2000/svg" xmlns:xlink="http://www.w3.org/1999/xlink" viewBox="0 0 24 24" version="1.1">
    <g>
        <path style="stroke:none;fill-rule:nonzero;fill:rgb(100%,34.117647%,13.333333%);fill-opacity:1;" d="M 16 7.5 L 16 21.5 L 5 21.5 C 3.898438 21.5 3 20.601562 3 19.5 L 3 7.5 Z M 16 7.5 "/>
        <path style="stroke:none;fill-rule:nonzero;fill:rgb(100%,80%,73.72549%);fill-opacity:1;" d="M 7 2.5 L 7 19.5 C 7 20.601562 6.101562 21.5 5 21.5 L 19.5 21.5 C 20.601562 21.5 21.5 20.601562 21.5 19.5 L 21.5 2.5 Z M 7 2.5 "/>
        <path style="stroke:none;fill-rule:nonzero;fill:rgb(100%,34.117647%,13.333333%);fill-opacity:1;" d="M 10 5 L 19 5 L 19 7 L 10 7 Z M 10 8.5 L 14 8.5 L 14 9.5 L 10 9.5 Z M 15 8.5 L 19 8.5 L 19 9.5 L 15 9.5 Z M 10 10.5 L 14 10.5 L 14 11.5 L 10 11.5 Z M 15 10.5 L 19 10.5 L 19 11.5 L 15 11.5 Z M 10 12.5 L 14 12.5 L 14 13.5 L 10 13.5 Z M 15 12.5 L 19 12.5 L 19 13.5 L 15 13.5 Z M 10 14.5 L 14 14.5 L 14 15.5 L 10 15.5 Z M 15 14.5 L 19 14.5 L 19 15.5 L 15 15.5 Z M 10 16.5 L 14 16.5 L 14 17.5 L 10 17.5 Z M 15 16.5 L 19 16.5 L 19 17.5 L 15 17.5 Z M 10 18.5 L 14 18.5 L 14 19.5 L 10 19.5 Z M 15 18.5 L 19 18.5 L 19 19.5 L 15 19.5 Z M 15 18.5 "/>
    </g>
</svg>
