<?xml version="1.0" encoding="UTF-8"?>
<svg xmlns="http://www.w3.org/2000/svg" xmlns:xlink="http://www.w3.org/1999/xlink" viewBox="0 0 24 24" version="1.1">
    <g>
        <path style="stroke:none;fill-rule:nonzero;fill:rgb(0%,58.823529%,53.333333%);fill-opacity:1;" d="M 9 16 C 8.449219 16 8 15.550781 8 15 L 8 10 L 6 10 L 6 15 C 6 16.648438 7.351562 18 9 18 L 18.5 18 L 18.5 16 Z M 9 16 "/>
        <path style="stroke:none;fill-rule:nonzero;fill:rgb(0%,58.823529%,53.333333%);fill-opacity:1;" d="M 6.398438 5 L 6.199219 4.351562 C 5.898438 3.550781 5.148438 3 4.300781 3 L 2.5 3 L 2.5 5 L 4.300781 5 L 7.050781 13.300781 C 7.199219 13.699219 7.550781 14 8 14 L 17.5 14 C 17.898438 14 18.25 13.75 18.398438 13.398438 L 22.199219 5 Z M 6.398438 5 "/>
        <path style="stroke:none;fill-rule:nonzero;fill:rgb(0%,41.176471%,36.078431%);fill-opacity:1;" d="M 2.5 3 C 1.949219 3 1.5 3.449219 1.5 4 C 1.5 4.550781 1.949219 5 2.5 5 C 3.050781 5 3.5 4.550781 3.5 4 C 3.5 3.449219 3.050781 3 2.5 3 Z M 2.5 3 "/>
        <path style="stroke:none;fill-rule:nonzero;fill:rgb(21.568627%,27.843137%,30.980392%);fill-opacity:1;" d="M 17 18 C 16.171875 18 15.5 18.671875 15.5 19.5 C 15.5 20.328125 16.171875 21 17 21 C 17.828125 21 18.5 20.328125 18.5 19.5 C 18.5 18.671875 17.828125 18 17 18 Z M 9.5 18 C 8.671875 18 8 18.671875 8 19.5 C 8 20.328125 8.671875 21 9.5 21 C 10.328125 21 11 20.328125 11 19.5 C 11 18.671875 10.328125 18 9.5 18 Z M 9.5 18 "/>
        <path style="stroke:none;fill-rule:nonzero;fill:rgb(37.647059%,49.019608%,54.509804%);fill-opacity:1;" d="M 17 19 C 16.722656 19 16.5 19.222656 16.5 19.5 C 16.5 19.777344 16.722656 20 17 20 C 17.277344 20 17.5 19.777344 17.5 19.5 C 17.5 19.222656 17.277344 19 17 19 Z M 9.5 19 C 9.222656 19 9 19.222656 9 19.5 C 9 19.777344 9.222656 20 9.5 20 C 9.777344 20 10 19.777344 10 19.5 C 10 19.222656 9.777344 19 9.5 19 Z M 9.5 19 "/>
    </g>
</svg>
