<?xml version="1.0" encoding="UTF-8"?>
<svg xmlns="http://www.w3.org/2000/svg" xmlns:xlink="http://www.w3.org/1999/xlink" viewBox="0 0 24 24" version="1.1">
    <g>
        <path style="stroke:none;fill-rule:nonzero;fill:rgb(33.333333%,54.509804%,18.431373%);fill-opacity:1;" d="M 7.5 20 L 19 20 L 22 23 L 22 12.5 C 22 11.398438 21.101562 10.5 20 10.5 L 7.5 10.5 C 6.398438 10.5 5.5 11.398438 5.5 12.5 L 5.5 18 C 5.5 19.101562 6.398438 20 7.5 20 Z M 7.5 20 "/>
        <path style="stroke:none;fill-rule:nonzero;fill:rgb(10.588235%,36.862745%,12.54902%);fill-opacity:1;" d="M 14.398438 16.398438 L 12.601562 16.398438 L 12.25 17.449219 L 11.148438 17.449219 L 13 12.449219 L 13.949219 12.449219 L 15.800781 17.449219 L 14.699219 17.449219 Z M 12.851562 15.601562 L 14.101562 15.601562 L 13.5 13.699219 Z M 12.851562 15.601562 "/>
        <path style="stroke:none;fill-rule:nonzero;fill:rgb(54.509804%,76.470588%,29.019608%);fill-opacity:1;" d="M 16.5 12.5 L 5 12.5 L 2 15.5 L 2 4 C 2 2.898438 2.898438 2 4 2 L 16.5 2 C 17.601562 2 18.5 2.898438 18.5 4 L 18.5 10.5 C 18.5 11.601562 17.601562 12.5 16.5 12.5 Z M 16.5 12.5 "/>
        <path style="stroke:none;fill-rule:nonzero;fill:rgb(100%,100%,100%);fill-opacity:1;" d="M 12.699219 7.101562 C 12.699219 7.601562 12.601562 8 12.449219 8.351562 C 12.300781 8.699219 12.101562 9 11.800781 9.199219 L 12.648438 9.851562 L 12 10.449219 L 10.898438 9.601562 C 10.800781 9.601562 10.648438 9.648438 10.5 9.648438 C 10.199219 9.648438 9.898438 9.601562 9.601562 9.5 C 9.351562 9.398438 9.101562 9.199219 8.898438 9 C 8.699219 8.800781 8.550781 8.5 8.449219 8.199219 C 8.351562 7.898438 8.300781 7.550781 8.300781 7.148438 L 8.300781 6.949219 C 8.300781 6.550781 8.351562 6.199219 8.449219 5.898438 C 8.550781 5.601562 8.699219 5.300781 8.898438 5.101562 C 9.101562 4.898438 9.300781 4.699219 9.601562 4.601562 C 9.851562 4.5 10.148438 4.449219 10.5 4.449219 C 10.800781 4.449219 11.101562 4.5 11.398438 4.601562 C 11.648438 4.699219 11.898438 4.898438 12.101562 5.101562 C 12.300781 5.300781 12.449219 5.601562 12.550781 5.898438 C 12.648438 6.199219 12.699219 6.550781 12.699219 6.949219 Z M 11.601562 6.851562 C 11.601562 6.300781 11.5 5.898438 11.300781 5.648438 C 11.101562 5.351562 10.851562 5.25 10.5 5.25 C 10.148438 5.25 9.851562 5.398438 9.699219 5.648438 C 9.5 5.949219 9.398438 6.351562 9.398438 6.851562 L 9.398438 7.101562 C 9.398438 7.351562 9.449219 7.601562 9.5 7.800781 C 9.550781 8 9.601562 8.199219 9.699219 8.300781 C 9.800781 8.449219 9.898438 8.550781 10.050781 8.601562 C 10.199219 8.648438 10.351562 8.699219 10.5 8.699219 C 10.851562 8.699219 11.148438 8.550781 11.300781 8.300781 C 11.5 8 11.601562 7.601562 11.601562 7.050781 Z M 11.601562 6.851562 "/>
    </g>
</svg>
