<?xml version="1.0" encoding="UTF-8"?>
<svg xmlns="http://www.w3.org/2000/svg" xmlns:xlink="http://www.w3.org/1999/xlink" viewBox="0 0 24 24" version="1.1">
    <g>
        <path style="stroke:none;fill-rule:nonzero;fill:rgb(85.882353%,52.156863%,3.529412%);fill-opacity:1;" d="M 12 17 C 10.894531 17 10 17.894531 10 19 C 10 20.105469 10.894531 21 12 21 C 13.105469 21 14 20.105469 14 19 C 14 17.894531 13.105469 17 12 17 Z M 13 5.5 C 13 6.050781 12.550781 6.5 12 6.5 C 11.449219 6.5 11 6.050781 11 5.5 L 11 3.5 C 11 2.949219 11.449219 2.5 12 2.5 C 12.550781 2.5 13 2.949219 13 3.5 Z M 13 5.5 "/>
        <path style="stroke:none;fill-rule:nonzero;fill:rgb(73.72549%,43.529412%,3.921569%);fill-opacity:1;" d="M 13.945312 19.453125 C 13.976562 19.308594 14 19.15625 14 19 C 14 18.808594 13.964844 18.628906 13.914062 18.453125 C 13.304688 18.484375 12.667969 18.5 12 18.5 C 11.332031 18.5 10.695312 18.484375 10.085938 18.453125 C 10.035156 18.628906 10 18.808594 10 19 C 10 19.15625 10.023438 19.308594 10.054688 19.453125 C 10.792969 19.488281 11.464844 19.5 12 19.5 C 12.535156 19.5 13.207031 19.488281 13.945312 19.453125 Z M 13.945312 19.453125 "/>
        <path style="stroke:none;fill-rule:nonzero;fill:rgb(100%,75.686275%,2.745098%);fill-opacity:1;" d="M 16.5 16.5 L 16.5 8.402344 C 16.5 5.914062 14.484375 3.902344 12 3.902344 C 9.515625 3.902344 7.5 5.914062 7.5 8.402344 L 7.5 16.5 Z M 16.5 16.5 "/>
        <path style="stroke:none;fill-rule:nonzero;fill:rgb(100%,75.686275%,2.745098%);fill-opacity:1;" d="M 20.5 16.5 C 20.5 17.605469 16.96875 18.5 12 18.5 C 7.03125 18.5 3.5 17.605469 3.5 16.5 C 3.5 15.394531 7.03125 14.5 12 14.5 C 16.96875 14.5 20.5 15.394531 20.5 16.5 Z M 20.5 16.5 "/>
        <path style="stroke:none;fill-rule:nonzero;fill:rgb(100%,75.686275%,2.745098%);fill-opacity:1;" d="M 3.5 16.5 C 3.5 15.5 7.5 12 7.5 10.5 C 7.5 9 16.5 9 16.5 10.5 C 16.5 12 20.5 15.5 20.5 16.5 C 20.5 17.5 3.5 17.5 3.5 16.5 Z M 3.5 16.5 "/>
        <path style="stroke:none;fill-rule:nonzero;fill:rgb(100%,87.843137%,50.980392%);fill-opacity:1;" d="M 4.636719 14.710938 C 4.390625 15.007812 4.171875 15.285156 3.988281 15.535156 C 4.800781 15.863281 8.066406 17.066406 12.269531 17.066406 C 14.644531 17.066406 17.316406 16.679688 20.007812 15.535156 C 19.828125 15.285156 19.609375 15.011719 19.367188 14.71875 C 12.847656 17.363281 6.347656 15.339844 4.636719 14.710938 Z M 4.636719 14.710938 "/>
    </g>
</svg>
