<?xml version="1.0" encoding="UTF-8"?>
<svg xmlns="http://www.w3.org/2000/svg" xmlns:xlink="http://www.w3.org/1999/xlink" viewBox="0 0 24 24" version="1.1">
    <g>
        <path style="stroke:none;fill-rule:nonzero;fill:rgb(38.039216%,38.039216%,38.039216%);fill-opacity:1;" d="M 14.589844 15.996094 L 16.003906 14.582031 L 22.015625 20.589844 L 20.601562 22.003906 Z M 14.589844 15.996094 "/>
        <path style="stroke:none;fill-rule:nonzero;fill:rgb(38.039216%,38.039216%,38.039216%);fill-opacity:1;" d="M 10 2 C 5.582031 2 2 5.582031 2 10 C 2 14.417969 5.582031 18 10 18 C 14.417969 18 18 14.417969 18 10 C 18 5.582031 14.417969 2 10 2 Z M 10 2 "/>
        <path style="stroke:none;fill-rule:nonzero;fill:rgb(21.568627%,27.843137%,30.980392%);fill-opacity:1;" d="M 16.226562 17.671875 L 17.640625 16.257812 L 21.992188 20.605469 L 20.578125 22.019531 Z M 16.226562 17.671875 "/>
        <path style="stroke:none;fill-rule:nonzero;fill:rgb(39.215686%,70.980392%,96.470588%);fill-opacity:1;" d="M 10 3.5 C 6.410156 3.5 3.5 6.410156 3.5 10 C 3.5 13.589844 6.410156 16.5 10 16.5 C 13.589844 16.5 16.5 13.589844 16.5 10 C 16.5 6.410156 13.589844 3.5 10 3.5 Z M 10 3.5 "/>
        <path style="stroke:none;fill-rule:nonzero;fill:rgb(73.333333%,87.058824%,98.431373%);fill-opacity:1;" d="M 13.449219 7.101562 C 12.601562 6.101562 11.351562 5.5 10 5.5 C 8.648438 5.5 7.398438 6.101562 6.550781 7.101562 C 6.351562 7.300781 6.398438 7.648438 6.601562 7.800781 C 6.800781 8 7.148438 7.949219 7.300781 7.75 C 8 6.949219 8.949219 6.5 10 6.5 C 11.050781 6.5 12 6.949219 12.699219 7.75 C 12.800781 7.851562 12.949219 7.949219 13.101562 7.949219 C 13.199219 7.949219 13.351562 7.898438 13.398438 7.851562 C 13.601562 7.648438 13.601562 7.300781 13.449219 7.101562 Z M 13.449219 7.101562 "/>
    </g>
</svg>
