<?xml version="1.0" encoding="UTF-8"?>
<svg xmlns="http://www.w3.org/2000/svg" xmlns:xlink="http://www.w3.org/1999/xlink" viewBox="0 0 24 24" version="1.1">
    <g>
        <path style="stroke:none;fill-rule:nonzero;fill:rgb(37.647059%,49.019608%,54.509804%);fill-opacity:1;" d="M 19.800781 13.601562 C 19.851562 13.25 19.898438 12.898438 19.898438 12.5 C 19.898438 12.101562 19.851562 11.75 19.800781 11.398438 L 22.050781 9.800781 C 22.25 9.648438 22.351562 9.351562 22.199219 9.101562 L 20 5.398438 C 19.851562 5.148438 19.601562 5.050781 19.351562 5.199219 L 16.851562 6.351562 C 16.25 5.898438 15.648438 5.550781 14.949219 5.25 L 14.699219 2.5 C 14.648438 2.25 14.449219 2.050781 14.199219 2.050781 L 9.898438 2.050781 C 9.648438 2.050781 9.398438 2.25 9.398438 2.5 L 9.148438 5.25 C 8.449219 5.550781 7.800781 5.898438 7.25 6.351562 L 4.75 5.199219 C 4.5 5.101562 4.199219 5.199219 4.101562 5.398438 L 1.949219 9.101562 C 1.800781 9.351562 1.898438 9.648438 2.101562 9.800781 L 4.351562 11.398438 C 4.300781 11.75 4.25 12.101562 4.25 12.5 C 4.25 12.898438 4.300781 13.25 4.351562 13.601562 L 2 15.199219 C 1.800781 15.351562 1.699219 15.648438 1.851562 15.898438 L 4 19.601562 C 4.148438 19.851562 4.398438 19.949219 4.648438 19.800781 L 7.148438 18.648438 C 7.75 19.101562 8.351562 19.449219 9.050781 19.75 L 9.300781 22.5 C 9.351562 22.75 9.550781 22.949219 9.800781 22.949219 L 14.101562 22.949219 C 14.351562 22.949219 14.601562 22.75 14.601562 22.5 L 14.851562 19.75 C 15.550781 19.449219 16.199219 19.101562 16.75 18.648438 L 19.25 19.800781 C 19.5 19.898438 19.800781 19.800781 19.898438 19.601562 L 22.050781 15.898438 C 22.199219 15.648438 22.101562 15.351562 21.898438 15.199219 Z M 12 17.5 C 9.25 17.5 7 15.25 7 12.5 C 7 9.75 9.25 7.5 12 7.5 C 14.75 7.5 17 9.75 17 12.5 C 17 15.25 14.75 17.5 12 17.5 Z M 12 17.5 "/>
        <path style="stroke:none;fill-rule:nonzero;fill:rgb(27.058824%,35.294118%,39.215686%);fill-opacity:1;" d="M 12 6.5 C 8.699219 6.5 6 9.199219 6 12.5 C 6 15.800781 8.699219 18.5 12 18.5 C 15.300781 18.5 18 15.800781 18 12.5 C 18 9.199219 15.300781 6.5 12 6.5 Z M 12 15 C 10.601562 15 9.5 13.898438 9.5 12.5 C 9.5 11.101562 10.601562 10 12 10 C 13.398438 10 14.5 11.101562 14.5 12.5 C 14.5 13.898438 13.398438 15 12 15 Z M 12 15 "/>
    </g>
</svg>
