<?xml version="1.0" encoding="UTF-8"?>
<svg xmlns="http://www.w3.org/2000/svg" xmlns:xlink="http://www.w3.org/1999/xlink" viewBox="0 0 24 24" version="1.1">
    <g>
        <path style="stroke:none;fill-rule:nonzero;fill:rgb(81.176471%,84.705882%,86.27451%);fill-opacity:1;" d="M 2.5 9.5 L 21.5 9.5 L 21.5 19 L 2.5 19 Z M 2.5 9.5 "/>
        <path style="stroke:none;fill-rule:nonzero;fill:rgb(69.019608%,74.509804%,77.254902%);fill-opacity:1;" d="M 2.5 19 L 21.5 19 L 21.5 21 L 2.5 21 Z M 2.5 19 "/>
        <path style="stroke:none;fill-rule:nonzero;fill:rgb(27.058824%,35.294118%,39.215686%);fill-opacity:1;" d="M 13.5 12 L 19.5 12 L 19.5 21 L 13.5 21 Z M 13.5 12 "/>
        <path style="stroke:none;fill-rule:nonzero;fill:rgb(89.019608%,94.901961%,99.215686%);fill-opacity:1;" d="M 4.5 12 L 11.5 12 L 11.5 17.5 L 4.5 17.5 Z M 4.5 12 "/>
        <path style="stroke:none;fill-rule:nonzero;fill:rgb(11.764706%,53.333333%,89.803922%);fill-opacity:1;" d="M 5 12.5 L 11 12.5 L 11 17 L 5 17 Z M 5 12.5 "/>
        <path style="stroke:none;fill-rule:nonzero;fill:rgb(56.470588%,64.313725%,68.235294%);fill-opacity:1;" d="M 18.25 16.75 C 18.101562 16.75 18 16.851562 18 17 L 18 18 C 18 18.148438 18.101562 18.25 18.25 18.25 C 18.398438 18.25 18.5 18.148438 18.5 18 L 18.5 17 C 18.5 16.851562 18.398438 16.75 18.25 16.75 Z M 18.25 16.75 "/>
        <path style="stroke:none;fill-rule:nonzero;fill:rgb(33.333333%,54.509804%,18.431373%);fill-opacity:1;" d="M 12 8 C 11.171875 8 10.5 8.671875 10.5 9.5 C 10.5 10.328125 11.171875 11 12 11 C 12.828125 11 13.5 10.328125 13.5 9.5 C 13.5 8.671875 12.828125 8 12 8 Z M 18 8 C 17.171875 8 16.5 8.671875 16.5 9.5 C 16.5 10.328125 17.171875 11 18 11 C 18.828125 11 19.5 10.328125 19.5 9.5 C 19.5 8.671875 18.828125 8 18 8 Z M 6 8 C 5.171875 8 4.5 8.671875 4.5 9.5 C 4.5 10.328125 5.171875 11 6 11 C 6.828125 11 7.5 10.328125 7.5 9.5 C 7.5 8.671875 6.828125 8 6 8 Z M 6 8 "/>
        <path style="stroke:none;fill-rule:nonzero;fill:rgb(48.627451%,70.196078%,25.882353%);fill-opacity:1;" d="M 20 3 L 4 3 C 3.449219 3 3 3.449219 3 4 L 3 5.5 L 21 5.5 L 21 4 C 21 3.449219 20.550781 3 20 3 Z M 10.5 5.5 L 13.5 5.5 L 13.5 9.5 L 10.5 9.5 Z M 18.5 5.5 L 16 5.5 L 16.5 9.5 L 19.5 9.5 Z M 5.5 5.5 L 8 5.5 L 7.5 9.5 L 4.5 9.5 Z M 5.5 5.5 "/>
        <path style="stroke:none;fill-rule:nonzero;fill:rgb(100%,62.745098%,0%);fill-opacity:1;" d="M 15 8 C 14.171875 8 13.5 8.671875 13.5 9.5 C 13.5 10.328125 14.171875 11 15 11 C 15.828125 11 16.5 10.328125 16.5 9.5 C 16.5 8.671875 15.828125 8 15 8 Z M 22.5 9.5 C 22.5 10.351562 21.851562 11 21 11 C 20.148438 11 19.5 10.351562 19.5 9.5 C 19.5 8.648438 20.148438 8 21 8 Z M 9 8 C 8.171875 8 7.5 8.671875 7.5 9.5 C 7.5 10.328125 8.171875 11 9 11 C 9.828125 11 10.5 10.328125 10.5 9.5 C 10.5 8.671875 9.828125 8 9 8 Z M 1.5 9.5 C 1.5 10.351562 2.148438 11 3 11 C 3.851562 11 4.5 10.351562 4.5 9.5 C 4.5 8.648438 3.851562 8 3 8 Z M 1.5 9.5 "/>
        <path style="stroke:none;fill-rule:nonzero;fill:rgb(100%,75.686275%,2.745098%);fill-opacity:1;" d="M 16 5.5 L 13.5 5.5 L 13.5 9.5 L 16.5 9.5 Z M 21 5.5 L 18.5 5.5 L 19.5 9.5 L 22.5 9.5 Z M 8 5.5 L 10.5 5.5 L 10.5 9.5 L 7.5 9.5 Z M 3 5.5 L 5.5 5.5 L 4.5 9.5 L 1.5 9.5 Z M 3 5.5 "/>
    </g>
</svg>
