<?xml version="1.0" encoding="UTF-8"?>
<svg xmlns="http://www.w3.org/2000/svg" xmlns:xlink="http://www.w3.org/1999/xlink" viewBox="0 0 24 24" version="1.1">
	<defs>
		<linearGradient id="linear0" gradientUnits="userSpaceOnUse" x1="32" y1="5.333" x2="32" y2="59.507" spreadMethod="reflect" gradientTransform="matrix(0.375,0,0,0.375,0,0)">
			<stop offset="0" style="stop-color:rgb(10.196078%,42.745098%,100%);stop-opacity:1;"/>
			<stop offset="1" style="stop-color:rgb(78.431373%,13.333333%,100%);stop-opacity:1;"/>
		</linearGradient>
		<linearGradient id="linear1" gradientUnits="userSpaceOnUse" x1="45" y1="5.333" x2="45" y2="59.507" spreadMethod="reflect" gradientTransform="matrix(0.375,0,0,0.375,0,0)">
			<stop offset="0" style="stop-color:rgb(10.196078%,42.745098%,100%);stop-opacity:1;"/>
			<stop offset="1" style="stop-color:rgb(78.431373%,13.333333%,100%);stop-opacity:1;"/>
		</linearGradient>
		<linearGradient id="linear2" gradientUnits="userSpaceOnUse" x1="27" y1="5.333" x2="27" y2="59.507" spreadMethod="reflect" gradientTransform="matrix(0.375,0,0,0.375,0,0)">
			<stop offset="0" style="stop-color:rgb(10.196078%,42.745098%,100%);stop-opacity:1;"/>
			<stop offset="1" style="stop-color:rgb(78.431373%,13.333333%,100%);stop-opacity:1;"/>
		</linearGradient>
		<linearGradient id="linear3" gradientUnits="userSpaceOnUse" x1="29" y1="5.333" x2="29" y2="59.507" spreadMethod="reflect" gradientTransform="matrix(0.375,0,0,0.375,0,0)">
			<stop offset="0" style="stop-color:rgb(10.196078%,42.745098%,100%);stop-opacity:1;"/>
			<stop offset="1" style="stop-color:rgb(78.431373%,13.333333%,100%);stop-opacity:1;"/>
		</linearGradient>
		<linearGradient id="linear4" gradientUnits="userSpaceOnUse" x1="31" y1="5.333" x2="31" y2="59.507" spreadMethod="reflect" gradientTransform="matrix(0.375,0,0,0.375,0,0)">
			<stop offset="0" style="stop-color:rgb(10.196078%,42.745098%,100%);stop-opacity:1;"/>
			<stop offset="1" style="stop-color:rgb(78.431373%,13.333333%,100%);stop-opacity:1;"/>
		</linearGradient>
		<linearGradient id="linear5" gradientUnits="userSpaceOnUse" x1="29" y1="5.335" x2="29" y2="59.506" spreadMethod="reflect" gradientTransform="matrix(0.375,0,0,0.375,0,0)">
			<stop offset="0" style="stop-color:rgb(10.196078%,42.745098%,100%);stop-opacity:1;"/>
			<stop offset="1" style="stop-color:rgb(78.431373%,13.333333%,100%);stop-opacity:1;"/>
		</linearGradient>
		<linearGradient id="linear6" gradientUnits="userSpaceOnUse" x1="29" y1="5.333" x2="29" y2="59.507" spreadMethod="reflect" gradientTransform="matrix(0.375,0,0,0.375,0,0)">
			<stop offset="0" style="stop-color:rgb(10.196078%,42.745098%,100%);stop-opacity:1;"/>
			<stop offset="1" style="stop-color:rgb(78.431373%,13.333333%,100%);stop-opacity:1;"/>
		</linearGradient>
		<linearGradient id="linear7" gradientUnits="userSpaceOnUse" x1="45" y1="5.333" x2="45" y2="59.507" spreadMethod="reflect" gradientTransform="matrix(0.375,0,0,0.375,0,0)">
			<stop offset="0" style="stop-color:rgb(10.196078%,42.745098%,100%);stop-opacity:1;"/>
			<stop offset="1" style="stop-color:rgb(78.431373%,13.333333%,100%);stop-opacity:1;"/>
		</linearGradient>
		<linearGradient id="linear8" gradientUnits="userSpaceOnUse" x1="16" y1="25.834" x2="16" y2="36.835" spreadMethod="reflect" gradientTransform="matrix(0.375,0,0,0.375,0,0)">
			<stop offset="0" style="stop-color:rgb(42.745098%,78.039216%,100%);stop-opacity:1;"/>
			<stop offset="1" style="stop-color:rgb(90.196078%,67.058824%,100%);stop-opacity:1;"/>
		</linearGradient>
	</defs>
	<g>
		<path style="stroke:none;fill-rule:nonzero;fill:url(#linear0);" d="M 21.75 7.125 C 21.75 5.789062 21.21875 4.539062 20.253906 3.613281 C 19.292969 2.6875 18.019531 2.199219 16.683594 2.253906 C 14.15625 2.351562 12.101562 4.40625 12.003906 6.9375 C 12 7 12.007812 7.125 12.007812 7.125 L 8.25 7.125 C 4.941406 7.125 2.25 9.816406 2.25 13.125 C 2.25 16.375 4.847656 19.03125 8.074219 19.121094 L 9.988281 21.34375 C 10.203125 21.601562 10.523438 21.75 10.875 21.75 C 11.226562 21.75 11.546875 21.601562 11.757812 21.351562 L 13.675781 19.121094 C 16.902344 19.03125 19.5 16.375 19.5 13.125 C 19.5 12.746094 19.460938 12.375 19.390625 12 L 21.75 12 Z M 18.75 13.125 C 18.75 16.019531 16.394531 18.375 13.5 18.375 L 13.328125 18.375 L 11.1875 20.867188 C 11.042969 21.035156 10.710938 21.042969 10.558594 20.859375 L 8.421875 18.375 L 8.25 18.375 C 5.355469 18.375 3 16.019531 3 13.125 C 3 10.230469 5.355469 7.875 8.25 7.875 L 12.058594 7.875 C 12.210938 9 12.65625 9.769531 13.363281 10.507812 C 14.289062 11.46875 15.539062 12 16.875 12 L 18.628906 12 C 18.707031 12.375 18.75 12.746094 18.75 13.125 Z M 21 11.25 L 16.875 11.25 C 15.742188 11.25 14.6875 10.800781 13.902344 9.984375 C 13.117188 9.171875 12.710938 8.097656 12.753906 6.964844 C 12.832031 4.859375 14.609375 3.082031 16.714844 3.003906 C 16.769531 3 16.820312 3 16.875 3 C 17.949219 3 18.960938 3.40625 19.734375 4.152344 C 20.550781 4.9375 21 5.992188 21 7.125 Z M 21 11.25"/>
		<path style="stroke:none;fill-rule:nonzero;fill:url(#linear1);" d="M 16.875 8.625 C 16.460938 8.625 16.125 8.960938 16.125 9.375 C 16.125 9.789062 16.460938 10.125 16.875 10.125 C 17.289062 10.125 17.625 9.789062 17.625 9.375 C 17.625 8.960938 17.289062 8.625 16.875 8.625 Z M 16.875 8.625 "/>
		<path style="stroke:none;fill-rule:nonzero;fill:url(#linear2);" d="M 9 9.75 L 11.25 9.75 L 11.25 10.5 L 9 10.5 Z M 9 9.75 "/>
		<path style="stroke:none;fill-rule:nonzero;fill:url(#linear3);" d="M 9 11.25 L 12.75 11.25 L 12.75 12 L 9 12 Z M 9 11.25 "/>
		<path style="stroke:none;fill-rule:nonzero;fill:url(#linear4);" d="M 9 12.75 L 14.25 12.75 L 14.25 13.5 L 9 13.5 Z M 9 12.75 "/>
		<path style="stroke:none;fill-rule:nonzero;fill:url(#linear5);" d="M 4.5 14.25 L 17.25 14.25 L 17.25 15 L 4.5 15 Z M 4.5 14.25 "/>
		<path style="stroke:none;fill-rule:nonzero;fill:url(#linear6);" d="M 7.125 15.75 L 14.625 15.75 L 14.625 16.5 L 7.125 16.5 Z M 7.125 15.75 "/>
		<path style="stroke:none;fill-rule:nonzero;fill:url(#linear7);" d="M 16.875 4.5 C 16.046875 4.5 15.375 5.25 15.375 6 L 16.125 6 C 16.125 5.625 16.460938 5.25 16.875 5.25 C 17.289062 5.25 17.625 5.585938 17.625 6 C 17.625 6.414062 17.289062 6.75 16.875 6.75 L 16.5 6.75 L 16.5 7.875 L 17.25 7.875 L 17.25 7.453125 C 17.625 7.285156 18.375 6.699219 18.375 6 C 18.375 5.171875 17.703125 4.5 16.875 4.5 Z M 16.875 4.5 "/>
		<path style="stroke:none;fill-rule:nonzero;fill:url(#linear8);" d="M 7.5 13.5 L 4.5 13.5 L 4.5 12.75 C 4.5 11.09375 5.84375 9.75 7.5 9.75 Z M 7.5 13.5 "/>
	</g>
</svg>