<?xml version="1.0" encoding="UTF-8"?>
<svg xmlns="http://www.w3.org/2000/svg" xmlns:xlink="http://www.w3.org/1999/xlink" viewBox="0 0 24 24" version="1.1">
	<defs>
		<linearGradient id="linear0" gradientUnits="userSpaceOnUse" x1="37" y1="29.75" x2="37" y2="36.417" spreadMethod="reflect" gradientTransform="matrix(0.375,0,0,0.375,0,0)">
			<stop offset="0" style="stop-color:rgb(42.745098%,78.039216%,100%);stop-opacity:1;"/>
			<stop offset="1" style="stop-color:rgb(90.196078%,67.058824%,100%);stop-opacity:1;"/>
		</linearGradient>
		<linearGradient id="linear1" gradientUnits="userSpaceOnUse" x1="27" y1="29.75" x2="27" y2="36.417" spreadMethod="reflect" gradientTransform="matrix(0.375,0,0,0.375,0,0)">
			<stop offset="0" style="stop-color:rgb(42.745098%,78.039216%,100%);stop-opacity:1;"/>
			<stop offset="1" style="stop-color:rgb(90.196078%,67.058824%,100%);stop-opacity:1;"/>
		</linearGradient>
		<linearGradient id="linear2" gradientUnits="userSpaceOnUse" x1="32" y1="35.875" x2="32" y2="41.783" spreadMethod="reflect" gradientTransform="matrix(0.375,0,0,0.375,0,0)">
			<stop offset="0" style="stop-color:rgb(42.745098%,78.039216%,100%);stop-opacity:1;"/>
			<stop offset="1" style="stop-color:rgb(90.196078%,67.058824%,100%);stop-opacity:1;"/>
		</linearGradient>
		<linearGradient id="linear3" gradientUnits="userSpaceOnUse" x1="32" y1="4.333" x2="32" y2="61.063" spreadMethod="reflect" gradientTransform="matrix(0.375,0,0,0.375,0,0)">
			<stop offset="0" style="stop-color:rgb(10.196078%,42.745098%,100%);stop-opacity:1;"/>
			<stop offset="1" style="stop-color:rgb(78.431373%,13.333333%,100%);stop-opacity:1;"/>
		</linearGradient>
		<linearGradient id="linear4" gradientUnits="userSpaceOnUse" x1="27" y1="4.333" x2="27" y2="61.063" spreadMethod="reflect" gradientTransform="matrix(0.375,0,0,0.375,0,0)">
			<stop offset="0" style="stop-color:rgb(10.196078%,42.745098%,100%);stop-opacity:1;"/>
			<stop offset="1" style="stop-color:rgb(78.431373%,13.333333%,100%);stop-opacity:1;"/>
		</linearGradient>
		<linearGradient id="linear5" gradientUnits="userSpaceOnUse" x1="37" y1="4.333" x2="37" y2="61.063" spreadMethod="reflect" gradientTransform="matrix(0.375,0,0,0.375,0,0)">
			<stop offset="0" style="stop-color:rgb(10.196078%,42.745098%,100%);stop-opacity:1;"/>
			<stop offset="1" style="stop-color:rgb(78.431373%,13.333333%,100%);stop-opacity:1;"/>
		</linearGradient>
	</defs>
	<g>
		<path style="stroke:none;fill-rule:nonzero;fill:url(#linear0);" d="M 13.875 11.625 C 13.460938 11.625 13.125 11.960938 13.125 12.375 C 13.125 12.789062 13.460938 13.125 13.875 13.125 C 14.289062 13.125 14.625 12.789062 14.625 12.375 C 14.625 11.960938 14.289062 11.625 13.875 11.625 Z M 13.875 11.625 "/>
		<path style="stroke:none;fill-rule:nonzero;fill:url(#linear1);" d="M 10.125 11.625 C 9.710938 11.625 9.375 11.960938 9.375 12.375 C 9.375 12.789062 9.710938 13.125 10.125 13.125 C 10.539062 13.125 10.875 12.789062 10.875 12.375 C 10.875 11.960938 10.539062 11.625 10.125 11.625 Z M 10.125 11.625 "/>
		<path style="stroke:none;fill-rule:nonzero;fill:url(#linear2);" d="M 10.875 14.25 C 10.875 14.871094 11.378906 15.375 12 15.375 C 12.621094 15.375 13.125 14.871094 13.125 14.25 L 13.125 13.875 L 10.875 13.875 Z M 10.875 14.25 "/>
		<path style="stroke:none;fill-rule:nonzero;fill:url(#linear3);" d="M 16.976562 14.050781 C 17.035156 13.871094 17.085938 13.6875 17.125 13.5 L 17.25 13.5 C 18.285156 13.5 19.125 12.660156 19.125 11.625 C 19.125 11.015625 18.828125 10.476562 18.375 10.132812 L 18.375 9 L 19.125 9 C 19.746094 9 20.25 8.496094 20.25 7.875 C 20.25 7.253906 19.746094 6.75 19.125 6.75 L 18 6.75 L 18 4.875 C 18 3.425781 16.820312 2.25 15.375 2.25 L 8.625 2.25 C 7.179688 2.25 6 3.425781 6 4.875 L 6 6.75 L 4.875 6.75 C 4.253906 6.75 3.75 7.253906 3.75 7.875 C 3.75 8.496094 4.253906 9 4.875 9 L 5.625 9 L 5.625 10.132812 C 5.171875 10.476562 4.875 11.015625 4.875 11.625 C 4.875 12.660156 5.714844 13.5 6.75 13.5 L 6.875 13.5 C 6.914062 13.6875 6.964844 13.871094 7.023438 14.050781 C 4.96875 15.605469 3.75 18.039062 3.75 20.625 L 3.75 21.75 L 20.25 21.75 L 20.25 20.625 C 20.25 18.039062 19.03125 15.605469 16.976562 14.050781 Z M 13.0625 16.746094 C 12.816406 16.585938 12.460938 16.5 12 16.5 C 11.539062 16.5 11.183594 16.585938 10.9375 16.746094 C 8.914062 16.257812 7.5 14.464844 7.5 12.375 L 7.5 10.339844 C 8.050781 10.097656 8.464844 9.601562 8.585938 9 L 15.414062 9 C 15.535156 9.601562 15.949219 10.097656 16.5 10.339844 L 16.5 12.375 C 16.5 14.464844 15.085938 16.257812 13.0625 16.746094 Z M 12.75 17.625 C 12.75 18.039062 12.414062 18.375 12 18.375 C 11.585938 18.375 11.25 18.039062 11.25 17.625 C 11.25 17.449219 11.25 17.25 12 17.25 C 12.75 17.25 12.75 17.449219 12.75 17.625 Z M 17.25 12.75 L 17.234375 12.75 C 17.242188 12.625 17.25 12.5 17.25 12.375 L 17.25 10.5 C 17.871094 10.5 18.375 11.003906 18.375 11.625 C 18.375 12.246094 17.871094 12.75 17.25 12.75 Z M 17.625 9.789062 C 17.503906 9.761719 17.378906 9.75 17.25 9.75 C 16.761719 9.75 16.347656 9.4375 16.195312 9 L 17.625 9 Z M 8.625 3 L 15.375 3 C 16.410156 3 17.25 3.839844 17.25 4.875 L 17.25 5.25 L 6.75 5.25 L 6.75 4.875 C 6.75 3.839844 7.589844 3 8.625 3 Z M 6.75 6 L 17.25 6 L 17.25 6.75 L 6.75 6.75 Z M 4.5 7.875 C 4.5 7.667969 4.667969 7.5 4.875 7.5 L 19.125 7.5 C 19.332031 7.5 19.5 7.667969 19.5 7.875 C 19.5 8.082031 19.332031 8.25 19.125 8.25 L 4.875 8.25 C 4.667969 8.25 4.5 8.082031 4.5 7.875 Z M 6.375 9 L 7.804688 9 C 7.652344 9.4375 7.238281 9.75 6.75 9.75 C 6.621094 9.75 6.496094 9.761719 6.375 9.789062 Z M 6.75 12.75 C 6.128906 12.75 5.625 12.246094 5.625 11.625 C 5.625 11.003906 6.128906 10.5 6.75 10.5 L 6.75 12.375 C 6.75 12.5 6.757812 12.625 6.765625 12.75 Z M 19.5 21 L 18 21 L 18 20.25 L 17.25 20.25 L 17.25 21 L 13.054688 21 C 12.902344 20.5625 12.488281 20.25 12 20.25 C 11.511719 20.25 11.097656 20.5625 10.945312 21 L 6.75 21 L 6.75 20.25 L 6 20.25 L 6 21 L 4.5 21 L 4.5 20.625 C 4.5 18.335938 5.546875 16.179688 7.324219 14.761719 C 7.964844 16.023438 9.097656 16.992188 10.519531 17.410156 C 10.507812 17.476562 10.5 17.546875 10.5 17.625 C 10.5 18.453125 11.171875 19.125 12 19.125 C 12.828125 19.125 13.5 18.453125 13.5 17.625 C 13.5 17.546875 13.492188 17.476562 13.480469 17.410156 C 14.902344 16.992188 16.035156 16.023438 16.675781 14.761719 C 18.453125 16.179688 19.5 18.335938 19.5 20.625 Z M 19.5 21 "/>
		<path style="stroke:none;fill-rule:nonzero;fill:url(#linear4);" d="M 9 10.125 L 11.25 10.125 L 11.25 10.875 L 9 10.875 Z M 9 10.125 "/>
		<path style="stroke:none;fill-rule:nonzero;fill:url(#linear5);" d="M 12.75 10.125 L 15 10.125 L 15 10.875 L 12.75 10.875 Z M 12.75 10.125 "/>
	</g>
</svg>