<?xml version="1.0" encoding="UTF-8"?>
<svg xmlns="http://www.w3.org/2000/svg" xmlns:xlink="http://www.w3.org/1999/xlink" viewBox="0 0 24 24" version="1.1">
	<defs>
		<linearGradient id="linear0" gradientUnits="userSpaceOnUse" x1="44.25" y1="12.833" x2="44.25" y2="25" spreadMethod="reflect" gradientTransform="matrix(0.375,0,0,0.375,0,0)">
			<stop offset="0" style="stop-color:rgb(42.745098%,78.039216%,100%);stop-opacity:1;"/>
			<stop offset="1" style="stop-color:rgb(90.196078%,67.058824%,100%);stop-opacity:1;"/>
		</linearGradient>
		<linearGradient id="linear1" gradientUnits="userSpaceOnUse" x1="32" y1="6.167" x2="32" y2="57.425" spreadMethod="reflect" gradientTransform="matrix(0.375,0,0,0.375,0,0)">
			<stop offset="0" style="stop-color:rgb(10.196078%,42.745098%,100%);stop-opacity:1;"/>
			<stop offset="1" style="stop-color:rgb(78.431373%,13.333333%,100%);stop-opacity:1;"/>
		</linearGradient>
		<linearGradient id="linear2" gradientUnits="userSpaceOnUse" x1="39.054" y1="6.167" x2="39.054" y2="57.425" spreadMethod="reflect" gradientTransform="matrix(0.375,0,0,0.375,0,0)">
			<stop offset="0" style="stop-color:rgb(10.196078%,42.745098%,100%);stop-opacity:1;"/>
			<stop offset="1" style="stop-color:rgb(78.431373%,13.333333%,100%);stop-opacity:1;"/>
		</linearGradient>
		<linearGradient id="linear3" gradientUnits="userSpaceOnUse" x1="37" y1="6.167" x2="37" y2="57.425" spreadMethod="reflect" gradientTransform="matrix(0.375,0,0,0.375,0,0)">
			<stop offset="0" style="stop-color:rgb(10.196078%,42.745098%,100%);stop-opacity:1;"/>
			<stop offset="1" style="stop-color:rgb(78.431373%,13.333333%,100%);stop-opacity:1;"/>
		</linearGradient>
	</defs>
	<g>
		<path style="stroke:none;fill-rule:nonzero;fill:url(#linear0);" d="M 15 5.25 L 15 9 L 18.1875 7.125 Z M 15 5.25 "/>
		<path style="stroke:none;fill-rule:nonzero;fill:url(#linear1);" d="M 20.667969 6.75 L 19.875 6.75 L 19.875 7.5 L 20.667969 7.5 C 20.851562 7.5 21 7.648438 21 7.832031 L 19.5625 13.875 L 18 13.875 L 18 11.25 L 17.25 11.25 L 17.25 13.875 L 16.5 13.875 L 16.5 12 L 15.75 12 L 15.75 13.875 L 15 13.875 L 15 12.75 L 14.25 12.75 L 14.25 13.875 L 13.5 13.875 L 13.5 12 L 12.75 12 L 12.75 13.875 L 12 13.875 L 12 11.25 L 11.25 11.25 L 11.25 13.875 L 9.695312 13.875 L 7.25 3.492188 C 7.132812 2.980469 6.679688 2.625 6.15625 2.625 L 3.375 2.625 C 2.753906 2.625 2.25 3.128906 2.25 3.75 C 2.25 4.371094 2.753906 4.875 3.375 4.875 L 6.804688 4.875 L 8.976562 14.101562 C 9.257812 15.292969 10.308594 16.125 11.53125 16.125 L 17.722656 16.125 C 18.945312 16.125 19.992188 15.296875 20.277344 14.109375 L 21.730469 8.007812 C 21.742188 7.949219 21.75 7.890625 21.75 7.832031 C 21.75 7.234375 21.265625 6.75 20.667969 6.75 Z M 3.375 4.125 C 3.167969 4.125 3 3.957031 3 3.75 C 3 3.542969 3.167969 3.375 3.375 3.375 L 6.15625 3.375 C 6.332031 3.375 6.480469 3.492188 6.519531 3.664062 L 6.628906 4.125 Z M 17.722656 15.375 L 11.53125 15.375 C 10.925781 15.375 10.382812 15.085938 10.039062 14.625 L 19.214844 14.625 C 18.871094 15.085938 18.328125 15.375 17.722656 15.375 Z M 17.722656 15.375 "/>
		<path style="stroke:none;fill-rule:nonzero;fill:url(#linear2);" d="M 14.625 8.710938 C 14.625 8.984375 14.765625 9.230469 15.007812 9.363281 C 15.121094 9.429688 15.25 9.464844 15.375 9.464844 C 15.507812 9.464844 15.640625 9.425781 15.761719 9.355469 L 17.867188 8.089844 C 18.210938 7.886719 18.414062 7.523438 18.414062 7.125 C 18.414062 6.726562 18.210938 6.363281 17.867188 6.160156 L 15.761719 4.894531 C 15.527344 4.753906 15.242188 4.75 15.007812 4.886719 C 14.765625 5.019531 14.625 5.265625 14.625 5.539062 L 14.625 6.75 L 10.875 6.75 L 10.875 7.5 L 14.625 7.5 Z M 15.375 5.539062 L 17.484375 6.800781 C 17.648438 6.902344 17.664062 7.0625 17.664062 7.125 C 17.664062 7.1875 17.648438 7.347656 17.484375 7.449219 L 15.375 8.714844 Z M 15.375 5.539062 "/>
		<path style="stroke:none;fill-rule:nonzero;fill:url(#linear3);" d="M 17.25 17.625 C 16.34375 17.625 15.585938 18.269531 15.414062 19.125 L 12.335938 19.125 C 12.164062 18.269531 11.40625 17.625 10.5 17.625 C 9.464844 17.625 8.625 18.464844 8.625 19.5 C 8.625 20.535156 9.464844 21.375 10.5 21.375 C 11.40625 21.375 12.164062 20.730469 12.335938 19.875 L 15.414062 19.875 C 15.585938 20.730469 16.34375 21.375 17.25 21.375 C 18.285156 21.375 19.125 20.535156 19.125 19.5 C 19.125 18.464844 18.285156 17.625 17.25 17.625 Z M 10.5 20.625 C 9.878906 20.625 9.375 20.121094 9.375 19.5 C 9.375 18.878906 9.878906 18.375 10.5 18.375 C 11.121094 18.375 11.625 18.878906 11.625 19.5 C 11.625 20.121094 11.121094 20.625 10.5 20.625 Z M 17.25 20.625 C 16.628906 20.625 16.125 20.121094 16.125 19.5 C 16.125 18.878906 16.628906 18.375 17.25 18.375 C 17.871094 18.375 18.375 18.878906 18.375 19.5 C 18.375 20.121094 17.871094 20.625 17.25 20.625 Z M 17.25 20.625 "/>
	</g>
</svg>