<?xml version="1.0" encoding="UTF-8"?>
<svg xmlns="http://www.w3.org/2000/svg" xmlns:xlink="http://www.w3.org/1999/xlink" viewBox="0 0 24 24" version="1.1">
	<defs>
		<linearGradient id="linear0" gradientUnits="userSpaceOnUse" x1="20.545" y1="5.854" x2="20.545" y2="21.105" spreadMethod="reflect" gradientTransform="matrix(0.375,0,0,0.375,0,0)">
			<stop offset="0" style="stop-color:rgb(42.745098%,78.039216%,100%);stop-opacity:1;"/>
			<stop offset="1" style="stop-color:rgb(90.196078%,67.058824%,100%);stop-opacity:1;"/>
		</linearGradient>
		<linearGradient id="linear1" gradientUnits="userSpaceOnUse" x1="50.493" y1="35.979" x2="50.493" y2="50.488" spreadMethod="reflect" gradientTransform="matrix(0.375,0,0,0.375,0,0)">
			<stop offset="0" style="stop-color:rgb(42.745098%,78.039216%,100%);stop-opacity:1;"/>
			<stop offset="1" style="stop-color:rgb(90.196078%,67.058824%,100%);stop-opacity:1;"/>
		</linearGradient>
		<linearGradient id="linear2" gradientUnits="userSpaceOnUse" x1="32" y1="4.979" x2="32" y2="60.581" spreadMethod="reflect" gradientTransform="matrix(0.375,0,0,0.375,0,0)">
			<stop offset="0" style="stop-color:rgb(10.196078%,42.745098%,100%);stop-opacity:1;"/>
			<stop offset="1" style="stop-color:rgb(78.431373%,13.333333%,100%);stop-opacity:1;"/>
		</linearGradient>
	</defs>
	<g>
		<path style="stroke:none;fill-rule:nonzero;fill:url(#linear0);" d="M 8.640625 7.242188 L 5.519531 4.125 C 5.175781 3.777344 5.175781 3.21875 5.519531 2.875 C 5.867188 2.53125 6.425781 2.53125 6.769531 2.875 L 9.886719 5.996094 C 10.234375 6.339844 10.234375 6.898438 9.886719 7.242188 C 9.542969 7.585938 8.984375 7.585938 8.640625 7.242188 Z M 8.640625 7.242188 "/>
		<path style="stroke:none;fill-rule:nonzero;fill:url(#linear1);" d="M 19.871094 18.472656 L 16.75 15.355469 C 16.40625 15.007812 16.40625 14.449219 16.75 14.105469 C 17.097656 13.761719 17.65625 13.761719 18 14.105469 L 21.117188 17.226562 C 21.464844 17.570312 21.464844 18.128906 21.117188 18.472656 C 20.773438 18.816406 20.214844 18.816406 19.871094 18.472656 Z M 19.871094 18.472656 "/>
		<path style="stroke:none;fill-rule:nonzero;fill:url(#linear2);" d="M 21.382812 16.960938 L 18.265625 13.839844 C 17.789062 13.367188 16.960938 13.367188 16.484375 13.839844 L 14.4375 15.890625 C 14.28125 16.042969 14.046875 16.085938 13.859375 15.988281 C 11.296875 14.667969 9.328125 12.695312 8.003906 10.136719 C 7.910156 9.949219 7.949219 9.710938 8.105469 9.558594 L 10.152344 7.507812 C 10.644531 7.019531 10.644531 6.21875 10.152344 5.730469 L 7.035156 2.609375 C 6.558594 2.136719 5.730469 2.136719 5.253906 2.609375 L 3.402344 4.464844 C 2.125 5.742188 1.878906 7.703125 2.808594 9.226562 C 5.816406 14.15625 9.835938 18.179688 14.765625 21.183594 C 15.386719 21.5625 16.078125 21.746094 16.765625 21.746094 C 17.773438 21.746094 18.769531 21.351562 19.53125 20.59375 L 21.382812 18.742188 C 21.382812 18.742188 21.382812 18.738281 21.382812 18.738281 C 21.875 18.25 21.875 17.449219 21.382812 16.960938 Z M 17.734375 14.371094 L 20.851562 17.492188 C 21.050781 17.6875 21.050781 18.011719 20.851562 18.207031 C 20.65625 18.40625 20.332031 18.40625 20.136719 18.207031 L 17.015625 15.089844 C 16.820312 14.890625 16.820312 14.570312 17.015625 14.371094 C 17.207031 14.179688 17.542969 14.179688 17.734375 14.371094 Z M 6.503906 3.140625 L 9.621094 6.261719 C 9.820312 6.457031 9.820312 6.78125 9.621094 6.976562 C 9.425781 7.175781 9.101562 7.175781 8.90625 6.976562 L 5.785156 3.859375 C 5.585938 3.660156 5.585938 3.339844 5.785156 3.140625 C 5.976562 2.949219 6.3125 2.949219 6.503906 3.140625 Z M 19 20.0625 C 17.96875 21.09375 16.386719 21.292969 15.15625 20.542969 C 10.332031 17.601562 6.390625 13.664062 3.449219 8.835938 C 2.699219 7.605469 2.898438 6.027344 3.933594 4.992188 L 4.972656 3.953125 C 5.035156 4.113281 5.128906 4.261719 5.253906 4.386719 L 8.375 7.507812 C 8.503906 7.636719 8.652344 7.730469 8.8125 7.789062 L 7.574219 9.027344 C 7.183594 9.414062 7.089844 10 7.339844 10.480469 C 8.734375 13.179688 10.8125 15.261719 13.515625 16.65625 C 13.695312 16.75 13.886719 16.792969 14.078125 16.792969 C 14.402344 16.792969 14.722656 16.664062 14.96875 16.417969 L 16.203125 15.183594 C 16.265625 15.34375 16.359375 15.492188 16.488281 15.617188 L 19.605469 18.738281 C 19.734375 18.867188 19.882812 18.960938 20.042969 19.019531 Z M 19 20.0625 "/>
	</g>
</svg>