<?xml version="1.0" encoding="UTF-8"?>
<svg xmlns="http://www.w3.org/2000/svg" xmlns:xlink="http://www.w3.org/1999/xlink" viewBox="0 0 24 24" version="1.1">
	<defs>
		<linearGradient id="linear0" gradientUnits="userSpaceOnUse" x1="48" y1="41.583" x2="48" y2="50.252" spreadMethod="reflect" gradientTransform="matrix(0.375,0,0,0.375,0,0)">
			<stop offset="0" style="stop-color:rgb(42.745098%,78.039216%,100%);stop-opacity:1;"/>
			<stop offset="1" style="stop-color:rgb(90.196078%,67.058824%,100%);stop-opacity:1;"/>
		</linearGradient>
		<linearGradient id="linear1" gradientUnits="userSpaceOnUse" x1="26" y1="11.833" x2="26" y2="52.17" spreadMethod="reflect" gradientTransform="matrix(0.375,0,0,0.375,0,0)">
			<stop offset="0" style="stop-color:rgb(10.196078%,42.745098%,100%);stop-opacity:1;"/>
			<stop offset="1" style="stop-color:rgb(78.431373%,13.333333%,100%);stop-opacity:1;"/>
		</linearGradient>
		<linearGradient id="linear2" gradientUnits="userSpaceOnUse" x1="25" y1="11.833" x2="25" y2="52.17" spreadMethod="reflect" gradientTransform="matrix(0.375,0,0,0.375,0,0)">
			<stop offset="0" style="stop-color:rgb(10.196078%,42.745098%,100%);stop-opacity:1;"/>
			<stop offset="1" style="stop-color:rgb(78.431373%,13.333333%,100%);stop-opacity:1;"/>
		</linearGradient>
		<linearGradient id="linear3" gradientUnits="userSpaceOnUse" x1="32" y1="11.833" x2="32" y2="52.17" spreadMethod="reflect" gradientTransform="matrix(0.375,0,0,0.375,0,0)">
			<stop offset="0" style="stop-color:rgb(10.196078%,42.745098%,100%);stop-opacity:1;"/>
			<stop offset="1" style="stop-color:rgb(78.431373%,13.333333%,100%);stop-opacity:1;"/>
		</linearGradient>
	</defs>
	<g>
		<path style="stroke:none;fill-rule:nonzero;fill:url(#linear0);" d="M 18.75 15.75 L 17.25 15.75 C 17.042969 15.75 16.875 15.917969 16.875 16.125 L 16.875 18.75 L 19.125 18.75 L 19.125 16.125 C 19.125 15.917969 18.957031 15.75 18.75 15.75 Z M 18.75 15.75 "/>
		<path style="stroke:none;fill-rule:nonzero;fill:url(#linear1);" d="M 9.375 15.375 L 10.125 15.375 L 10.125 16.875 L 9.375 16.875 Z M 9.375 15.375 "/>
		<path style="stroke:none;fill-rule:nonzero;fill:url(#linear2);" d="M 7.125 11.25 L 11.625 11.25 L 11.625 12 L 7.125 12 Z M 7.125 11.25 "/>
		<path style="stroke:none;fill-rule:nonzero;fill:url(#linear3);" d="M 21 12 L 21 11.25 C 21 10.835938 20.664062 10.5 20.25 10.5 L 15.75 10.5 L 15.75 9.75 C 16.164062 9.75 16.5 9.414062 16.5 9 L 16.5 8.25 C 16.5 7.835938 16.164062 7.5 15.75 7.5 L 15.605469 7.5 L 14.3125 4.914062 C 14.1875 4.660156 13.929688 4.5 13.644531 4.5 L 5.105469 4.5 C 4.820312 4.5 4.5625 4.660156 4.433594 4.914062 L 3.144531 7.5 L 3 7.5 C 2.585938 7.5 2.25 7.835938 2.25 8.25 L 2.25 9 C 2.25 9.414062 2.585938 9.75 3 9.75 L 3 18.75 C 3 19.164062 3.335938 19.5 3.75 19.5 L 20.25 19.5 C 20.664062 19.5 21 19.164062 21 18.75 L 21 14.25 C 21.414062 14.25 21.75 13.914062 21.75 13.5 L 21.75 12.75 C 21.75 12.335938 21.414062 12 21 12 Z M 20.25 11.25 L 20.25 12 L 15.75 12 L 15.75 11.25 Z M 5.105469 5.25 L 13.644531 5.25 L 14.769531 7.5 L 3.980469 7.5 Z M 3 8.25 L 15.75 8.25 L 15.75 9 L 3 9 Z M 15 9.75 L 15 15.75 L 13.5 15.75 L 13.5 16.5 L 15 16.5 L 15 17.25 L 11.625 17.25 L 11.625 13.875 C 11.625 13.253906 11.121094 12.75 10.5 12.75 L 8.25 12.75 C 7.628906 12.75 7.125 13.253906 7.125 13.875 L 7.125 17.25 L 3.75 17.25 L 3.75 16.5 L 5.25 16.5 L 5.25 15.75 L 3.75 15.75 L 3.75 9.75 Z M 3.75 18.75 L 3.75 18 L 7.125 18 L 7.125 18.75 Z M 7.875 18.75 L 7.875 13.875 C 7.875 13.667969 8.042969 13.5 8.25 13.5 L 10.5 13.5 C 10.707031 13.5 10.875 13.667969 10.875 13.875 L 10.875 18.75 Z M 11.625 18.75 L 11.625 18 L 15 18 L 15 18.75 Z M 20.25 18.75 L 15.75 18.75 L 15.75 14.25 L 20.25 14.25 Z M 21 13.5 L 15.75 13.5 L 15.75 12.75 L 21 12.75 Z M 21 13.5 "/>
	</g>
</svg>