<?xml version="1.0" encoding="UTF-8"?>
<svg xmlns="http://www.w3.org/2000/svg" xmlns:xlink="http://www.w3.org/1999/xlink" viewBox="0 0 24 24" version="1.1">
	<defs>
		<linearGradient id="linear0" gradientUnits="userSpaceOnUse" x1="20.499" y1="13.001" x2="20.499" y2="23.584" spreadMethod="reflect" gradientTransform="matrix(0.375,0,0,0.375,0,0)">
			<stop offset="0" style="stop-color:rgb(42.745098%,78.039216%,100%);stop-opacity:1;"/>
			<stop offset="1" style="stop-color:rgb(90.196078%,67.058824%,100%);stop-opacity:1;"/>
		</linearGradient>
		<linearGradient id="linear1" gradientUnits="userSpaceOnUse" x1="24.511" y1="5.27" x2="26.011" y2="59.777" spreadMethod="reflect" gradientTransform="matrix(0.375,0,0,0.375,0,0)">
			<stop offset="0" style="stop-color:rgb(10.196078%,42.745098%,100%);stop-opacity:1;"/>
			<stop offset="1" style="stop-color:rgb(78.431373%,13.333333%,100%);stop-opacity:1;"/>
		</linearGradient>
		<linearGradient id="linear2" gradientUnits="userSpaceOnUse" x1="31.109" y1="5.089" x2="32.609" y2="59.595" spreadMethod="reflect" gradientTransform="matrix(0.375,0,0,0.375,0,0)">
			<stop offset="0" style="stop-color:rgb(10.196078%,42.745098%,100%);stop-opacity:1;"/>
			<stop offset="1" style="stop-color:rgb(78.431373%,13.333333%,100%);stop-opacity:1;"/>
		</linearGradient>
	</defs>
	<g>
		<path style="stroke:none;fill-rule:nonzero;fill:url(#linear0);" d="M 9.375 5.25 C 7.5 5.25 6 6.75 6 8.625 L 9.375 8.625 Z M 9.375 5.25 "/>
		<path style="stroke:none;fill-rule:nonzero;fill:url(#linear1);" d="M 9.375 3.75 C 6.6875 3.75 4.5 5.9375 4.5 8.625 C 4.5 11.316406 6.6875 13.5 9.375 13.5 C 12.0625 13.5 14.25 11.316406 14.25 8.625 C 14.25 5.9375 12.0625 3.75 9.375 3.75 Z M 9.375 12.75 C 7.101562 12.75 5.25 10.902344 5.25 8.625 C 5.25 6.351562 7.101562 4.5 9.375 4.5 C 11.648438 4.5 13.5 6.351562 13.5 8.625 C 13.5 10.902344 11.648438 12.75 9.375 12.75 Z M 9.375 12.75 "/>
		<path style="stroke:none;fill-rule:nonzero;fill:url(#linear2);" d="M 20.539062 18.210938 L 17.257812 14.511719 C 16.988281 14.207031 16.507812 14.164062 16.191406 14.417969 L 15.257812 15.160156 L 13.710938 13.285156 C 14.960938 12.121094 15.75 10.464844 15.75 8.625 C 15.75 5.109375 12.890625 2.25 9.375 2.25 C 5.859375 2.25 3 5.109375 3 8.625 C 3 12.140625 5.859375 15 9.375 15 C 10.78125 15 12.078125 14.539062 13.132812 13.765625 L 14.667969 15.625 L 13.78125 16.328125 C 13.621094 16.457031 13.519531 16.640625 13.503906 16.84375 C 13.484375 17.046875 13.550781 17.242188 13.6875 17.394531 L 16.96875 21.09375 C 17.351562 21.527344 17.902344 21.75 18.457031 21.75 C 18.894531 21.75 19.335938 21.609375 19.695312 21.324219 L 20.296875 20.847656 C 20.703125 20.523438 20.949219 20.070312 20.996094 19.570312 C 21.039062 19.070312 20.875 18.589844 20.539062 18.210938 Z M 3.75 8.625 C 3.75 5.523438 6.273438 3 9.375 3 C 12.476562 3 15 5.523438 15 8.625 C 15 11.726562 12.476562 14.25 9.375 14.25 C 6.273438 14.25 3.75 11.726562 3.75 8.625 Z M 18.242188 16.75 L 15.816406 18.675781 L 15.261719 18.054688 L 17.6875 16.128906 Z M 16.65625 15.007812 C 16.660156 15.003906 16.667969 15 16.675781 15 C 16.683594 15 16.691406 15.003906 16.695312 15.007812 L 17.191406 15.566406 L 14.761719 17.492188 L 14.25 16.917969 Z M 19.832031 20.257812 L 19.230469 20.734375 C 18.71875 21.140625 17.957031 21.078125 17.53125 20.597656 L 16.316406 19.234375 L 18.738281 17.3125 L 19.976562 18.707031 C 20.175781 18.933594 20.273438 19.214844 20.246094 19.503906 C 20.222656 19.796875 20.074219 20.066406 19.832031 20.257812 Z M 19.832031 20.257812 "/>
	</g>
</svg>