<?xml version="1.0" encoding="UTF-8"?>
<svg xmlns="http://www.w3.org/2000/svg" xmlns:xlink="http://www.w3.org/1999/xlink" viewBox="0 0 24 24" version="1.1">
	<defs>
		<linearGradient id="linear0" gradientUnits="userSpaceOnUse" x1="32.337" y1="16.5" x2="31.642" y2="46.397" spreadMethod="reflect" gradientTransform="matrix(0.375,0,0,0.375,0,0)">
			<stop offset="0" style="stop-color:rgb(42.745098%,78.039216%,100%);stop-opacity:1;"/>
			<stop offset="1" style="stop-color:rgb(90.196078%,67.058824%,100%);stop-opacity:1;"/>
		</linearGradient>
		<linearGradient id="linear1" gradientUnits="userSpaceOnUse" x1="32" y1="3.75" x2="32" y2="59.5" spreadMethod="reflect" gradientTransform="matrix(0.375,0,0,0.375,0,0)">
			<stop offset="0" style="stop-color:rgb(10.196078%,42.745098%,100%);stop-opacity:1;"/>
			<stop offset="1" style="stop-color:rgb(78.431373%,13.333333%,100%);stop-opacity:1;"/>
		</linearGradient>
		<linearGradient id="linear2" gradientUnits="userSpaceOnUse" x1="32" y1="13.917" x2="32" y2="48.258" spreadMethod="reflect" gradientTransform="matrix(0.375,0,0,0.375,0,0)">
			<stop offset="0" style="stop-color:rgb(42.745098%,78.039216%,100%);stop-opacity:1;"/>
			<stop offset="1" style="stop-color:rgb(90.196078%,67.058824%,100%);stop-opacity:1;"/>
		</linearGradient>
		<linearGradient id="linear3" gradientUnits="userSpaceOnUse" x1="32" y1="19.167" x2="32" y2="43.62" spreadMethod="reflect" gradientTransform="matrix(0.375,0,0,0.375,0,0)">
			<stop offset="0" style="stop-color:rgb(10.196078%,42.745098%,100%);stop-opacity:1;"/>
			<stop offset="1" style="stop-color:rgb(78.431373%,13.333333%,100%);stop-opacity:1;"/>
		</linearGradient>
	</defs>
	<g>
		<path style="stroke:none;fill-rule:evenodd;fill:url(#linear0);" d="M 12 9.75 C 10.964844 9.75 10.125 10.589844 10.125 11.625 C 10.125 12.660156 10.964844 13.5 12 13.5 C 13.035156 13.5 13.875 12.660156 13.875 11.625 C 13.875 10.589844 13.035156 9.75 12 9.75 Z M 12 9.75 "/>
		<path style="stroke:none;fill-rule:nonzero;fill:url(#linear1);" d="M 11.980469 21.75 C 11.792969 21.75 11.601562 21.746094 11.414062 21.734375 C 10.792969 21.695312 10.296875 21.242188 10.195312 20.632812 C 10.136719 20.265625 10.066406 19.820312 10.003906 19.472656 C 9.972656 19.257812 9.824219 19.085938 9.621094 19.023438 C 9.210938 18.890625 8.820312 18.730469 8.453125 18.535156 C 8.261719 18.4375 8.035156 18.453125 7.863281 18.578125 C 7.574219 18.789062 7.207031 19.050781 6.898438 19.269531 C 6.402344 19.628906 5.730469 19.597656 5.269531 19.191406 C 4.984375 18.933594 4.703125 18.65625 4.433594 18.359375 C 4.023438 17.894531 3.992188 17.222656 4.355469 16.722656 C 4.574219 16.417969 4.835938 16.050781 5.039062 15.765625 C 5.167969 15.589844 5.183594 15.363281 5.085938 15.175781 C 4.890625 14.792969 4.726562 14.398438 4.601562 14.003906 C 4.539062 13.796875 4.367188 13.648438 4.15625 13.617188 L 4.078125 13.601562 C 3.738281 13.546875 3.332031 13.480469 2.988281 13.425781 C 2.382812 13.328125 1.929688 12.828125 1.890625 12.214844 C 1.871094 11.832031 1.867188 11.4375 1.890625 11.039062 C 1.929688 10.417969 2.382812 9.921875 2.988281 9.820312 C 3.359375 9.761719 3.804688 9.691406 4.152344 9.628906 C 4.367188 9.597656 4.535156 9.449219 4.601562 9.246094 C 4.730469 8.835938 4.894531 8.445312 5.089844 8.074219 C 5.1875 7.886719 5.171875 7.660156 5.046875 7.488281 C 4.835938 7.199219 4.574219 6.832031 4.355469 6.523438 C 3.996094 6.027344 4.027344 5.355469 4.433594 4.894531 C 4.6875 4.609375 4.96875 4.328125 5.265625 4.058594 C 5.730469 3.648438 6.402344 3.617188 6.902344 3.976562 C 7.207031 4.195312 7.570312 4.460938 7.859375 4.664062 C 8.035156 4.792969 8.261719 4.808594 8.449219 4.710938 C 8.832031 4.511719 9.226562 4.351562 9.621094 4.226562 C 9.824219 4.164062 9.972656 3.992188 10.007812 3.78125 L 10.019531 3.703125 C 10.074219 3.363281 10.140625 2.953125 10.199219 2.613281 C 10.296875 2.007812 10.796875 1.554688 11.410156 1.515625 C 11.792969 1.496094 12.1875 1.492188 12.585938 1.511719 C 13.207031 1.554688 13.703125 2.007812 13.804688 2.613281 C 13.863281 2.984375 13.933594 3.429688 13.996094 3.777344 C 14.027344 3.992188 14.175781 4.160156 14.378906 4.226562 C 14.789062 4.355469 15.179688 4.519531 15.546875 4.710938 C 15.738281 4.8125 15.964844 4.796875 16.136719 4.667969 C 16.425781 4.460938 16.792969 4.195312 17.101562 3.980469 C 17.597656 3.621094 18.265625 3.652344 18.730469 4.058594 C 19.015625 4.3125 19.296875 4.59375 19.566406 4.890625 C 19.976562 5.355469 20.007812 6.027344 19.644531 6.527344 C 19.425781 6.832031 19.164062 7.195312 18.960938 7.484375 C 18.832031 7.660156 18.816406 7.886719 18.914062 8.074219 C 19.109375 8.457031 19.273438 8.851562 19.398438 9.246094 C 19.460938 9.449219 19.632812 9.597656 19.84375 9.632812 L 19.921875 9.644531 C 20.261719 9.699219 20.667969 9.765625 21.011719 9.824219 C 21.617188 9.921875 22.070312 10.417969 22.109375 11.03125 C 22.128906 11.417969 22.132812 11.8125 22.109375 12.210938 C 22.070312 12.832031 21.617188 13.328125 21.011719 13.425781 C 20.640625 13.488281 20.195312 13.558594 19.847656 13.617188 C 19.632812 13.652344 19.464844 13.800781 19.398438 14.003906 C 19.269531 14.414062 19.105469 14.804688 18.910156 15.171875 C 18.8125 15.363281 18.828125 15.589844 18.953125 15.761719 C 19.164062 16.050781 19.425781 16.417969 19.644531 16.726562 C 20.003906 17.222656 19.972656 17.890625 19.566406 18.355469 C 19.3125 18.640625 19.03125 18.921875 18.734375 19.1875 C 18.269531 19.597656 17.597656 19.632812 17.097656 19.269531 C 16.792969 19.050781 16.429688 18.789062 16.140625 18.582031 C 15.964844 18.457031 15.738281 18.441406 15.550781 18.539062 C 15.167969 18.734375 14.773438 18.898438 14.378906 19.019531 C 14.175781 19.085938 14.027344 19.257812 13.992188 19.46875 L 13.980469 19.546875 C 13.925781 19.882812 13.859375 20.292969 13.800781 20.636719 C 13.703125 21.242188 13.203125 21.691406 12.589844 21.730469 C 12.390625 21.746094 12.1875 21.75 11.980469 21.75 Z M 8.191406 17.722656 C 8.398438 17.722656 8.605469 17.773438 8.800781 17.871094 C 9.128906 18.042969 9.480469 18.191406 9.847656 18.308594 C 10.320312 18.457031 10.667969 18.855469 10.746094 19.347656 C 10.804688 19.695312 10.878906 20.144531 10.9375 20.515625 C 10.980469 20.777344 11.195312 20.96875 11.457031 20.988281 C 11.824219 21.003906 12.191406 21.003906 12.546875 20.984375 C 12.804688 20.96875 13.019531 20.773438 13.058594 20.515625 C 13.117188 20.171875 13.183594 19.761719 13.238281 19.425781 L 13.25 19.347656 C 13.332031 18.855469 13.675781 18.457031 14.15625 18.304688 C 14.507812 18.195312 14.863281 18.050781 15.207031 17.875 C 15.644531 17.644531 16.171875 17.683594 16.574219 17.972656 C 16.863281 18.175781 17.230469 18.441406 17.535156 18.664062 C 17.75 18.816406 18.039062 18.804688 18.238281 18.628906 C 18.507812 18.382812 18.769531 18.121094 19.003906 17.859375 C 19.175781 17.660156 19.191406 17.375 19.035156 17.164062 C 18.816406 16.855469 18.554688 16.488281 18.347656 16.203125 C 18.054688 15.796875 18.015625 15.269531 18.246094 14.828125 C 18.421875 14.496094 18.566406 14.144531 18.683594 13.777344 C 18.835938 13.304688 19.230469 12.960938 19.726562 12.878906 C 20.070312 12.820312 20.519531 12.746094 20.890625 12.6875 C 21.152344 12.644531 21.347656 12.433594 21.363281 12.167969 C 21.382812 11.800781 21.378906 11.433594 21.359375 11.082031 C 21.34375 10.820312 21.148438 10.609375 20.890625 10.566406 C 20.546875 10.507812 20.140625 10.441406 19.804688 10.386719 L 19.722656 10.375 C 19.230469 10.292969 18.832031 9.949219 18.683594 9.472656 C 18.570312 9.117188 18.425781 8.761719 18.25 8.421875 C 18.019531 7.980469 18.058594 7.453125 18.351562 7.050781 C 18.554688 6.761719 18.820312 6.394531 19.039062 6.089844 C 19.191406 5.875 19.179688 5.585938 19.003906 5.390625 C 18.757812 5.117188 18.496094 4.855469 18.234375 4.621094 C 18.039062 4.449219 17.75 4.433594 17.539062 4.589844 C 17.230469 4.808594 16.863281 5.070312 16.578125 5.277344 C 16.171875 5.570312 15.644531 5.609375 15.203125 5.378906 C 14.871094 5.207031 14.519531 5.058594 14.152344 4.941406 C 13.679688 4.792969 13.335938 4.394531 13.253906 3.902344 C 13.195312 3.554688 13.125 3.105469 13.0625 2.734375 C 13.023438 2.472656 12.808594 2.28125 12.542969 2.261719 C 12.175781 2.246094 11.808594 2.246094 11.457031 2.265625 C 11.195312 2.28125 10.984375 2.476562 10.941406 2.734375 C 10.882812 3.078125 10.816406 3.488281 10.761719 3.824219 L 10.75 3.902344 C 10.671875 4.394531 10.324219 4.792969 9.847656 4.945312 C 9.492188 5.054688 9.136719 5.199219 8.796875 5.375 C 8.355469 5.605469 7.828125 5.566406 7.425781 5.277344 C 7.136719 5.074219 6.769531 4.808594 6.464844 4.585938 C 6.25 4.433594 5.964844 4.445312 5.765625 4.621094 C 5.492188 4.867188 5.234375 5.128906 4.996094 5.390625 C 4.824219 5.589844 4.8125 5.875 4.964844 6.085938 C 5.183594 6.394531 5.449219 6.761719 5.65625 7.046875 C 5.949219 7.453125 5.984375 7.980469 5.753906 8.421875 C 5.582031 8.753906 5.433594 9.105469 5.316406 9.472656 C 5.167969 9.945312 4.769531 10.289062 4.277344 10.371094 C 3.929688 10.429688 3.480469 10.503906 3.109375 10.5625 C 2.851562 10.605469 2.65625 10.816406 2.640625 11.082031 C 2.621094 11.449219 2.621094 11.816406 2.640625 12.167969 C 2.660156 12.429688 2.851562 12.640625 3.109375 12.683594 C 3.453125 12.742188 3.863281 12.808594 4.199219 12.863281 L 4.277344 12.875 C 4.769531 12.957031 5.171875 13.300781 5.320312 13.777344 C 5.429688 14.132812 5.578125 14.488281 5.75 14.828125 C 5.980469 15.269531 5.945312 15.796875 5.652344 16.199219 C 5.449219 16.488281 5.183594 16.855469 4.960938 17.160156 C 4.808594 17.375 4.820312 17.664062 4.996094 17.859375 C 5.242188 18.132812 5.503906 18.394531 5.769531 18.628906 C 5.964844 18.800781 6.25 18.816406 6.464844 18.660156 C 6.769531 18.441406 7.136719 18.179688 7.421875 17.972656 C 7.652344 17.804688 7.921875 17.722656 8.191406 17.722656 Z M 8.191406 17.722656 "/>
		<path style=" stroke:none;fill-rule:nonzero;fill:url(#linear2);" d="M 12 18 C 8.484375 18 5.625 15.140625 5.625 11.625 C 5.625 8.109375 8.484375 5.25 12 5.25 C 15.515625 5.25 18.375 8.109375 18.375 11.625 C 18.375 15.140625 15.515625 18 12 18 Z M 12 6 C 8.898438 6 6.375 8.523438 6.375 11.625 C 6.375 14.726562 8.898438 17.25 12 17.25 C 15.101562 17.25 17.625 14.726562 17.625 11.625 C 17.625 8.523438 15.101562 6 12 6 Z M 12 6 "/>
		<path style=" stroke:none;fill-rule:nonzero;fill:url(#linear3);" d="M 12 16.125 C 9.519531 16.125 7.5 14.105469 7.5 11.625 C 7.5 9.144531 9.519531 7.125 12 7.125 C 14.480469 7.125 16.5 9.144531 16.5 11.625 C 16.5 14.105469 14.480469 16.125 12 16.125 Z M 12 7.875 C 9.933594 7.875 8.25 9.558594 8.25 11.625 C 8.25 13.691406 9.933594 15.375 12 15.375 C 14.066406 15.375 15.75 13.691406 15.75 11.625 C 15.75 9.558594 14.066406 7.875 12 7.875 Z M 12 7.875 "/>
	</g>
</svg>