<?xml version="1.0" encoding="UTF-8"?>
<svg xmlns="http://www.w3.org/2000/svg" xmlns:xlink="http://www.w3.org/1999/xlink" viewBox="0 0 24 24" version="1.1">
	<defs>
		<linearGradient id="linear0" gradientUnits="userSpaceOnUse" x1="32" y1="11.833" x2="32" y2="29.18" spreadMethod="reflect" gradientTransform="matrix(0.375,0,0,0.375,0,0)">
			<stop offset="0" style="stop-color:rgb(42.745098%,78.039216%,100%);stop-opacity:1;"/>
			<stop offset="1" style="stop-color:rgb(90.196078%,67.058824%,100%);stop-opacity:1;"/>
		</linearGradient>
		<linearGradient id="linear1" gradientUnits="userSpaceOnUse" x1="52" y1="11.833" x2="52" y2="29.18" spreadMethod="reflect" gradientTransform="matrix(0.375,0,0,0.375,0,0)">
			<stop offset="0" style="stop-color:rgb(42.745098%,78.039216%,100%);stop-opacity:1;"/>
			<stop offset="1" style="stop-color:rgb(90.196078%,67.058824%,100%);stop-opacity:1;"/>
		</linearGradient>
		<linearGradient id="linear2" gradientUnits="userSpaceOnUse" x1="12" y1="11.833" x2="12" y2="29.18" spreadMethod="reflect" gradientTransform="matrix(0.375,0,0,0.375,0,0)">
			<stop offset="0" style="stop-color:rgb(42.745098%,78.039216%,100%);stop-opacity:1;"/>
			<stop offset="1" style="stop-color:rgb(90.196078%,67.058824%,100%);stop-opacity:1;"/>
		</linearGradient>
		<linearGradient id="linear3" gradientUnits="userSpaceOnUse" x1="25" y1="10" x2="25" y2="54.561" spreadMethod="reflect" gradientTransform="matrix(0.375,0,0,0.375,0,0)">
			<stop offset="0" style="stop-color:rgb(10.196078%,42.745098%,100%);stop-opacity:1;"/>
			<stop offset="1" style="stop-color:rgb(78.431373%,13.333333%,100%);stop-opacity:1;"/>
		</linearGradient>
		<linearGradient id="linear4" gradientUnits="userSpaceOnUse" x1="41" y1="10" x2="41" y2="54.561" spreadMethod="reflect" gradientTransform="matrix(0.375,0,0,0.375,0,0)">
			<stop offset="0" style="stop-color:rgb(10.196078%,42.745098%,100%);stop-opacity:1;"/>
			<stop offset="1" style="stop-color:rgb(78.431373%,13.333333%,100%);stop-opacity:1;"/>
		</linearGradient>
		<linearGradient id="linear5" gradientUnits="userSpaceOnUse" x1="32" y1="10" x2="32" y2="54.561" spreadMethod="reflect" gradientTransform="matrix(0.375,0,0,0.375,0,0)">
			<stop offset="0" style="stop-color:rgb(10.196078%,42.745098%,100%);stop-opacity:1;"/>
			<stop offset="1" style="stop-color:rgb(78.431373%,13.333333%,100%);stop-opacity:1;"/>
		</linearGradient>
	</defs>
	<g>
		<path style="stroke:none;fill-rule:nonzero;fill:url(#linear0);" d="M 13.875 4.125 L 13.875 9 C 13.875 10.035156 13.035156 10.875 12 10.875 C 10.964844 10.875 10.125 10.035156 10.125 9 L 10.125 4.125 Z M 13.875 4.125 "/>
		<path style="stroke:none;fill-rule:nonzero;fill:url(#linear1);" d="M 17.625 9 C 17.625 10.160156 18.675781 11.074219 19.878906 10.835938 C 20.769531 10.664062 21.375 9.828125 21.375 8.917969 L 21.375 8.898438 C 21.375 8.472656 21.28125 8.046875 21.105469 7.65625 L 19.898438 5.003906 C 19.65625 4.46875 19.121094 4.125 18.535156 4.125 L 17.625 4.125 Z M 17.625 9 "/>
		<path style="stroke:none;fill-rule:nonzero;fill:url(#linear2);" d="M 6.375 4.125 L 5.464844 4.125 C 4.878906 4.125 4.34375 4.46875 4.101562 5.003906 L 2.894531 7.65625 C 2.71875 8.046875 2.625 8.472656 2.625 8.898438 L 2.625 8.917969 C 2.625 9.898438 3.339844 10.773438 4.316406 10.867188 C 5.433594 10.972656 6.375 10.097656 6.375 9 Z M 6.375 4.125 "/>
		<path style="stroke:none;fill-rule:nonzero;fill:url(#linear3);" d="M 9 16.5 L 9.75 16.5 L 9.75 18 L 9 18 Z M 9 16.5 "/>
		<path style="stroke:none;fill-rule:nonzero;fill:url(#linear4);" d="M 12.75 17.25 L 18 17.25 C 18.414062 17.25 18.75 16.914062 18.75 16.5 L 18.75 13.5 C 18.75 13.085938 18.414062 12.75 18 12.75 L 12.75 12.75 C 12.335938 12.75 12 13.085938 12 13.5 L 12 16.5 C 12 16.914062 12.335938 17.25 12.75 17.25 Z M 12.75 13.5 L 18 13.5 L 18 16.5 L 12.75 16.5 Z M 12.75 13.5 "/>
		<path style="stroke:none;fill-rule:nonzero;fill:url(#linear5);" d="M 20.25 19.125 L 20.25 11.117188 C 21.132812 10.804688 21.75 9.925781 21.75 8.898438 C 21.75 8.414062 21.648438 7.945312 21.445312 7.503906 L 20.242188 4.847656 C 19.9375 4.179688 19.269531 3.75 18.535156 3.75 L 5.464844 3.75 C 4.730469 3.75 4.0625 4.179688 3.757812 4.847656 L 2.550781 7.503906 C 2.351562 7.945312 2.25 8.414062 2.25 8.917969 C 2.25 9.917969 2.878906 10.792969 3.75 11.117188 L 3.75 19.125 C 3.75 19.257812 3.777344 19.382812 3.820312 19.5 L 2.25 19.5 L 2.25 20.25 L 21.75 20.25 L 21.75 19.5 L 20.179688 19.5 C 20.222656 19.382812 20.25 19.257812 20.25 19.125 Z M 10.5 14.25 L 7.5 14.25 L 7.5 13.5 L 10.5 13.5 Z M 10.5 12.75 L 7.5 12.75 C 7.085938 12.75 6.75 13.085938 6.75 13.5 L 6.75 18 L 4.5 18 L 4.5 11.25 C 5.058594 11.25 5.597656 11.042969 6.011719 10.664062 C 6.152344 10.539062 6.273438 10.394531 6.375 10.238281 C 6.777344 10.847656 7.46875 11.25 8.25 11.25 C 9.03125 11.25 9.722656 10.847656 10.125 10.242188 C 10.527344 10.847656 11.21875 11.25 12 11.25 C 12.78125 11.25 13.472656 10.847656 13.875 10.242188 C 14.277344 10.847656 14.96875 11.25 15.75 11.25 C 16.53125 11.25 17.222656 10.847656 17.625 10.238281 C 17.746094 10.425781 17.894531 10.59375 18.070312 10.738281 C 18.476562 11.070312 18.980469 11.25 19.5 11.25 L 19.5 18 L 11.25 18 L 11.25 13.5 C 11.25 13.085938 10.914062 12.75 10.5 12.75 Z M 19.558594 5.160156 L 20.765625 7.8125 C 20.921875 8.15625 21 8.523438 21 8.917969 C 21 9.683594 20.496094 10.335938 19.804688 10.46875 C 19.347656 10.558594 18.898438 10.449219 18.546875 10.160156 C 18.199219 9.871094 18 9.449219 18 9 L 18 4.5 L 18.535156 4.5 C 18.976562 4.5 19.375 4.757812 19.558594 5.160156 Z M 17.25 4.5 L 17.25 9 C 17.25 9.828125 16.578125 10.5 15.75 10.5 C 14.921875 10.5 14.25 9.828125 14.25 9 L 14.25 4.5 Z M 13.5 9 C 13.5 9.828125 12.828125 10.5 12 10.5 C 11.171875 10.5 10.5 9.828125 10.5 9 L 10.5 4.5 L 13.5 4.5 Z M 9.75 4.5 L 9.75 9 C 9.75 9.828125 9.078125 10.5 8.25 10.5 C 7.421875 10.5 6.75 9.828125 6.75 9 L 6.75 4.5 Z M 3 8.898438 C 3 8.523438 3.078125 8.15625 3.234375 7.8125 L 4.441406 5.160156 C 4.625 4.757812 5.023438 4.5 5.464844 4.5 L 6 4.5 L 6 9 C 6 9.421875 5.820312 9.824219 5.507812 10.109375 C 5.191406 10.398438 4.78125 10.53125 4.351562 10.492188 C 3.59375 10.421875 3 9.730469 3 8.898438 Z M 4.875 19.5 C 4.667969 19.5 4.5 19.332031 4.5 19.125 L 4.5 18.75 L 6.75 18.75 L 6.75 19.5 Z M 7.5 19.5 L 7.5 15 L 10.5 15 L 10.5 19.5 Z M 11.25 19.5 L 11.25 18.75 L 19.5 18.75 L 19.5 19.125 C 19.5 19.332031 19.332031 19.5 19.125 19.5 Z M 11.25 19.5 "/>
	</g>
</svg>