<?xml version="1.0" encoding="UTF-8"?>
<svg xmlns="http://www.w3.org/2000/svg" xmlns:xlink="http://www.w3.org/1999/xlink" viewBox="0 0 24 24" version="1.1">
	<g>
		<path style="stroke:none;fill-rule:nonzero;fill:rgb(71.372549%,86.27451%,99.607843%);fill-opacity:1;" d="M 2.707031 23.101562 C 2.863281 19.433594 5.894531 16.5 9.601562 16.5 L 14.398438 16.5 C 18.105469 16.5 21.136719 19.433594 21.292969 23.101562 Z M 2.707031 23.101562 "/>
		<path style=" stroke:none;fill-rule:nonzero;fill:rgb(27.843137%,53.333333%,78.039216%);fill-opacity:1;" d="M 14.398438 16.800781 C 17.835938 16.800781 20.667969 19.441406 20.972656 22.800781 L 3.027344 22.800781 C 3.332031 19.441406 6.164062 16.800781 9.601562 16.800781 L 14.398438 16.800781 M 14.398438 16.199219 L 9.601562 16.199219 C 5.625 16.199219 2.398438 19.421875 2.398438 23.398438 L 21.601562 23.398438 C 21.601562 19.421875 18.375 16.199219 14.398438 16.199219 Z M 14.398438 16.199219 "/>
		<path style="stroke:none;fill-rule:nonzero;fill:rgb(71.372549%,86.27451%,99.607843%);fill-opacity:1;" d="M 12 18.582031 L 9.1875 20.507812 L 8.226562 16.644531 C 8.691406 16.546875 9.152344 16.5 9.601562 16.5 L 14.398438 16.5 C 14.847656 16.5 15.308594 16.546875 15.773438 16.644531 L 14.8125 20.507812 Z M 12 18.582031 "/>
		<path style=" stroke:none;fill-rule:nonzero;fill:rgb(27.843137%,53.333333%,78.039216%);fill-opacity:1;" d="M 14.398438 16.800781 C 14.726562 16.800781 15.0625 16.828125 15.40625 16.882812 L 14.625 20.015625 L 12.339844 18.453125 L 12 18.21875 L 11.660156 18.453125 L 9.375 20.015625 L 8.59375 16.882812 C 8.9375 16.828125 9.273438 16.800781 9.601562 16.800781 L 14.398438 16.800781 M 14.398438 16.199219 L 9.601562 16.199219 C 9 16.199219 8.421875 16.28125 7.863281 16.417969 L 9 21 L 12 18.949219 L 15 21 L 16.136719 16.417969 C 15.578125 16.28125 15 16.199219 14.398438 16.199219 Z M 14.398438 16.199219 "/>
		<path style="stroke:none;fill-rule:nonzero;fill:rgb(100%,100%,100%);fill-opacity:1;" d="M 9.300781 16.683594 L 9.300781 13.5 L 14.699219 13.5 L 14.699219 16.683594 L 12 18.585938 Z M 9.300781 16.683594 "/>
		<path style=" stroke:none;fill-rule:nonzero;fill:rgb(27.843137%,53.333333%,78.039216%);fill-opacity:1;" d="M 14.398438 13.800781 L 14.398438 16.527344 L 12 18.21875 L 9.601562 16.527344 L 9.601562 13.800781 L 14.398438 13.800781 M 15 13.199219 L 9 13.199219 L 9 16.835938 L 12 18.953125 L 15 16.835938 Z M 15 13.199219 "/>
		<path style="stroke:none;fill-rule:nonzero;fill:rgb(71.372549%,86.27451%,99.607843%);fill-opacity:1;" d="M 16.285156 11.527344 C 15.503906 11.527344 14.871094 10.894531 14.871094 10.113281 C 14.871094 9.335938 15.507812 8.699219 16.285156 8.699219 C 17.464844 8.699219 17.699219 9.023438 17.699219 9.542969 C 17.699219 10.390625 17 11.527344 16.285156 11.527344 Z M 7.714844 11.527344 C 7 11.527344 6.300781 10.390625 6.300781 9.542969 C 6.300781 9.023438 6.535156 8.699219 7.714844 8.699219 C 8.496094 8.699219 9.128906 9.332031 9.128906 10.113281 C 9.128906 10.894531 8.496094 11.527344 7.714844 11.527344 Z M 7.714844 11.527344 "/>
		<path style="stroke:none;fill-rule:nonzero;fill:rgb(27.843137%,53.333333%,78.039216%);fill-opacity:1;" d="M 16.285156 9 C 17.398438 9 17.398438 9.289062 17.398438 9.542969 C 17.398438 10.285156 16.777344 11.230469 16.285156 11.230469 C 15.671875 11.230469 15.171875 10.730469 15.171875 10.113281 C 15.171875 9.5 15.671875 9 16.285156 9 M 7.714844 9 C 8.328125 9 8.828125 9.5 8.828125 10.113281 C 8.828125 10.730469 8.328125 11.226562 7.714844 11.226562 C 7.222656 11.226562 6.601562 10.285156 6.601562 9.542969 C 6.601562 9.289062 6.601562 9 7.714844 9 M 16.285156 8.398438 C 15.339844 8.398438 14.570312 9.167969 14.570312 10.113281 C 14.570312 11.0625 15.339844 11.828125 16.285156 11.828125 C 17.234375 11.828125 18 10.488281 18 9.542969 C 18 8.597656 17.234375 8.398438 16.285156 8.398438 Z M 7.714844 8.398438 C 6.765625 8.398438 6 8.597656 6 9.542969 C 6 10.488281 6.765625 11.828125 7.714844 11.828125 C 8.660156 11.828125 9.429688 11.0625 9.429688 10.113281 C 9.429688 9.167969 8.660156 8.398438 7.714844 8.398438 Z M 7.714844 8.398438 "/>
		<path style="stroke:none;fill-rule:nonzero;fill:rgb(100%,100%,100%);fill-opacity:1;" d="M 12 15.898438 C 11.636719 15.898438 11.296875 15.769531 11.015625 15.523438 L 10.960938 15.472656 L 10.890625 15.457031 C 8.894531 14.949219 7.5 13.15625 7.5 11.101562 L 7.5 5.519531 C 7.5 4.425781 8.390625 3.535156 9.488281 3.535156 L 14.511719 3.535156 C 15.609375 3.535156 16.5 4.425781 16.5 5.519531 L 16.5 11.101562 C 16.5 13.15625 15.105469 14.949219 13.109375 15.457031 L 13.039062 15.472656 L 12.984375 15.523438 C 12.703125 15.769531 12.363281 15.898438 12 15.898438 Z M 12 15.898438 "/>
		<path style="stroke:none;fill-rule:nonzero;fill:rgb(27.843137%,53.333333%,78.039216%);fill-opacity:1;" d="M 14.511719 3.832031 C 15.441406 3.832031 16.199219 4.589844 16.199219 5.519531 L 16.199219 11.101562 C 16.199219 13.019531 14.898438 14.691406 13.035156 15.164062 L 12.894531 15.199219 L 12.785156 15.296875 C 12.628906 15.433594 12.363281 15.601562 12 15.601562 C 11.636719 15.601562 11.371094 15.433594 11.214844 15.296875 L 11.105469 15.199219 L 10.964844 15.164062 C 9.101562 14.691406 7.800781 13.019531 7.800781 11.101562 L 7.800781 5.519531 C 7.800781 4.589844 8.558594 3.832031 9.488281 3.832031 L 14.511719 3.832031 M 14.511719 3.234375 L 9.488281 3.234375 C 8.222656 3.234375 7.199219 4.257812 7.199219 5.519531 L 7.199219 11.101562 C 7.199219 13.34375 8.738281 15.21875 10.816406 15.746094 C 11.132812 16.027344 11.546875 16.199219 12 16.199219 C 12.453125 16.199219 12.867188 16.027344 13.183594 15.746094 C 15.261719 15.21875 16.800781 13.34375 16.800781 11.101562 L 16.800781 5.519531 C 16.800781 4.257812 15.777344 3.234375 14.511719 3.234375 Z M 14.511719 3.234375 "/>
		<path style="stroke:none;fill-rule:nonzero;fill:rgb(71.372549%,86.27451%,99.607843%);fill-opacity:1;" d="M 16.5 10.5 L 16.5 8.398438 C 16.5 6.21875 14.679688 5.050781 14.601562 5.003906 L 14.363281 4.851562 L 14.199219 5.082031 C 14.148438 5.152344 12.925781 6.8125 10.289062 6.8125 C 9.601562 6.8125 7.5 6.8125 7.5 9 L 7.5 10.5 L 7.394531 10.5 C 7.132812 9.910156 6.300781 7.902344 6.300781 6.1875 C 6.300781 3.023438 8.46875 0.898438 11.699219 0.898438 C 14.003906 0.898438 14.695312 2.449219 14.722656 2.515625 L 14.800781 2.699219 L 15 2.699219 C 16.003906 2.699219 17.699219 3.398438 17.699219 6.007812 C 17.699219 7.582031 16.855469 9.84375 16.597656 10.5 Z M 16.5 10.5 "/>
		<path style="stroke:none;fill-rule:nonzero;fill:rgb(27.843137%,53.333333%,78.039216%);fill-opacity:1;" d="M 11.699219 1.199219 C 13.789062 1.199219 14.421875 2.578125 14.445312 2.632812 L 14.601562 3 L 15 3 C 16.105469 3 17.398438 3.789062 17.398438 6.007812 C 17.398438 6.929688 17.097656 8.109375 16.800781 9.035156 L 16.800781 8.398438 C 16.800781 6.054688 14.84375 4.800781 14.761719 4.746094 L 14.285156 4.453125 L 13.957031 4.90625 C 13.90625 4.972656 12.757812 6.511719 10.289062 6.511719 C 8.238281 6.515625 7.199219 7.351562 7.199219 9 L 7.199219 9.1875 C 6.90625 8.335938 6.601562 7.207031 6.601562 6.1875 C 6.601562 3.203125 8.648438 1.199219 11.699219 1.199219 M 11.699219 0.601562 C 8.207031 0.601562 6 2.988281 6 6.1875 C 6 8.304688 7.199219 10.800781 7.199219 10.800781 L 7.800781 10.800781 C 7.800781 10.800781 7.800781 9.582031 7.800781 9 C 7.800781 7.398438 9.015625 7.113281 10.289062 7.113281 C 13.128906 7.113281 14.441406 5.257812 14.441406 5.257812 C 14.441406 5.257812 16.199219 6.359375 16.199219 8.398438 C 16.199219 9.042969 16.199219 10.800781 16.199219 10.800781 L 16.800781 10.800781 C 16.800781 10.800781 18 7.9375 18 6.007812 C 18 3.296875 16.273438 2.398438 15 2.398438 C 15 2.398438 14.25 0.601562 11.699219 0.601562 Z M 11.699219 0.601562 "/>
	</g>
</svg>