<?xml version="1.0" encoding="UTF-8"?>
<svg xmlns="http://www.w3.org/2000/svg" xmlns:xlink="http://www.w3.org/1999/xlink" viewBox="0 0 24 24" version="1.1">
	<g>
		<path style="stroke:none;fill-rule:nonzero;fill:rgb(71.372549%,86.27451%,99.607843%);fill-opacity:1;" d="M 13.296875 22.5 C 14.144531 21.902344 14.699219 20.914062 14.699219 19.800781 L 14.699219 3.300781 L 22.5 3.300781 L 22.5 19.800781 C 22.5 21.289062 21.289062 22.5 19.800781 22.5 Z M 13.296875 22.5 "/>
		<path style="stroke:none;fill-rule:nonzero;fill:rgb(27.843137%,53.333333%,78.039216%);fill-opacity:1;" d="M 22.199219 3.601562 L 22.199219 19.800781 C 22.199219 21.125 21.125 22.199219 19.800781 22.199219 L 14.082031 22.199219 C 14.652344 21.5625 15 20.722656 15 19.800781 L 15 3.601562 L 22.199219 3.601562 M 22.800781 3 L 14.398438 3 L 14.398438 19.800781 C 14.398438 21.457031 13.054688 22.800781 11.398438 22.800781 L 19.800781 22.800781 C 21.457031 22.800781 22.800781 21.457031 22.800781 19.800781 Z M 22.800781 3 "/>
		<path style="stroke:none;fill-rule:nonzero;fill:rgb(87.45098%,94.117647%,99.607843%);fill-opacity:1;" d="M 4.199219 22.5 C 2.710938 22.5 1.5 21.289062 1.5 19.800781 L 1.5 0.898438 L 17.101562 0.898438 L 17.101562 19.800781 C 17.101562 21.1875 18.152344 22.332031 19.5 22.484375 L 19.5 22.5 Z M 4.199219 22.5 "/>
		<path style="stroke:none;fill-rule:nonzero;fill:rgb(27.843137%,53.333333%,78.039216%);fill-opacity:1;" d="M 16.800781 1.199219 L 16.800781 19.800781 C 16.800781 20.78125 17.273438 21.652344 18 22.199219 L 4.199219 22.199219 C 2.875 22.199219 1.800781 21.125 1.800781 19.800781 L 1.800781 1.199219 L 16.800781 1.199219 M 17.398438 0.601562 L 1.199219 0.601562 L 1.199219 19.800781 C 1.199219 21.457031 2.542969 22.800781 4.199219 22.800781 L 19.800781 22.800781 L 19.800781 22.199219 C 18.472656 22.199219 17.398438 21.125 17.398438 19.800781 Z M 17.398438 0.601562 "/>
		<path style="stroke:none;fill-rule:nonzero;fill:rgb(27.843137%,53.333333%,78.039216%);fill-opacity:1;" d="M 20.101562 6.601562 L 17.101562 6.601562 C 16.933594 6.601562 16.800781 6.464844 16.800781 6.300781 C 16.800781 6.136719 16.933594 6 17.101562 6 L 20.101562 6 C 20.265625 6 20.398438 6.136719 20.398438 6.300781 C 20.398438 6.464844 20.265625 6.601562 20.101562 6.601562 Z M 20.101562 8.398438 L 17.101562 8.398438 C 16.933594 8.398438 16.800781 8.265625 16.800781 8.101562 C 16.800781 7.933594 16.933594 7.800781 17.101562 7.800781 L 20.101562 7.800781 C 20.265625 7.800781 20.398438 7.933594 20.398438 8.101562 C 20.398438 8.265625 20.265625 8.398438 20.101562 8.398438 Z M 20.101562 10.199219 L 17.101562 10.199219 C 16.933594 10.199219 16.800781 10.066406 16.800781 9.898438 C 16.800781 9.734375 16.933594 9.601562 17.101562 9.601562 L 20.101562 9.601562 C 20.265625 9.601562 20.398438 9.734375 20.398438 9.898438 C 20.398438 10.066406 20.265625 10.199219 20.101562 10.199219 Z M 20.101562 12 L 17.101562 12 C 16.933594 12 16.800781 11.863281 16.800781 11.699219 C 16.800781 11.535156 16.933594 11.398438 17.101562 11.398438 L 20.101562 11.398438 C 20.265625 11.398438 20.398438 11.535156 20.398438 11.699219 C 20.398438 11.863281 20.265625 12 20.101562 12 Z M 20.101562 13.800781 L 17.101562 13.800781 C 16.933594 13.800781 16.800781 13.664062 16.800781 13.5 C 16.800781 13.335938 16.933594 13.199219 17.101562 13.199219 L 20.101562 13.199219 C 20.265625 13.199219 20.398438 13.335938 20.398438 13.5 C 20.398438 13.664062 20.265625 13.800781 20.101562 13.800781 Z M 20.101562 15.601562 L 17.101562 15.601562 C 16.933594 15.601562 16.800781 15.464844 16.800781 15.300781 C 16.800781 15.136719 16.933594 15 17.101562 15 L 20.101562 15 C 20.265625 15 20.398438 15.136719 20.398438 15.300781 C 20.398438 15.464844 20.265625 15.601562 20.101562 15.601562 Z M 20.101562 17.398438 L 17.101562 17.398438 C 16.933594 17.398438 16.800781 17.265625 16.800781 17.101562 C 16.800781 16.933594 16.933594 16.800781 17.101562 16.800781 L 20.101562 16.800781 C 20.265625 16.800781 20.398438 16.933594 20.398438 17.101562 C 20.398438 17.265625 20.265625 17.398438 20.101562 17.398438 Z M 20.101562 19.199219 L 17.101562 19.199219 C 16.933594 19.199219 16.800781 19.066406 16.800781 18.898438 C 16.800781 18.734375 16.933594 18.601562 17.101562 18.601562 L 20.101562 18.601562 C 20.265625 18.601562 20.398438 18.734375 20.398438 18.898438 C 20.398438 19.066406 20.265625 19.199219 20.101562 19.199219 Z M 20.101562 19.199219 "/>
		<path style="stroke:none;fill-rule:nonzero;fill:rgb(27.843137%,53.333333%,78.039216%);fill-opacity:1;" d="M 14.101562 7.199219 L 10.5 7.199219 C 10.335938 7.199219 10.199219 7.066406 10.199219 6.898438 C 10.199219 6.734375 10.335938 6.601562 10.5 6.601562 L 14.101562 6.601562 C 14.265625 6.601562 14.398438 6.734375 14.398438 6.898438 C 14.398438 7.066406 14.265625 7.199219 14.101562 7.199219 Z M 14.101562 9 L 10.5 9 C 10.335938 9 10.199219 8.863281 10.199219 8.699219 C 10.199219 8.535156 10.335938 8.398438 10.5 8.398438 L 14.101562 8.398438 C 14.265625 8.398438 14.398438 8.535156 14.398438 8.699219 C 14.398438 8.863281 14.265625 9 14.101562 9 Z M 14.101562 10.800781 L 10.5 10.800781 C 10.335938 10.800781 10.199219 10.664062 10.199219 10.5 C 10.199219 10.335938 10.335938 10.199219 10.5 10.199219 L 14.101562 10.199219 C 14.265625 10.199219 14.398438 10.335938 14.398438 10.5 C 14.398438 10.664062 14.265625 10.800781 14.101562 10.800781 Z M 14.101562 12.601562 L 10.5 12.601562 C 10.335938 12.601562 10.199219 12.464844 10.199219 12.300781 C 10.199219 12.136719 10.335938 12 10.5 12 L 14.101562 12 C 14.265625 12 14.398438 12.136719 14.398438 12.300781 C 14.398438 12.464844 14.265625 12.601562 14.101562 12.601562 Z M 14.101562 14.398438 L 10.5 14.398438 C 10.335938 14.398438 10.199219 14.265625 10.199219 14.101562 C 10.199219 13.933594 10.335938 13.800781 10.5 13.800781 L 14.101562 13.800781 C 14.265625 13.800781 14.398438 13.933594 14.398438 14.101562 C 14.398438 14.265625 14.265625 14.398438 14.101562 14.398438 Z M 14.101562 16.199219 L 10.5 16.199219 C 10.335938 16.199219 10.199219 16.066406 10.199219 15.898438 C 10.199219 15.734375 10.335938 15.601562 10.5 15.601562 L 14.101562 15.601562 C 14.265625 15.601562 14.398438 15.734375 14.398438 15.898438 C 14.398438 16.066406 14.265625 16.199219 14.101562 16.199219 Z M 14.101562 18 L 10.5 18 C 10.335938 18 10.199219 17.863281 10.199219 17.699219 C 10.199219 17.535156 10.335938 17.398438 10.5 17.398438 L 14.101562 17.398438 C 14.265625 17.398438 14.398438 17.535156 14.398438 17.699219 C 14.398438 17.863281 14.265625 18 14.101562 18 Z M 14.101562 19.800781 L 10.5 19.800781 C 10.335938 19.800781 10.199219 19.664062 10.199219 19.5 C 10.199219 19.335938 10.335938 19.199219 10.5 19.199219 L 14.101562 19.199219 C 14.265625 19.199219 14.398438 19.335938 14.398438 19.5 C 14.398438 19.664062 14.265625 19.800781 14.101562 19.800781 Z M 14.101562 19.800781 "/>
		<path style="stroke:none;fill-rule:nonzero;fill:rgb(27.843137%,53.333333%,78.039216%);fill-opacity:1;" d="M 8.101562 7.199219 L 4.5 7.199219 C 4.335938 7.199219 4.199219 7.066406 4.199219 6.898438 C 4.199219 6.734375 4.335938 6.601562 4.5 6.601562 L 8.101562 6.601562 C 8.265625 6.601562 8.398438 6.734375 8.398438 6.898438 C 8.398438 7.066406 8.265625 7.199219 8.101562 7.199219 Z M 8.101562 9 L 4.5 9 C 4.335938 9 4.199219 8.863281 4.199219 8.699219 C 4.199219 8.535156 4.335938 8.398438 4.5 8.398438 L 8.101562 8.398438 C 8.265625 8.398438 8.398438 8.535156 8.398438 8.699219 C 8.398438 8.863281 8.265625 9 8.101562 9 Z M 8.101562 10.800781 L 4.5 10.800781 C 4.335938 10.800781 4.199219 10.664062 4.199219 10.5 C 4.199219 10.335938 4.335938 10.199219 4.5 10.199219 L 8.101562 10.199219 C 8.265625 10.199219 8.398438 10.335938 8.398438 10.5 C 8.398438 10.664062 8.265625 10.800781 8.101562 10.800781 Z M 8.101562 12.601562 L 4.5 12.601562 C 4.335938 12.601562 4.199219 12.464844 4.199219 12.300781 C 4.199219 12.136719 4.335938 12 4.5 12 L 8.101562 12 C 8.265625 12 8.398438 12.136719 8.398438 12.300781 C 8.398438 12.464844 8.265625 12.601562 8.101562 12.601562 Z M 8.101562 14.398438 L 4.5 14.398438 C 4.335938 14.398438 4.199219 14.265625 4.199219 14.101562 C 4.199219 13.933594 4.335938 13.800781 4.5 13.800781 L 8.101562 13.800781 C 8.265625 13.800781 8.398438 13.933594 8.398438 14.101562 C 8.398438 14.265625 8.265625 14.398438 8.101562 14.398438 Z M 8.101562 16.199219 L 4.5 16.199219 C 4.335938 16.199219 4.199219 16.066406 4.199219 15.898438 C 4.199219 15.734375 4.335938 15.601562 4.5 15.601562 L 8.101562 15.601562 C 8.265625 15.601562 8.398438 15.734375 8.398438 15.898438 C 8.398438 16.066406 8.265625 16.199219 8.101562 16.199219 Z M 8.101562 18 L 4.5 18 C 4.335938 18 4.199219 17.863281 4.199219 17.699219 C 4.199219 17.535156 4.335938 17.398438 4.5 17.398438 L 8.101562 17.398438 C 8.265625 17.398438 8.398438 17.535156 8.398438 17.699219 C 8.398438 17.863281 8.265625 18 8.101562 18 Z M 8.101562 19.800781 L 4.5 19.800781 C 4.335938 19.800781 4.199219 19.664062 4.199219 19.5 C 4.199219 19.335938 4.335938 19.199219 4.5 19.199219 L 8.101562 19.199219 C 8.265625 19.199219 8.398438 19.335938 8.398438 19.5 C 8.398438 19.664062 8.265625 19.800781 8.101562 19.800781 Z M 8.101562 19.800781 "/>
		<path style="stroke:none;fill-rule:nonzero;fill:rgb(27.843137%,53.333333%,78.039216%);fill-opacity:1;" d="M 13.800781 4.800781 L 4.800781 4.800781 C 4.46875 4.800781 4.199219 4.53125 4.199219 4.199219 C 4.199219 3.871094 4.46875 3.601562 4.800781 3.601562 L 13.800781 3.601562 C 14.128906 3.601562 14.398438 3.871094 14.398438 4.199219 C 14.398438 4.53125 14.128906 4.800781 13.800781 4.800781 Z M 13.800781 4.800781 "/>
	</g>
</svg>