<?xml version="1.0" encoding="UTF-8"?>
<svg xmlns="http://www.w3.org/2000/svg" xmlns:xlink="http://www.w3.org/1999/xlink" viewBox="0 0 24 24" version="1.1">
	<g>
		<path style="fill:none;stroke-width:1;stroke-linecap:round;stroke-linejoin:miter;stroke:rgb(27.843137%,53.333333%,78.039216%);stroke-opacity:1;stroke-miterlimit:10;" d="M 38.365885 11.679688 L 34.902344 24.394531 C 34.720052 25.045573 34.127604 25.501302 33.450521 25.501302 L 12.910156 25.501302 " transform="matrix(0.6,0,0,0.6,0,0)"/>
		<path style="fill:none;stroke-width:1;stroke-linecap:round;stroke-linejoin:miter;stroke:rgb(27.843137%,53.333333%,78.039216%);stroke-opacity:1;stroke-miterlimit:10;" d="M 3.001302 1.497396 L 5.117188 1.497396 C 7.213542 1.497396 9.003906 3.007812 9.361979 5.065104 L 13.860677 30.93099 C 14.21875 32.994792 16.009115 34.498698 18.098958 34.498698 L 35.501302 34.498698 " transform="matrix(0.6,0,0,0.6,0,0)"/>
		<path style="stroke:none;fill-rule:nonzero;fill:rgb(87.45098%,94.117647%,99.607843%);fill-opacity:1;" d="M 1.800781 0.898438 C 1.304688 0.898438 0.898438 1.304688 0.898438 1.800781 C 0.898438 2.296875 1.304688 2.699219 1.800781 2.699219 C 2.296875 2.699219 2.699219 2.296875 2.699219 1.800781 C 2.699219 1.304688 2.296875 0.898438 1.800781 0.898438 Z M 1.800781 0.898438 "/>
		<path style="stroke:none;fill-rule:nonzero;fill:rgb(27.843137%,53.333333%,78.039216%);fill-opacity:1;" d="M 1.800781 1.199219 C 2.128906 1.199219 2.398438 1.46875 2.398438 1.800781 C 2.398438 2.128906 2.128906 2.398438 1.800781 2.398438 C 1.46875 2.398438 1.199219 2.128906 1.199219 1.800781 C 1.199219 1.46875 1.46875 1.199219 1.800781 1.199219 M 1.800781 0.601562 C 1.136719 0.601562 0.601562 1.136719 0.601562 1.800781 C 0.601562 2.464844 1.136719 3 1.800781 3 C 2.464844 3 3 2.464844 3 1.800781 C 3 1.136719 2.464844 0.601562 1.800781 0.601562 Z M 1.800781 0.601562 "/>
		<path style="stroke:none;fill-rule:nonzero;fill:rgb(59.607843%,80%,99.215686%);fill-opacity:1;" d="M 18.898438 20.699219 C 18.238281 20.699219 17.699219 21.238281 17.699219 21.898438 C 17.699219 22.5625 18.238281 23.101562 18.898438 23.101562 C 19.5625 23.101562 20.101562 22.5625 20.101562 21.898438 C 20.101562 21.238281 19.5625 20.699219 18.898438 20.699219 Z M 18.898438 20.699219 "/>
		<path style="stroke:none;fill-rule:nonzero;fill:rgb(27.843137%,53.333333%,78.039216%);fill-opacity:1;" d="M 18.898438 21 C 19.394531 21 19.800781 21.402344 19.800781 21.898438 C 19.800781 22.394531 19.394531 22.800781 18.898438 22.800781 C 18.402344 22.800781 18 22.394531 18 21.898438 C 18 21.402344 18.402344 21 18.898438 21 M 18.898438 20.398438 C 18.070312 20.398438 17.398438 21.070312 17.398438 21.898438 C 17.398438 22.730469 18.070312 23.398438 18.898438 23.398438 C 19.730469 23.398438 20.398438 22.730469 20.398438 21.898438 C 20.398438 21.070312 19.730469 20.398438 18.898438 20.398438 Z M 18.898438 20.398438 "/>
		<path style="stroke:none;fill-rule:nonzero;fill:rgb(59.607843%,80%,99.215686%);fill-opacity:1;" d="M 11.101562 20.699219 C 10.4375 20.699219 9.898438 21.238281 9.898438 21.898438 C 9.898438 22.5625 10.4375 23.101562 11.101562 23.101562 C 11.761719 23.101562 12.300781 22.5625 12.300781 21.898438 C 12.300781 21.238281 11.761719 20.699219 11.101562 20.699219 Z M 11.101562 20.699219 "/>
		<path style="stroke:none;fill-rule:nonzero;fill:rgb(27.843137%,53.333333%,78.039216%);fill-opacity:1;" d="M 11.101562 21 C 11.597656 21 12 21.402344 12 21.898438 C 12 22.394531 11.597656 22.800781 11.101562 22.800781 C 10.605469 22.800781 10.199219 22.394531 10.199219 21.898438 C 10.199219 21.402344 10.605469 21 11.101562 21 M 11.101562 20.398438 C 10.269531 20.398438 9.601562 21.070312 9.601562 21.898438 C 9.601562 22.730469 10.269531 23.398438 11.101562 23.398438 C 11.929688 23.398438 12.601562 22.730469 12.601562 21.898438 C 12.601562 21.070312 11.929688 20.398438 11.101562 20.398438 Z M 11.101562 20.398438 "/>
		<path style="stroke:none;fill-rule:nonzero;fill:rgb(59.607843%,80%,99.215686%);fill-opacity:1;" d="M 15.898438 7.5 L 9.300781 7.5 L 9.300781 5.699219 L 15.898438 5.699219 L 15.898438 3.125 L 19.375 6.601562 L 15.898438 10.074219 Z M 15.898438 7.5 "/>
		<path style="stroke:none;fill-rule:nonzero;fill:rgb(27.843137%,53.333333%,78.039216%);fill-opacity:1;" d="M 16.199219 3.847656 L 18.953125 6.601562 L 16.199219 9.351562 L 16.199219 7.199219 L 9.601562 7.199219 L 9.601562 6 L 16.199219 6 L 16.199219 3.847656 M 15.601562 2.398438 L 15.601562 5.398438 L 9 5.398438 L 9 7.800781 L 15.601562 7.800781 L 15.601562 10.800781 L 19.800781 6.601562 Z M 15.601562 2.398438 "/>
	</g>
</svg>