<?xml version="1.0" encoding="UTF-8"?>
<svg xmlns="http://www.w3.org/2000/svg" xmlns:xlink="http://www.w3.org/1999/xlink" viewBox="0 0 24 24" version="1.1">
    <g>
        <path style="stroke:none;fill-rule:nonzero;fill:rgb(71.372549%,86.27451%,99.607843%);fill-opacity:1;" d="M 18.359375 23.101562 C 17.980469 23.101562 17.613281 23.023438 17.269531 22.875 C 15.195312 21.976562 11.1875 19.9375 7.625 16.375 C 4.0625 12.8125 2.023438 8.804688 1.125 6.730469 C 0.671875 5.683594 0.90625 4.476562 1.726562 3.65625 L 3.964844 1.417969 C 4.296875 1.085938 4.742188 0.898438 5.214844 0.898438 C 5.6875 0.898438 6.132812 1.085938 6.46875 1.417969 L 9.398438 4.347656 C 9.722656 4.675781 9.898438 5.128906 9.886719 5.625 C 9.878906 6.101562 9.703125 6.550781 9.398438 6.855469 L 6.332031 9.917969 L 6.398438 10.101562 C 6.4375 10.199219 7.3125 12.515625 9.398438 14.601562 C 11.484375 16.6875 13.800781 17.566406 13.898438 17.601562 L 14.082031 17.667969 L 17.144531 14.601562 C 17.480469 14.265625 17.925781 14.082031 18.398438 14.082031 C 18.871094 14.082031 19.316406 14.265625 19.652344 14.601562 L 22.582031 17.53125 C 23.273438 18.222656 23.273438 19.347656 22.582031 20.035156 L 20.34375 22.273438 C 19.820312 22.796875 19.09375 23.101562 18.359375 23.101562 Z M 18.359375 23.101562 "/>
        <path style="stroke:none;fill-rule:nonzero;fill:rgb(27.843137%,53.333333%,78.039216%);fill-opacity:1;" d="M 5.214844 1.199219 C 5.609375 1.199219 5.976562 1.351562 6.257812 1.628906 L 9.1875 4.5625 C 9.773438 5.148438 9.667969 6.160156 9.1875 6.640625 L 5.984375 9.84375 L 6.117188 10.203125 C 6.15625 10.304688 7.054688 12.683594 9.1875 14.816406 C 11.316406 16.945312 13.695312 17.84375 13.796875 17.882812 L 14.15625 18.015625 L 14.429688 17.746094 L 17.359375 14.816406 C 17.636719 14.535156 18.007812 14.382812 18.398438 14.382812 C 18.792969 14.382812 19.164062 14.535156 19.441406 14.816406 L 22.371094 17.746094 C 22.945312 18.316406 22.945312 19.25 22.371094 19.824219 L 20.132812 22.0625 C 19.664062 22.53125 19.015625 22.800781 18.359375 22.800781 C 18.023438 22.800781 17.695312 22.730469 17.386719 22.597656 C 15.335938 21.710938 11.363281 19.6875 7.835938 16.164062 C 4.308594 12.636719 2.289062 8.664062 1.402344 6.613281 C 0.996094 5.675781 1.207031 4.597656 1.9375 3.867188 L 4.175781 1.632812 C 4.453125 1.351562 4.824219 1.199219 5.214844 1.199219 M 5.214844 0.601562 C 4.6875 0.601562 4.15625 0.800781 3.75 1.207031 L 1.515625 3.441406 C 0.621094 4.339844 0.347656 5.6875 0.851562 6.851562 C 1.84375 9.144531 3.890625 13.0625 7.414062 16.585938 C 10.9375 20.109375 14.855469 22.15625 17.148438 23.148438 C 17.539062 23.320312 17.949219 23.398438 18.359375 23.398438 C 19.164062 23.398438 19.960938 23.078125 20.558594 22.484375 L 22.792969 20.25 C 23.601562 19.441406 23.601562 18.128906 22.792969 17.320312 L 19.863281 14.390625 C 19.457031 13.984375 18.929688 13.78125 18.398438 13.78125 C 17.867188 13.78125 17.339844 13.984375 16.933594 14.390625 L 14.003906 17.320312 C 14.003906 17.320312 11.671875 16.453125 9.609375 14.390625 C 7.546875 12.328125 6.679688 9.996094 6.679688 9.996094 L 9.609375 7.066406 C 10.34375 6.332031 10.417969 4.945312 9.609375 4.136719 L 6.679688 1.207031 C 6.277344 0.800781 5.746094 0.601562 5.214844 0.601562 Z M 5.214844 0.601562 "/>
    </g>
</svg>
