<?xml version="1.0" encoding="UTF-8"?>
<svg xmlns="http://www.w3.org/2000/svg" xmlns:xlink="http://www.w3.org/1999/xlink" viewBox="0 0 24 24" version="1.1">
	<g>
		<path style="stroke:none;fill-rule:nonzero;fill:rgb(59.607843%,80%,99.215686%);fill-opacity:1;" d="M 22.796875 23.074219 C 21.527344 22.976562 20.109375 22.578125 18.730469 21.925781 L 18.613281 21.871094 L 18.496094 21.917969 C 17.480469 22.304688 16.402344 22.5 15.300781 22.5 C 11 22.5 7.5 19.539062 7.5 15.898438 C 7.5 12.261719 11 9.300781 15.300781 9.300781 C 19.601562 9.300781 23.101562 12.261719 23.101562 15.898438 C 23.101562 17.417969 22.476562 18.902344 21.339844 20.074219 L 21.195312 20.226562 L 21.285156 20.414062 C 21.773438 21.433594 22.28125 22.328125 22.796875 23.074219 Z M 22.796875 23.074219 "/>
		<path style="stroke:none;fill-rule:nonzero;fill:rgb(27.843137%,53.333333%,78.039216%);fill-opacity:1;" d="M 15.300781 9.601562 C 19.4375 9.601562 22.800781 12.425781 22.800781 15.898438 C 22.800781 17.339844 22.203125 18.75 21.125 19.867188 L 20.832031 20.167969 L 21.015625 20.542969 C 21.398438 21.34375 21.792969 22.066406 22.195312 22.707031 C 21.128906 22.546875 19.980469 22.1875 18.855469 21.65625 L 18.625 21.546875 L 18.386719 21.636719 C 17.40625 22.011719 16.367188 22.199219 15.300781 22.199219 C 11.164062 22.199219 7.800781 19.375 7.800781 15.898438 C 7.800781 12.425781 11.164062 9.601562 15.300781 9.601562 M 15.300781 9 C 10.828125 9 7.199219 12.089844 7.199219 15.898438 C 7.199219 19.710938 10.828125 22.800781 15.300781 22.800781 C 16.476562 22.800781 17.59375 22.582031 18.601562 22.195312 C 20.128906 22.917969 21.84375 23.398438 23.398438 23.398438 C 22.695312 22.46875 22.078125 21.375 21.554688 20.285156 C 22.707031 19.09375 23.398438 17.566406 23.398438 15.898438 C 23.398438 12.089844 19.773438 9 15.300781 9 Z M 15.300781 9 "/>
		<path style="stroke:none;fill-rule:nonzero;fill:rgb(100%,100%,100%);fill-opacity:1;" d="M 16.222656 12.601562 L 14.433594 12.601562 L 12 19.199219 L 13.632812 19.199219 C 13.632812 19.199219 15.253906 13.972656 15.269531 13.777344 L 15.308594 13.777344 C 15.328125 14.007812 16.957031 19.199219 16.957031 19.199219 L 18.601562 19.199219 Z M 16.222656 12.601562 "/>
		<path style=" stroke:none;fill-rule:nonzero;fill:rgb(100%,100%,100%);fill-opacity:1;" d="M 13.199219 16.199219 L 17.398438 16.199219 L 17.398438 17.398438 L 13.199219 17.398438 Z M 13.199219 16.199219 "/>
		<path style=" stroke:none;fill-rule:nonzero;fill:rgb(87.45098%,94.117647%,99.607843%);fill-opacity:1;" d="M 1.203125 14.675781 C 1.71875 13.925781 2.226562 13.035156 2.714844 12.015625 L 2.804688 11.824219 L 2.660156 11.675781 C 1.523438 10.5 0.898438 9.015625 0.898438 7.5 C 0.898438 3.859375 4.398438 0.898438 8.699219 0.898438 C 13 0.898438 16.5 3.859375 16.5 7.5 C 16.5 11.140625 13 14.101562 8.699219 14.101562 C 7.597656 14.101562 6.519531 13.902344 5.503906 13.515625 L 5.386719 13.472656 L 5.269531 13.527344 C 3.890625 14.175781 2.472656 14.578125 1.203125 14.675781 Z M 1.203125 14.675781 "/>
		<path style="stroke:none;fill-rule:nonzero;fill:rgb(27.843137%,53.333333%,78.039216%);fill-opacity:1;" d="M 8.699219 1.199219 C 12.835938 1.199219 16.199219 4.027344 16.199219 7.5 C 16.199219 10.972656 12.835938 13.800781 8.699219 13.800781 C 7.632812 13.800781 6.59375 13.609375 5.613281 13.238281 L 5.375 13.144531 L 5.144531 13.253906 C 4.019531 13.785156 2.871094 14.144531 1.804688 14.304688 C 2.207031 13.667969 2.601562 12.945312 2.984375 12.144531 L 3.167969 11.765625 L 2.878906 11.464844 C 1.796875 10.347656 1.199219 8.941406 1.199219 7.5 C 1.199219 4.027344 4.5625 1.199219 8.699219 1.199219 M 8.699219 0.601562 C 4.226562 0.601562 0.601562 3.6875 0.601562 7.5 C 0.601562 9.164062 1.292969 10.691406 2.445312 11.882812 C 1.921875 12.972656 1.304688 14.070312 0.601562 15 C 2.15625 15 3.871094 14.519531 5.398438 13.796875 C 6.40625 14.179688 7.523438 14.398438 8.699219 14.398438 C 13.171875 14.398438 16.800781 11.3125 16.800781 7.5 C 16.800781 3.6875 13.171875 0.601562 8.699219 0.601562 Z M 8.699219 0.601562 "/>
		<path style="stroke:none;fill-rule:nonzero;fill:rgb(27.843137%,53.333333%,78.039216%);fill-opacity:1;" d="M 8.398438 4.800781 C 9.375 4.800781 10.199219 5.898438 10.199219 7.199219 C 10.199219 8.5 9.375 9.601562 8.398438 9.601562 C 7.425781 9.601562 6.601562 8.5 6.601562 7.199219 C 6.601562 5.898438 7.425781 4.800781 8.398438 4.800781 M 8.398438 3.601562 C 6.742188 3.601562 5.398438 5.210938 5.398438 7.199219 C 5.398438 9.1875 6.742188 10.800781 8.398438 10.800781 C 10.054688 10.800781 11.398438 9.1875 11.398438 7.199219 C 11.398438 5.210938 10.054688 3.601562 8.398438 3.601562 Z M 8.398438 3.601562 "/>
		<path style="stroke:none;fill-rule:nonzero;fill:rgb(27.843137%,53.333333%,78.039216%);fill-opacity:1;" d="M 8.398438 9.601562 L 10.199219 9.601562 L 12 11.398438 L 10.199219 11.398438 Z M 8.398438 9.601562 "/>
	</g>
</svg>