<?xml version="1.0" encoding="UTF-8"?>
<svg xmlns="http://www.w3.org/2000/svg" xmlns:xlink="http://www.w3.org/1999/xlink" viewBox="0 0 24 24" version="1.1">
	<g>
		<path style="stroke:none;fill-rule:nonzero;fill:rgb(87.45098%,94.117647%,99.607843%);fill-opacity:1;" d="M 2.101562 23.101562 L 2.101562 7.972656 L 12 2.148438 L 21.898438 7.972656 L 21.898438 23.101562 Z M 2.101562 23.101562 "/>
		<path style="stroke:none;fill-rule:nonzero;fill:rgb(27.843137%,53.333333%,78.039216%);fill-opacity:1;" d="M 12 2.496094 L 21.601562 8.144531 L 21.601562 22.800781 L 2.398438 22.800781 L 2.398438 8.144531 L 12 2.496094 M 12 1.800781 L 1.800781 7.800781 L 1.800781 23.398438 L 22.199219 23.398438 L 22.199219 7.800781 Z M 12 1.800781 "/>
		<path style="stroke:none;fill-rule:nonzero;fill:rgb(71.372549%,86.27451%,99.607843%);fill-opacity:1;" d="M 12 2.785156 L 0.898438 9.574219 L 0.898438 7.738281 L 12 0.953125 L 23.101562 7.738281 L 23.101562 9.574219 Z M 12 2.785156 "/>
		<path style="stroke:none;fill-rule:nonzero;fill:rgb(27.843137%,53.333333%,78.039216%);fill-opacity:1;" d="M 12 1.304688 L 22.800781 7.90625 L 22.800781 9.039062 L 12.3125 2.625 L 12 2.433594 L 11.683594 2.625 L 1.199219 9.039062 L 1.199219 7.90625 L 12 1.304688 M 12 0.601562 L 0.601562 7.570312 L 0.601562 10.109375 L 12 3.136719 L 23.398438 10.109375 L 23.398438 7.570312 Z M 12 0.601562 "/>
		<path style="stroke:none;fill-rule:nonzero;fill:rgb(71.372549%,86.27451%,99.607843%);fill-opacity:1;" d="M 8.699219 12.898438 L 15.300781 12.898438 L 15.300781 23.101562 L 8.699219 23.101562 Z M 8.699219 12.898438 "/>
		<path style="stroke:none;fill-rule:nonzero;fill:rgb(27.843137%,53.333333%,78.039216%);fill-opacity:1;" d="M 15 13.199219 L 15 22.800781 L 9 22.800781 L 9 13.199219 L 15 13.199219 M 15.601562 12.601562 L 8.398438 12.601562 L 8.398438 23.398438 L 15.601562 23.398438 Z M 15.601562 12.601562 "/>
		<path style="stroke:none;fill-rule:nonzero;fill:rgb(27.843137%,53.333333%,78.039216%);fill-opacity:1;" d="M 13.800781 18 C 13.46875 18 13.199219 18.269531 13.199219 18.601562 C 13.199219 18.929688 13.46875 19.199219 13.800781 19.199219 C 14.132812 19.199219 14.398438 18.929688 14.398438 18.601562 C 14.398438 18.269531 14.132812 18 13.800781 18 Z M 13.800781 18 "/>
	</g>
</svg>