<?xml version="1.0" encoding="UTF-8"?>
<svg xmlns="http://www.w3.org/2000/svg" xmlns:xlink="http://www.w3.org/1999/xlink" viewBox="0 0 24 24" version="1.1">
	<g>
		<path style="stroke:none;fill-rule:nonzero;fill:rgb(71.372549%,86.27451%,99.607843%);fill-opacity:1;" d="M 12 18.898438 C 10.839844 18.898438 9.898438 19.839844 9.898438 21 C 9.898438 22.160156 10.839844 23.101562 12 23.101562 C 13.160156 23.101562 14.101562 22.160156 14.101562 21 C 14.101562 19.839844 13.160156 18.898438 12 18.898438 Z M 12 18.898438 "/>
		<path style="stroke:none;fill-rule:nonzero;fill:rgb(27.843137%,53.333333%,78.039216%);fill-opacity:1;" d="M 12 19.199219 C 12.992188 19.199219 13.800781 20.007812 13.800781 21 C 13.800781 21.992188 12.992188 22.800781 12 22.800781 C 11.007812 22.800781 10.199219 21.992188 10.199219 21 C 10.199219 20.007812 11.007812 19.199219 12 19.199219 M 12 18.601562 C 10.675781 18.601562 9.601562 19.675781 9.601562 21 C 9.601562 22.324219 10.675781 23.398438 12 23.398438 C 13.324219 23.398438 14.398438 22.324219 14.398438 21 C 14.398438 19.675781 13.324219 18.601562 12 18.601562 Z M 12 18.601562 "/>
		<path style="stroke:none;fill-rule:nonzero;fill:rgb(87.45098%,94.117647%,99.607843%);fill-opacity:1;" d="M 3.300781 20.699219 L 3.300781 18.882812 C 4.648438 18.734375 5.699219 17.585938 5.699219 16.199219 L 5.699219 9 C 5.699219 6.199219 7.585938 3.707031 10.28125 2.945312 L 10.5 2.882812 L 10.5 2.398438 C 10.5 1.574219 11.171875 0.898438 12 0.898438 C 12.828125 0.898438 13.5 1.574219 13.5 2.398438 L 13.5 2.882812 L 13.71875 2.945312 C 16.414062 3.707031 18.300781 6.199219 18.300781 9 L 18.300781 16.199219 C 18.300781 17.585938 19.351562 18.734375 20.699219 18.882812 L 20.699219 20.699219 Z M 3.300781 20.699219 "/>
		<path style="stroke:none;fill-rule:nonzero;fill:rgb(27.843137%,53.333333%,78.039216%);fill-opacity:1;" d="M 12 1.199219 C 12.660156 1.199219 13.199219 1.738281 13.199219 2.398438 L 13.199219 3.109375 L 13.636719 3.230469 C 16.207031 3.960938 18 6.332031 18 9 L 18 16.199219 C 18 17.648438 19.03125 18.859375 20.398438 19.140625 L 20.398438 20.398438 L 3.601562 20.398438 L 3.601562 19.140625 C 4.96875 18.859375 6 17.648438 6 16.199219 L 6 9 C 6 6.332031 7.792969 3.960938 10.363281 3.230469 L 10.800781 3.109375 L 10.800781 2.398438 C 10.800781 1.738281 11.339844 1.199219 12 1.199219 M 12 0.601562 C 11.003906 0.601562 10.199219 1.40625 10.199219 2.398438 C 10.199219 2.460938 10.199219 2.550781 10.199219 2.65625 C 7.429688 3.4375 5.398438 5.980469 5.398438 9 L 5.398438 16.199219 C 5.398438 17.527344 4.324219 18.601562 3 18.601562 L 3 21 L 21 21 L 21 18.601562 C 19.675781 18.601562 18.601562 17.527344 18.601562 16.199219 L 18.601562 9 C 18.601562 5.980469 16.570312 3.4375 13.800781 2.65625 C 13.800781 2.550781 13.800781 2.460938 13.800781 2.398438 C 13.800781 1.40625 12.996094 0.601562 12 0.601562 Z M 12 0.601562 "/>
	</g>
</svg>