<?xml version="1.0" encoding="UTF-8"?>
<svg xmlns="http://www.w3.org/2000/svg" xmlns:xlink="http://www.w3.org/1999/xlink" viewBox="0 0 24 24" version="1.1">
    <g>
        <path style="stroke:none;fill-rule:nonzero;fill:rgb(59.607843%,80%,99.215686%);fill-opacity:1;" d="M 2.097656 23.101562 C 1.777344 23.101562 1.476562 22.976562 1.25 22.75 C 1.023438 22.523438 0.898438 22.222656 0.898438 21.902344 C 0.898438 21.582031 1.023438 21.277344 1.25 21.050781 L 12.191406 10.621094 L 13.378906 11.8125 L 2.941406 22.753906 C 2.722656 22.976562 2.417969 23.101562 2.097656 23.101562 Z M 2.097656 23.101562 "/>
        <path style="stroke:none;fill-rule:nonzero;fill:rgb(27.843137%,53.333333%,78.039216%);fill-opacity:1;" d="M 12.1875 11.042969 L 12.960938 11.820312 L 2.734375 22.535156 C 2.566406 22.707031 2.339844 22.800781 2.097656 22.800781 C 1.859375 22.800781 1.632812 22.707031 1.464844 22.535156 C 1.113281 22.1875 1.113281 21.617188 1.453125 21.273438 L 12.1875 11.042969 M 12.195312 10.203125 L 1.039062 20.839844 C 0.453125 21.425781 0.453125 22.375 1.039062 22.960938 C 1.332031 23.253906 1.714844 23.398438 2.097656 23.398438 C 2.484375 23.398438 2.867188 23.253906 3.160156 22.960938 L 13.800781 11.808594 Z M 12.195312 10.203125 "/>
        <path style="stroke:none;fill-rule:nonzero;fill:rgb(87.45098%,94.117647%,99.607843%);fill-opacity:1;" d="M 15.601562 15.898438 C 11.464844 15.898438 8.101562 12.535156 8.101562 8.398438 C 8.101562 4.265625 11.464844 0.898438 15.601562 0.898438 C 19.734375 0.898438 23.101562 4.265625 23.101562 8.398438 C 23.101562 12.535156 19.734375 15.898438 15.601562 15.898438 Z M 15.601562 15.898438 "/>
        <path style="stroke:none;fill-rule:nonzero;fill:rgb(27.843137%,53.333333%,78.039216%);fill-opacity:1;" d="M 15.601562 1.199219 C 19.570312 1.199219 22.800781 4.429688 22.800781 8.398438 C 22.800781 12.371094 19.570312 15.601562 15.601562 15.601562 C 11.628906 15.601562 8.398438 12.371094 8.398438 8.398438 C 8.398438 4.429688 11.628906 1.199219 15.601562 1.199219 M 15.601562 0.601562 C 11.292969 0.601562 7.800781 4.09375 7.800781 8.398438 C 7.800781 12.707031 11.292969 16.199219 15.601562 16.199219 C 19.90625 16.199219 23.398438 12.707031 23.398438 8.398438 C 23.398438 4.09375 19.90625 0.601562 15.601562 0.601562 Z M 15.601562 0.601562 "/>
    </g>
</svg>
