<?xml version="1.0" encoding="UTF-8"?>
<svg xmlns="http://www.w3.org/2000/svg" xmlns:xlink="http://www.w3.org/1999/xlink" viewBox="0 0 24 24" version="1.1">
	<g>
		<path style="stroke:none;fill-rule:nonzero;fill:rgb(71.372549%,86.27451%,99.607843%);fill-opacity:1;" d="M 10.605469 23.101562 L 9.929688 20.398438 L 9.761719 20.355469 C 8.285156 19.960938 6.941406 19.1875 5.875 18.121094 L 5.75 17.996094 L 3.085938 18.757812 L 1.691406 16.34375 L 3.691406 14.40625 L 3.644531 14.238281 C 3.445312 13.484375 3.34375 12.730469 3.34375 12 C 3.34375 11.269531 3.445312 10.515625 3.644531 9.761719 L 3.691406 9.59375 L 1.691406 7.65625 L 3.085938 5.242188 L 5.75 6.003906 L 5.875 5.878906 C 6.941406 4.8125 8.285156 4.039062 9.757812 3.644531 L 9.929688 3.601562 L 10.605469 0.898438 L 13.394531 0.898438 L 14.070312 3.601562 L 14.238281 3.644531 C 15.714844 4.039062 17.054688 4.8125 18.121094 5.878906 L 18.246094 6.003906 L 20.914062 5.242188 L 22.308594 7.65625 L 20.308594 9.59375 L 20.355469 9.761719 C 20.554688 10.515625 20.65625 11.265625 20.65625 12 C 20.65625 12.730469 20.554688 13.484375 20.355469 14.238281 L 20.308594 14.40625 L 22.308594 16.34375 L 20.914062 18.757812 L 18.25 17.996094 L 18.125 18.121094 C 17.058594 19.1875 15.714844 19.960938 14.238281 20.355469 L 14.070312 20.398438 L 13.394531 23.101562 Z M 12 7.222656 C 9.363281 7.222656 7.222656 9.367188 7.222656 12 C 7.222656 14.632812 9.367188 16.777344 12 16.777344 C 14.632812 16.777344 16.777344 14.632812 16.777344 12 C 16.777344 9.367188 14.636719 7.222656 12 7.222656 Z M 12 7.222656 "/>
		<path style="stroke:none;fill-rule:nonzero;fill:rgb(27.843137%,53.333333%,78.039216%);fill-opacity:1;" d="M 13.160156 1.199219 L 13.734375 3.503906 L 13.820312 3.84375 L 14.164062 3.9375 C 15.585938 4.316406 16.882812 5.0625 17.910156 6.09375 L 18.160156 6.34375 L 18.5 6.246094 L 20.773438 5.59375 L 21.933594 7.605469 L 20.226562 9.253906 L 19.972656 9.5 L 20.066406 9.839844 C 20.257812 10.566406 20.355469 11.292969 20.355469 12 C 20.355469 12.707031 20.257812 13.433594 20.066406 14.160156 L 19.972656 14.5 L 20.226562 14.746094 L 21.933594 16.394531 L 20.773438 18.40625 L 18.5 17.753906 L 18.160156 17.65625 L 17.910156 17.90625 C 16.882812 18.9375 15.585938 19.683594 14.164062 20.0625 L 13.820312 20.15625 L 13.734375 20.496094 L 13.160156 22.800781 L 10.839844 22.800781 L 10.265625 20.496094 L 10.179688 20.15625 L 9.835938 20.0625 C 8.414062 19.683594 7.117188 18.9375 6.089844 17.90625 L 5.839844 17.65625 L 5.5 17.753906 L 3.226562 18.40625 L 2.066406 16.394531 L 3.773438 14.746094 L 4.027344 14.5 L 3.933594 14.160156 C 3.742188 13.433594 3.644531 12.707031 3.644531 12 C 3.644531 11.292969 3.742188 10.566406 3.933594 9.839844 L 4.027344 9.5 L 3.773438 9.253906 L 2.066406 7.605469 L 3.226562 5.59375 L 5.5 6.246094 L 5.839844 6.34375 L 6.089844 6.09375 C 7.117188 5.0625 8.414062 4.316406 9.835938 3.9375 L 10.179688 3.84375 L 10.265625 3.503906 L 10.839844 1.199219 L 13.160156 1.199219 M 12 17.078125 C 14.800781 17.078125 17.078125 14.800781 17.078125 12 C 17.078125 9.199219 14.800781 6.921875 12 6.921875 C 9.199219 6.921875 6.921875 9.199219 6.921875 12 C 6.921875 14.800781 9.199219 17.078125 12 17.078125 M 13.628906 0.601562 L 10.371094 0.601562 L 9.679688 3.355469 C 8.140625 3.769531 6.757812 4.574219 5.664062 5.667969 L 2.941406 4.890625 L 1.3125 7.710938 L 3.355469 9.683594 C 3.160156 10.425781 3.042969 11.199219 3.042969 12 C 3.042969 12.800781 3.15625 13.574219 3.355469 14.3125 L 1.3125 16.289062 L 2.941406 19.109375 L 5.664062 18.332031 C 6.757812 19.425781 8.140625 20.230469 9.683594 20.644531 L 10.371094 23.398438 L 13.628906 23.398438 L 14.316406 20.644531 C 15.859375 20.230469 17.242188 19.425781 18.335938 18.332031 L 21.058594 19.109375 L 22.6875 16.289062 L 20.644531 14.316406 C 20.839844 13.574219 20.957031 12.800781 20.957031 12 C 20.957031 11.199219 20.84375 10.425781 20.644531 9.6875 L 22.6875 7.710938 L 21.058594 4.890625 L 18.335938 5.667969 C 17.242188 4.574219 15.859375 3.769531 14.320312 3.359375 Z M 12 16.476562 C 9.527344 16.476562 7.523438 14.472656 7.523438 12 C 7.523438 9.527344 9.527344 7.523438 12 7.523438 C 14.472656 7.523438 16.476562 9.527344 16.476562 12 C 16.476562 14.472656 14.472656 16.476562 12 16.476562 Z M 12 16.476562 "/>
		<path style="stroke:none;fill-rule:nonzero;fill:rgb(87.45098%,94.117647%,99.607843%);fill-opacity:1;" d="M 12 18.300781 C 8.527344 18.300781 5.699219 15.472656 5.699219 12 C 5.699219 8.527344 8.527344 5.699219 12 5.699219 C 15.472656 5.699219 18.300781 8.527344 18.300781 12 C 18.300781 15.472656 15.472656 18.300781 12 18.300781 Z M 12 9.300781 C 10.511719 9.300781 9.300781 10.511719 9.300781 12 C 9.300781 13.488281 10.511719 14.699219 12 14.699219 C 13.488281 14.699219 14.699219 13.488281 14.699219 12 C 14.699219 10.511719 13.488281 9.300781 12 9.300781 Z M 12 9.300781 "/>
		<path style="stroke:none;fill-rule:nonzero;fill:rgb(27.843137%,53.333333%,78.039216%);fill-opacity:1;" d="M 12 6 C 15.308594 6 18 8.691406 18 12 C 18 15.308594 15.308594 18 12 18 C 8.691406 18 6 15.308594 6 12 C 6 8.691406 8.691406 6 12 6 M 12 15 C 13.652344 15 15 13.652344 15 12 C 15 10.347656 13.652344 9 12 9 C 10.347656 9 9 10.347656 9 12 C 9 13.652344 10.347656 15 12 15 M 12 5.398438 C 8.355469 5.398438 5.398438 8.355469 5.398438 12 C 5.398438 15.644531 8.355469 18.601562 12 18.601562 C 15.644531 18.601562 18.601562 15.644531 18.601562 12 C 18.601562 8.355469 15.644531 5.398438 12 5.398438 Z M 12 14.398438 C 10.675781 14.398438 9.601562 13.324219 9.601562 12 C 9.601562 10.675781 10.675781 9.601562 12 9.601562 C 13.324219 9.601562 14.398438 10.675781 14.398438 12 C 14.398438 13.324219 13.324219 14.398438 12 14.398438 Z M 12 14.398438 "/>
	</g>
</svg>