<?xml version="1.0" encoding="UTF-8"?>
<svg xmlns="http://www.w3.org/2000/svg" xmlns:xlink="http://www.w3.org/1999/xlink" viewBox="0 0 24 24" version="1.1">
	<g>
		<path style="stroke:none;fill-rule:nonzero;fill:rgb(100%,100%,100%);fill-opacity:1;" d="M 1.5 6.601562 L 22.5 6.601562 L 22.5 23.101562 L 1.5 23.101562 Z M 1.5 6.601562 "/>
		<path style="stroke:none;fill-rule:nonzero;fill:rgb(27.843137%,53.333333%,78.039216%);fill-opacity:1;" d="M 22.199219 6.898438 L 22.199219 22.800781 L 1.800781 22.800781 L 1.800781 6.898438 L 22.199219 6.898438 M 22.800781 6.300781 L 1.199219 6.300781 L 1.199219 23.398438 L 22.800781 23.398438 Z M 22.800781 6.300781 "/>
		<path style="stroke:none;fill-rule:nonzero;fill:rgb(71.372549%,86.27451%,99.607843%);fill-opacity:1;" d="M 12.898438 12.898438 L 19.5 12.898438 L 19.5 23.101562 L 12.898438 23.101562 Z M 12.898438 12.898438 "/>
		<path style="stroke:none;fill-rule:nonzero;fill:rgb(27.843137%,53.333333%,78.039216%);fill-opacity:1;" d="M 19.199219 13.199219 L 19.199219 22.800781 L 13.199219 22.800781 L 13.199219 13.199219 L 19.199219 13.199219 M 19.800781 12.601562 L 12.601562 12.601562 L 12.601562 23.398438 L 19.800781 23.398438 Z M 19.800781 12.601562 "/>
		<path style="stroke:none;fill-rule:nonzero;fill:rgb(71.372549%,86.27451%,99.607843%);fill-opacity:1;" d="M 4.5 12.898438 L 9.898438 12.898438 L 9.898438 17.699219 L 4.5 17.699219 Z M 4.5 12.898438 "/>
		<path style="stroke:none;fill-rule:nonzero;fill:rgb(27.843137%,53.333333%,78.039216%);fill-opacity:1;" d="M 9.601562 13.199219 L 9.601562 17.398438 L 4.800781 17.398438 L 4.800781 13.199219 L 9.601562 13.199219 M 10.199219 12.601562 L 4.199219 12.601562 L 4.199219 18 L 10.199219 18 Z M 10.199219 12.601562 "/>
		<path style="stroke:none;fill-rule:nonzero;fill:rgb(71.372549%,86.27451%,99.607843%);fill-opacity:1;" d="M 21.601562 11.101562 C 20.441406 11.101562 19.5 10.15625 19.5 9 C 19.5 8.835938 19.367188 8.699219 19.199219 8.699219 C 19.035156 8.699219 18.898438 8.835938 18.898438 9 C 18.898438 10.15625 17.957031 11.101562 16.800781 11.101562 C 15.640625 11.101562 14.699219 10.15625 14.699219 9 C 14.699219 8.835938 14.566406 8.699219 14.398438 8.699219 C 14.234375 8.699219 14.101562 8.835938 14.101562 9 C 14.101562 10.15625 13.15625 11.101562 12 11.101562 C 10.84375 11.101562 9.898438 10.15625 9.898438 9 C 9.898438 8.835938 9.765625 8.699219 9.601562 8.699219 C 9.433594 8.699219 9.300781 8.835938 9.300781 9 C 9.300781 10.15625 8.359375 11.101562 7.199219 11.101562 C 6.042969 11.101562 5.101562 10.15625 5.101562 9 C 5.101562 8.835938 4.964844 8.699219 4.800781 8.699219 C 4.632812 8.699219 4.5 8.835938 4.5 9 C 4.5 10.15625 3.558594 11.101562 2.398438 11.101562 C 2.332031 11.101562 2.261719 11.097656 2.191406 11.089844 C 1.132812 10.988281 0.300781 10.027344 0.300781 8.898438 L 0.300781 6.675781 L 2.0625 3.398438 C 2.085938 3.355469 2.101562 3.304688 2.101562 3.257812 L 2.101562 1.800781 C 2.101562 1.304688 2.503906 0.898438 3 0.898438 L 21 0.898438 C 21.496094 0.898438 21.898438 1.304688 21.898438 1.800781 L 21.898438 3.257812 C 21.898438 3.304688 21.914062 3.355469 21.9375 3.398438 L 23.699219 6.675781 L 23.699219 8.898438 C 23.699219 10.027344 22.867188 10.988281 21.808594 11.089844 C 21.738281 11.097656 21.667969 11.101562 21.601562 11.101562 Z M 21.601562 11.101562 "/>
		<path style="stroke:none;fill-rule:nonzero;fill:rgb(27.843137%,53.333333%,78.039216%);fill-opacity:1;" d="M 21 1.199219 C 21.332031 1.199219 21.601562 1.46875 21.601562 1.800781 L 21.601562 3.257812 C 21.601562 3.355469 21.625 3.453125 21.671875 3.539062 L 23.398438 6.75 L 23.398438 8.898438 C 23.398438 9.871094 22.6875 10.703125 21.777344 10.792969 C 21.71875 10.796875 21.660156 10.800781 21.601562 10.800781 C 20.609375 10.800781 19.800781 9.992188 19.800781 9 C 19.800781 8.667969 19.53125 8.398438 19.199219 8.398438 C 18.867188 8.398438 18.601562 8.667969 18.601562 9 C 18.601562 9.992188 17.792969 10.800781 16.800781 10.800781 C 15.808594 10.800781 15 9.992188 15 9 C 15 8.667969 14.730469 8.398438 14.398438 8.398438 C 14.070312 8.398438 13.800781 8.667969 13.800781 9 C 13.800781 9.992188 12.992188 10.800781 12 10.800781 C 11.007812 10.800781 10.199219 9.992188 10.199219 9 C 10.199219 8.667969 9.929688 8.398438 9.601562 8.398438 C 9.269531 8.398438 9 8.667969 9 9 C 9 9.992188 8.191406 10.800781 7.199219 10.800781 C 6.207031 10.800781 5.398438 9.992188 5.398438 9 C 5.398438 8.667969 5.132812 8.398438 4.800781 8.398438 C 4.46875 8.398438 4.199219 8.667969 4.199219 9 C 4.199219 9.992188 3.390625 10.800781 2.398438 10.800781 C 2.339844 10.800781 2.28125 10.796875 2.222656 10.792969 C 1.3125 10.703125 0.601562 9.871094 0.601562 8.898438 L 0.601562 6.75 L 2.328125 3.539062 C 2.375 3.453125 2.398438 3.355469 2.398438 3.257812 L 2.398438 1.800781 C 2.398438 1.46875 2.667969 1.199219 3 1.199219 L 21 1.199219 M 21 0.601562 L 3 0.601562 C 2.335938 0.601562 1.800781 1.136719 1.800781 1.800781 L 1.800781 3.257812 L 0 6.601562 L 0 8.898438 C 0 10.148438 0.917969 11.269531 2.164062 11.386719 C 2.242188 11.394531 2.324219 11.398438 2.398438 11.398438 C 3.726562 11.398438 4.800781 10.324219 4.800781 9 C 4.800781 10.324219 5.875 11.398438 7.199219 11.398438 C 8.527344 11.398438 9.601562 10.324219 9.601562 9 C 9.601562 10.324219 10.675781 11.398438 12 11.398438 C 13.324219 11.398438 14.398438 10.324219 14.398438 9 C 14.398438 10.324219 15.472656 11.398438 16.800781 11.398438 C 18.125 11.398438 19.199219 10.324219 19.199219 9 C 19.199219 10.324219 20.273438 11.398438 21.601562 11.398438 C 21.679688 11.398438 21.757812 11.394531 21.835938 11.386719 C 23.082031 11.269531 24 10.148438 24 8.898438 L 24 6.601562 L 22.199219 3.257812 L 22.199219 1.800781 C 22.199219 1.136719 21.664062 0.601562 21 0.601562 Z M 21 0.601562 "/>
		<path style="stroke:none;fill-rule:nonzero;fill:rgb(27.843137%,53.333333%,78.039216%);fill-opacity:1;" d="M 1.800781 3 L 22.199219 3 L 22.199219 3.601562 L 1.800781 3.601562 Z M 1.800781 3 "/>
		<path style="stroke:none;fill-rule:nonzero;fill:rgb(87.45098%,94.117647%,99.607843%);fill-opacity:1;" d="M 0.679688 6.601562 L 23.320312 6.601562 L 21.703125 3.601562 L 2.296875 3.601562 Z M 0.679688 6.601562 "/>
		<path style="stroke:none;fill-rule:nonzero;fill:rgb(27.843137%,53.333333%,78.039216%);fill-opacity:1;" d="M 0 6.601562 L 24 6.601562 L 24 7.199219 L 0 7.199219 Z M 17.699219 17.398438 C 17.367188 17.398438 17.101562 17.667969 17.101562 18 C 17.101562 18.332031 17.367188 18.601562 17.699219 18.601562 C 18.03125 18.601562 18.300781 18.332031 18.300781 18 C 18.300781 17.667969 18.03125 17.398438 17.699219 17.398438 Z M 17.699219 17.398438 "/>
	</g>
</svg>