<?xml version="1.0" encoding="UTF-8"?>
<svg xmlns="http://www.w3.org/2000/svg" xmlns:xlink="http://www.w3.org/1999/xlink" viewBox="0 0 24 24" version="1.1">
    <g>
        <path d="M 12 3 C 9.792969 3 8 4.792969 8 7 C 8 9.207031 9.792969 11 12 11 C 14.207031 11 16 9.207031 16 7 C 16 4.792969 14.207031 3 12 3 Z M 12 5 C 13.101562 5 14 5.898438 14 7 C 14 8.101562 13.101562 9 12 9 C 10.898438 9 10 8.101562 10 7 C 10 5.898438 10.898438 5 12 5 Z M 9.4375 14.265625 C 6.457031 14.816406 3 16.226562 3 18.5 L 3 21 L 21 21 L 21 18.5 C 21 16.226562 17.542969 14.8125 14.5625 14.265625 L 12 16.828125 Z M 8.792969 16.449219 L 11.34375 19 L 5 19 L 5 18.5 C 5 18.070312 6.300781 17.074219 8.792969 16.449219 Z M 15.207031 16.449219 C 17.699219 17.074219 19 18.070312 19 18.5 L 19 19 L 12.65625 19 Z M 15.207031 16.449219"/>
    </g>
</svg>
