<?xml version="1.0" encoding="UTF-8"?>
<svg xmlns="http://www.w3.org/2000/svg" xmlns:xlink="http://www.w3.org/1999/xlink" viewBox="0 0 24 24" version="1.1">
    <g>
        <path d="M 2 3 L 2 18 C 2 19.644531 3.355469 21 5 21 L 19 21 C 20.644531 21 22 19.644531 22 18 L 22 7 L 20 7 L 20 18 C 20 18.566406 19.566406 19 19 19 C 18.433594 19 18 18.566406 18 18 L 18 3 Z M 4 5 L 16 5 L 16 18 C 16 18.386719 16.277344 18.65625 16.417969 19 L 5 19 C 4.433594 19 4 18.566406 4 18 Z M 6 7 L 6 10 L 14 10 L 14 7 Z M 6 12 L 6 14 L 14 14 L 14 12 Z M 6 16 L 6 18 L 14 18 L 14 16 Z M 6 16"/>
    </g>
</svg>
