<?xml version="1.0" encoding="UTF-8"?>
<svg xmlns="http://www.w3.org/2000/svg" xmlns:xlink="http://www.w3.org/1999/xlink" viewBox="0 0 24 24" version="1.1">
    <g>
        <path d="M 4.414062 1.996094 L 1.003906 2.015625 L 1.015625 4.015625 L 3.085938 4.003906 L 6.378906 11.90625 L 5.179688 13.824219 C 4.78125 14.464844 4.761719 15.273438 5.125 15.933594 C 5.492188 16.589844 6.1875 17 6.941406 17 L 19 17 L 19 15 L 6.941406 15 L 6.875 14.882812 L 8.054688 13 L 15.519531 13 C 16.25 13 16.917969 12.605469 17.269531 11.96875 L 20.875 5.484375 C 21.046875 5.175781 21.042969 4.796875 20.859375 4.492188 C 20.679688 4.1875 20.351562 4 20 4 L 5.25 4 Z M 6.082031 6 L 18.296875 6 L 15.519531 11 L 8.164062 11 Z M 7 18 C 5.894531 18 5 18.894531 5 20 C 5 21.105469 5.894531 22 7 22 C 8.105469 22 9 21.105469 9 20 C 9 18.894531 8.105469 18 7 18 Z M 17 18 C 15.894531 18 15 18.894531 15 20 C 15 21.105469 15.894531 22 17 22 C 18.105469 22 19 21.105469 19 20 C 19 18.894531 18.105469 18 17 18 Z M 17 18"/>
    </g>
</svg>
