<?xml version="1.0" encoding="UTF-8"?>
<svg xmlns="http://www.w3.org/2000/svg" xmlns:xlink="http://www.w3.org/1999/xlink" viewBox="0 0 24 24" version="1.1">
    <g>
        <path d="M 13 1 L 13 4 L 9 4 L 9 6 L 13 6 L 13 9 L 17 5 Z M 5.414062 1.996094 L 2.003906 2.015625 L 2.015625 4.015625 L 4.085938 4.003906 L 7.378906 11.90625 L 6.179688 13.824219 C 5.78125 14.464844 5.761719 15.273438 6.125 15.933594 C 6.492188 16.589844 7.1875 17 7.941406 17 L 20 17 L 20 15 L 7.941406 15 L 7.875 14.882812 L 9.054688 13 L 16.519531 13 C 17.25 13 17.917969 12.605469 18.269531 11.972656 L 22.382812 4.566406 L 20.636719 3.59375 L 16.519531 11 L 9.164062 11 Z M 8 18 C 6.894531 18 6 18.894531 6 20 C 6 21.105469 6.894531 22 8 22 C 9.105469 22 10 21.105469 10 20 C 10 18.894531 9.105469 18 8 18 Z M 18 18 C 16.894531 18 16 18.894531 16 20 C 16 21.105469 16.894531 22 18 22 C 19.105469 22 20 21.105469 20 20 C 20 18.894531 19.105469 18 18 18 Z M 18 18"/>
    </g>
</svg>
