<?xml version="1.0" encoding="UTF-8"?>
<svg xmlns="http://www.w3.org/2000/svg" xmlns:xlink="http://www.w3.org/1999/xlink" viewBox="0 0 24 24" version="1.1">
    <g id="surface1">
        <path d="M 4 2 C 2.90625 2 2 2.90625 2 4 L 2 11 C 2 12.09375 2.90625 13 4 13 L 7 13 L 7 20 C 7 21.09375 7.90625 22 9 22 L 19 22 C 20.09375 22 21 21.09375 21 20 L 21 13 C 21 11.90625 20.09375 11 19 11 L 16 11 L 16 4 C 16 2.90625 15.09375 2 14 2 Z M 4 4 L 14 4 L 14 11 L 4 11 Z M 8.421875 5 L 5 9.242188 L 5 10 L 7 10 L 7 9.945312 L 7.765625 9 L 10.234375 9 L 11 9.945312 L 11 10 L 13 10 L 13 9.242188 L 9.574219 5 Z M 9 7.46875 L 9.429688 8 L 8.570312 8 Z M 9 13 L 19 13 L 19 20 L 9 20 Z M 13 14 C 11.90625 14 11 14.90625 11 16 L 11 17 C 11 18.09375 11.90625 19 13 19 L 15.585938 19 L 16.292969 19.707031 L 17.707031 18.292969 L 17 17.585938 L 17 16 C 17 14.90625 16.09375 14 15 14 Z M 13 16 L 15 16 L 15 17 L 13 17 Z M 13 16"/>
    </g>
</svg>
