<?xml version="1.0" encoding="UTF-8"?>
<svg xmlns="http://www.w3.org/2000/svg" xmlns:xlink="http://www.w3.org/1999/xlink" viewBox="0 0 24 24" version="1.1">
    <g>
        <path d="M 12 2 C 11.171875 2 10.5 2.671875 10.5 3.5 L 10.5 4.195312 C 7.914062 4.863281 6 7.203125 6 10 L 6 16 L 4 18 L 4 19 L 10.269531 19 C 10.09375 19.304688 10 19.648438 10 20 C 10 21.105469 10.894531 22 12 22 C 13.105469 22 14 21.105469 14 20 C 14 19.648438 13.90625 19.304688 13.730469 19 L 20 19 L 20 18 L 18 16 L 18 10 C 18 7.203125 16.085938 4.863281 13.5 4.195312 L 13.5 3.5 C 13.5 2.671875 12.828125 2 12 2 Z M 12 6 C 14.207031 6 16 7.792969 16 10 L 16 16.828125 L 16.171875 17 L 7.828125 17 L 8 16.828125 L 8 10 C 8 7.792969 9.792969 6 12 6 Z M 12 6"/>
    </g>
</svg>
