<?xml version="1.0" encoding="UTF-8"?>
<svg xmlns="http://www.w3.org/2000/svg" xmlns:xlink="http://www.w3.org/1999/xlink" viewBox="0 0 24 24" version="1.1">
    <g>
        <path d="M 4 3 L 4 7 L 2 11 L 2 13 L 3 13 L 3 19 C 3 20.105469 3.894531 21 5 21 L 19 21 C 20.105469 21 21 20.105469 21 19 L 21 13 L 22 13 L 22 11 L 20 7 L 20 3 Z M 6 5 L 18 5 L 18 7 L 6 7 Z M 5.234375 9 L 18.765625 9 L 19.765625 11 L 4.234375 11 Z M 5 13 L 7 13 L 7 17 L 13 17 L 13 13 L 15 13 L 15 19 L 5 19 Z M 9 13 L 11 13 L 11 15 L 9 15 Z M 17 13 L 19 13 L 19 19 L 17 19 Z M 17 13"/>
    </g>
</svg>
