<?xml version="1.0" encoding="UTF-8"?>
<svg xmlns="http://www.w3.org/2000/svg" xmlns:xlink="http://www.w3.org/1999/xlink" viewBox="0 0 24 24" version="1.1">
    <g>
        <path d="M 12 3.75 C 9.109375 3.75 6.75 6.109375 6.75 9 C 6.75 10.808594 7.671875 12.414062 9.070312 13.359375 C 6.394531 14.507812 4.5 17.164062 4.5 20.25 L 6 20.25 C 6 18.351562 6.878906 16.660156 8.25 15.5625 L 11.484375 18.539062 L 12 19.03125 L 12.515625 18.539062 L 15.75 15.5625 C 17.121094 16.660156 18 18.351562 18 20.25 L 19.5 20.25 C 19.5 17.164062 17.605469 14.507812 14.929688 13.359375 C 16.328125 12.414062 17.25 10.808594 17.25 9 C 17.25 6.109375 14.890625 3.75 12 3.75 Z M 12 5.25 C 14.082031 5.25 15.75 6.921875 15.75 9 C 15.75 11.082031 14.082031 12.75 12 12.75 C 9.921875 12.75 8.25 11.082031 8.25 9 C 8.25 6.921875 9.921875 5.25 12 5.25 Z M 12 14.25 C 12.859375 14.25 13.679688 14.421875 14.414062 14.742188 L 12 16.992188 L 9.585938 14.742188 C 10.320312 14.421875 11.140625 14.25 12 14.25 Z M 12 14.25"/>
    </g>
</svg>
