<?xml version="1.0" encoding="UTF-8"?>
<svg xmlns="http://www.w3.org/2000/svg" xmlns:xlink="http://www.w3.org/1999/xlink" viewBox="0 0 24 24" version="1.1">
    <g>
        <path d="M 2.25 3.75 L 2.25 17.25 C 2.25 18.910156 3.59375 20.25 5.25 20.25 L 18.75 20.25 C 20.410156 20.25 21.75 18.910156 21.75 17.25 L 21.75 9 L 17.25 9 L 17.25 3.75 Z M 3.75 5.25 L 15.75 5.25 L 15.75 17.25 C 15.75 17.796875 15.917969 18.308594 16.171875 18.75 L 5.25 18.75 C 4.355469 18.75 3.75 18.144531 3.75 17.25 Z M 5.25 6.75 L 5.25 10.5 L 14.25 10.5 L 14.25 6.75 Z M 6.75 8.25 L 12.75 8.25 L 12.75 9 L 6.75 9 Z M 17.25 10.5 L 20.25 10.5 L 20.25 17.25 C 20.25 18.144531 19.644531 18.75 18.75 18.75 C 17.855469 18.75 17.25 18.144531 17.25 17.25 Z M 5.25 11.25 L 5.25 12.75 L 9 12.75 L 9 11.25 Z M 10.5 11.25 L 10.5 12.75 L 14.25 12.75 L 14.25 11.25 Z M 5.25 13.5 L 5.25 15 L 9 15 L 9 13.5 Z M 10.5 13.5 L 10.5 15 L 14.25 15 L 14.25 13.5 Z M 5.25 15.75 L 5.25 17.25 L 9 17.25 L 9 15.75 Z M 10.5 15.75 L 10.5 17.25 L 14.25 17.25 L 14.25 15.75 Z M 10.5 15.75"/>
    </g>
</svg>
