<?xml version="1.0" encoding="UTF-8"?>
<svg xmlns="http://www.w3.org/2000/svg" xmlns:xlink="http://www.w3.org/1999/xlink" viewBox="0 0 24 24" version="1.1">
    <g>
        <path d="M 3 5.25 C 2.585938 5.25 2.25 5.585938 2.25 6 C 2.25 6.414062 2.585938 6.75 3 6.75 L 4.664062 6.75 L 6.632812 14.625 C 6.800781 15.292969 7.398438 15.75 8.085938 15.75 L 17.4375 15.75 C 18.113281 15.75 18.6875 15.300781 18.867188 14.648438 L 20.8125 7.5 L 19.242188 7.5 L 17.4375 14.25 L 8.085938 14.25 L 6.117188 6.375 C 5.949219 5.707031 5.351562 5.25 4.664062 5.25 Z M 16.5 15.75 C 15.265625 15.75 14.25 16.765625 14.25 18 C 14.25 19.234375 15.265625 20.25 16.5 20.25 C 17.734375 20.25 18.75 19.234375 18.75 18 C 18.75 16.765625 17.734375 15.75 16.5 15.75 Z M 9.75 15.75 C 8.515625 15.75 7.5 16.765625 7.5 18 C 7.5 19.234375 8.515625 20.25 9.75 20.25 C 10.984375 20.25 12 19.234375 12 18 C 12 16.765625 10.984375 15.75 9.75 15.75 Z M 13.5 6 L 13.5 8.25 L 9.75 8.25 L 9.75 9.75 L 13.5 9.75 L 13.5 12 L 16.5 9 Z M 9.75 17.25 C 10.171875 17.25 10.5 17.578125 10.5 18 C 10.5 18.421875 10.171875 18.75 9.75 18.75 C 9.328125 18.75 9 18.421875 9 18 C 9 17.578125 9.328125 17.25 9.75 17.25 Z M 16.5 17.25 C 16.921875 17.25 17.25 17.578125 17.25 18 C 17.25 18.421875 16.921875 18.75 16.5 18.75 C 16.078125 18.75 15.75 18.421875 15.75 18 C 15.75 17.578125 16.078125 17.25 16.5 17.25 Z M 16.5 17.25"/>
    </g>
</svg>
