<?xml version="1.0" encoding="UTF-8"?>
<svg xmlns="http://www.w3.org/2000/svg" xmlns:xlink="http://www.w3.org/1999/xlink" viewBox="0 0 24 24" version="1.1">
    <g>
        <path d="M 3 3 L 3 4.5 L 0.84375 4.5 L 1.617188 5.671875 L 3 7.734375 L 3 14.25 L 7.5 14.25 L 7.5 21 L 21 21 L 21 15.234375 L 22.382812 13.171875 L 23.15625 12 L 21 12 L 21 10.5 L 17.25 10.5 L 17.25 3 Z M 4.5 4.5 L 15.75 4.5 L 15.75 12.75 L 4.5 12.75 L 4.5 7.265625 L 4.382812 7.078125 L 3.65625 6 L 4.5 6 Z M 9.75 6 C 8.515625 6 7.5 7.015625 7.5 8.25 C 7.5 9.484375 8.515625 10.5 9.75 10.5 L 10.5 10.5 L 10.5 12 L 12 12 L 12 6 Z M 9.75 7.5 L 10.5 7.5 L 10.5 9 L 9.75 9 C 9.335938 9 9 8.667969 9 8.25 C 9 7.835938 9.335938 7.5 9.75 7.5 Z M 17.25 12 L 19.5 12 L 19.5 13.5 L 20.34375 13.5 L 19.617188 14.578125 L 19.5 14.765625 L 19.5 19.5 L 9 19.5 L 9 14.25 L 12.867188 14.25 L 11.25 18 L 12.75 18 L 13.078125 17.25 L 15.421875 17.25 L 15.75 18 L 17.25 18 L 15.632812 14.25 L 17.25 14.25 Z M 14.25 14.507812 L 14.789062 15.75 L 13.710938 15.75 Z M 14.25 14.507812"/>
    </g>
</svg>
