<?xml version="1.0" encoding="UTF-8"?>
<svg xmlns="http://www.w3.org/2000/svg" xmlns:xlink="http://www.w3.org/1999/xlink" viewBox="0 0 24 24" version="1.1">
    <g>
        <path d="M 12 2.25 C 11.171875 2.25 10.5 2.921875 10.5 3.75 C 10.5 3.816406 10.515625 3.875 10.523438 3.9375 C 7.929688 4.601562 6 6.957031 6 9.75 L 6 16.5 C 6 16.925781 5.675781 17.25 5.25 17.25 L 4.5 17.25 L 4.5 18.75 L 9.890625 18.75 C 9.804688 18.988281 9.75 19.238281 9.75 19.5 C 9.75 20.734375 10.765625 21.75 12 21.75 C 13.234375 21.75 14.25 20.734375 14.25 19.5 C 14.25 19.238281 14.195312 18.988281 14.109375 18.75 L 19.5 18.75 L 19.5 17.25 L 18.75 17.25 C 18.324219 17.25 18 16.925781 18 16.5 L 18 9.960938 C 18 7.144531 16.117188 4.628906 13.476562 3.9375 C 13.484375 3.875 13.5 3.816406 13.5 3.75 C 13.5 2.921875 12.828125 2.25 12 2.25 Z M 11.671875 5.25 C 11.78125 5.242188 11.890625 5.25 12 5.25 C 12.046875 5.25 12.09375 5.25 12.140625 5.25 C 14.589844 5.324219 16.5 7.472656 16.5 9.960938 L 16.5 16.5 C 16.5 16.765625 16.554688 17.011719 16.640625 17.25 L 7.359375 17.25 C 7.445312 17.011719 7.5 16.765625 7.5 16.5 L 7.5 9.75 C 7.5 7.367188 9.335938 5.421875 11.671875 5.25 Z M 12 18.75 C 12.421875 18.75 12.75 19.078125 12.75 19.5 C 12.75 19.921875 12.421875 20.25 12 20.25 C 11.578125 20.25 11.25 19.921875 11.25 19.5 C 11.25 19.078125 11.578125 18.75 12 18.75 Z M 12 18.75"/>
    </g>
</svg>
