<?xml version="1.0" encoding="UTF-8"?>
<svg xmlns="http://www.w3.org/2000/svg" xmlns:xlink="http://www.w3.org/1999/xlink" viewBox="0 0 24 24" version="1.1">
    <g>
        <path d="M 14.25 2.25 C 10.117188 2.25 6.75 5.617188 6.75 9.75 C 6.75 11.546875 7.378906 13.191406 8.4375 14.484375 L 2.460938 20.460938 L 3.539062 21.539062 L 9.515625 15.5625 C 10.808594 16.621094 12.453125 17.25 14.25 17.25 C 18.382812 17.25 21.75 13.882812 21.75 9.75 C 21.75 5.617188 18.382812 2.25 14.25 2.25 Z M 14.25 3.75 C 17.574219 3.75 20.25 6.429688 20.25 9.75 C 20.25 13.074219 17.574219 15.75 14.25 15.75 C 10.929688 15.75 8.25 13.074219 8.25 9.75 C 8.25 6.429688 10.929688 3.75 14.25 3.75 Z M 14.25 3.75"/>
    </g>
</svg>
