<?xml version="1.0" encoding="UTF-8"?>
<svg xmlns="http://www.w3.org/2000/svg" xmlns:xlink="http://www.w3.org/1999/xlink" viewBox="0 0 24 24" version="1.1">
    <g>
        <path d="M 9.890625 2.25 L 9.773438 2.859375 L 9.328125 5.085938 C 8.613281 5.367188 7.96875 5.761719 7.382812 6.234375 L 5.203125 5.484375 L 4.617188 5.296875 L 4.3125 5.835938 L 2.8125 8.414062 L 2.507812 8.953125 L 2.953125 9.351562 L 4.640625 10.828125 C 4.578125 11.210938 4.5 11.597656 4.5 12 C 4.5 12.40625 4.578125 12.789062 4.640625 13.171875 L 2.953125 14.648438 L 2.507812 15.046875 L 2.8125 15.585938 L 4.3125 18.164062 L 4.617188 18.703125 L 5.203125 18.515625 L 7.382812 17.765625 C 7.96875 18.238281 8.613281 18.632812 9.328125 18.914062 L 9.773438 21.140625 L 9.890625 21.75 L 14.109375 21.75 L 14.226562 21.140625 L 14.671875 18.914062 C 15.386719 18.632812 16.03125 18.238281 16.617188 17.765625 L 18.796875 18.515625 L 19.382812 18.703125 L 19.6875 18.164062 L 21.1875 15.585938 L 21.492188 15.046875 L 21.046875 14.648438 L 19.359375 13.171875 C 19.421875 12.789062 19.5 12.40625 19.5 12 C 19.5 11.597656 19.421875 11.210938 19.359375 10.828125 L 21.046875 9.351562 L 21.492188 8.953125 L 21.1875 8.414062 L 19.6875 5.835938 L 19.382812 5.296875 L 18.796875 5.484375 L 16.617188 6.234375 C 16.03125 5.761719 15.386719 5.367188 14.671875 5.085938 L 14.226562 2.859375 L 14.109375 2.25 Z M 11.109375 3.75 L 12.890625 3.75 L 13.265625 5.695312 L 13.359375 6.140625 L 13.78125 6.28125 C 14.632812 6.546875 15.40625 7 16.054688 7.59375 L 16.382812 7.898438 L 16.804688 7.757812 L 18.703125 7.101562 L 19.59375 8.625 L 18.09375 9.960938 L 17.742188 10.242188 L 17.859375 10.6875 C 17.957031 11.117188 18 11.550781 18 12 C 18 12.449219 17.957031 12.886719 17.859375 13.3125 L 17.765625 13.757812 L 18.09375 14.039062 L 19.59375 15.375 L 18.703125 16.898438 L 16.804688 16.242188 L 16.382812 16.101562 L 16.054688 16.40625 C 15.40625 17 14.632812 17.453125 13.78125 17.71875 L 13.359375 17.859375 L 13.265625 18.304688 L 12.890625 20.25 L 11.109375 20.25 L 10.734375 18.304688 L 10.640625 17.859375 L 10.21875 17.71875 C 9.367188 17.453125 8.59375 17 7.945312 16.40625 L 7.617188 16.101562 L 7.195312 16.242188 L 5.296875 16.898438 L 4.40625 15.375 L 5.90625 14.039062 L 6.257812 13.757812 L 6.140625 13.3125 C 6.042969 12.886719 6 12.449219 6 12 C 6 11.550781 6.042969 11.117188 6.140625 10.6875 L 6.257812 10.242188 L 5.90625 9.960938 L 4.40625 8.625 L 5.296875 7.101562 L 7.195312 7.757812 L 7.617188 7.898438 L 7.945312 7.59375 C 8.59375 7 9.367188 6.546875 10.21875 6.28125 L 10.640625 6.140625 L 10.734375 5.695312 Z M 12 8.25 C 9.9375 8.25 8.25 9.9375 8.25 12 C 8.25 14.0625 9.9375 15.75 12 15.75 C 14.0625 15.75 15.75 14.0625 15.75 12 C 15.75 9.9375 14.0625 8.25 12 8.25 Z M 12 9.75 C 13.25 9.75 14.25 10.75 14.25 12 C 14.25 13.25 13.25 14.25 12 14.25 C 10.75 14.25 9.75 13.25 9.75 12 C 9.75 10.75 10.75 9.75 12 9.75 Z M 12 9.75"/>
    </g>
</svg>
