<?xml version="1.0" encoding="UTF-8"?>
<svg xmlns="http://www.w3.org/2000/svg" xmlns:xlink="http://www.w3.org/1999/xlink" viewBox="0 0 24 24" version="1.1">
    <g>
        <path d="M 3 3 L 3 5.742188 L 0.75 8.742188 L 0.75 9 C 0.75 10.234375 1.765625 11.25 3 11.25 L 3 21 L 15 21 L 15 14.25 L 16.5 14.25 L 16.5 21 L 21 21 L 21 11.25 C 22.234375 11.25 23.25 10.234375 23.25 9 L 23.25 8.742188 L 21 5.742188 L 21 3 Z M 4.5 4.5 L 19.5 4.5 L 19.5 5.25 L 4.5 5.25 Z M 4.125 6.75 L 19.875 6.75 L 21.679688 9.164062 C 21.597656 9.488281 21.351562 9.75 21 9.75 C 20.585938 9.75 20.25 9.417969 20.25 9 L 18.75 9 C 18.75 9.417969 18.417969 9.75 18 9.75 C 17.585938 9.75 17.25 9.417969 17.25 9 L 15.75 9 C 15.75 9.417969 15.417969 9.75 15 9.75 C 14.585938 9.75 14.25 9.417969 14.25 9 L 12.75 9 C 12.75 9.417969 12.417969 9.75 12 9.75 C 11.585938 9.75 11.25 9.417969 11.25 9 L 9.75 9 C 9.75 9.417969 9.417969 9.75 9 9.75 C 8.585938 9.75 8.25 9.417969 8.25 9 L 6.75 9 C 6.75 9.417969 6.417969 9.75 6 9.75 C 5.585938 9.75 5.25 9.417969 5.25 9 L 3.75 9 C 3.75 9.417969 3.417969 9.75 3 9.75 C 2.648438 9.75 2.402344 9.488281 2.320312 9.164062 Z M 4.5 10.664062 C 4.898438 11.023438 5.425781 11.25 6 11.25 C 6.574219 11.25 7.101562 11.023438 7.5 10.664062 C 7.898438 11.023438 8.425781 11.25 9 11.25 C 9.574219 11.25 10.101562 11.023438 10.5 10.664062 C 10.898438 11.023438 11.425781 11.25 12 11.25 C 12.574219 11.25 13.101562 11.023438 13.5 10.664062 C 13.898438 11.023438 14.425781 11.25 15 11.25 C 15.574219 11.25 16.101562 11.023438 16.5 10.664062 C 16.898438 11.023438 17.425781 11.25 18 11.25 C 18.574219 11.25 19.101562 11.023438 19.5 10.664062 L 19.5 19.5 L 18 19.5 L 18 12.75 L 13.5 12.75 L 13.5 19.5 L 4.5 19.5 Z M 6 12.75 L 6 18 L 12 18 L 12 12.75 Z M 7.5 14.25 L 10.5 14.25 L 10.5 16.5 L 7.5 16.5 Z M 7.5 14.25"/>
    </g>
</svg>
